  0
SECTION
  2
HEADER
  9
$ACADVER
  1
AC1015
  9
$ACADMAINTVER
 70
     6
  9
$DWGCODEPAGE
  3
ANSI_1252
  9
$INSBASE
 10
0.0
 20
0.0
 30
0.0
  9
$EXTMIN
 10
0.0
 20
0.0
 30
0.0
  9
$EXTMAX
 10
431.8
 20
279.4
 30
0.0
  9
$LIMMIN
 10
0.0
 20
0.0
  9
$LIMMAX
 10
431.8
 20
279.4
  9
$ORTHOMODE
 70
     0
  9
$REGENMODE
 70
     1
  9
$FILLMODE
 70
     1
  9
$QTEXTMODE
 70
     0
  9
$MIRRTEXT
 70
     1
  9
$LTSCALE
 40
1.0
  9
$ATTMODE
 70
     1
  9
$TEXTSIZE
 40
3.5
  9
$TRACEWID
 40
1.0
  9
$TEXTSTYLE
  7
Standard
  9
$CLAYER
  8
0
  9
$CELTYPE
  6
ByLayer
  9
$CECOLOR
 62
   256
  9
$CELTSCALE
 40
1.0
  9
$DISPSILH
 70
     0
  9
$DIMSCALE
 40
1.0
  9
$DIMASZ
 40
3.302
  9
$DIMEXO
 40
1.0
  9
$DIMDLI
 40
3.75
  9
$DIMRND
 40
0.0
  9
$DIMDLE
 40
0.0
  9
$DIMEXE
 40
1.0
  9
$DIMTP
 40
0.0
  9
$DIMTM
 40
0.0
  9
$DIMTXT
 40
3.5
  9
$DIMCEN
 40
2.5
  9
$DIMTSZ
 40
0.0
  9
$DIMTOL
 70
     0
  9
$DIMLIM
 70
     0
  9
$DIMTIH
 70
     1
  9
$DIMTOH
 70
     1
  9
$DIMSE1
 70
     0
  9
$DIMSE2
 70
     0
  9
$DIMTAD
 70
     1
  9
$DIMZIN
 70
     0
  9
$DIMBLK
  1

  9
$DIMASO
 70
     1
  9
$DIMSHO
 70
     1
  9
$DIMPOST
  1

  9
$DIMAPOST
  1

  9
$DIMALT
 70
     0
  9
$DIMALTD
 70
     3
  9
$DIMALTF
 40
0.0393700787
  9
$DIMLFAC
 40
1.0
  9
$DIMTOFL
 70
     1
  9
$DIMTVP
 40
0.0
  9
$DIMTIX
 70
     0
  9
$DIMSOXD
 70
     0
  9
$DIMSAH
 70
     0
  9
$DIMBLK1
  1

  9
$DIMBLK2
  1

  9
$DIMSTYLE
  2
ISO-25
  9
$DIMCLRD
 70
     0
  9
$DIMCLRE
 70
     0
  9
$DIMCLRT
 70
     0
  9
$DIMTFAC
 40
1.0
  9
$DIMGAP
 40
1.524
  9
$DIMJUST
 70
     0
  9
$DIMSD1
 70
     0
  9
$DIMSD2
 70
     0
  9
$DIMTOLJ
 70
     0
  9
$DIMTZIN
 70
     0
  9
$DIMALTZ
 70
     0
  9
$DIMALTTZ
 70
     0
  9
$DIMUPT
 70
     0
  9
$DIMDEC
 70
     2
  9
$DIMTDEC
 70
     2
  9
$DIMALTU
 70
     2
  9
$DIMALTTD
 70
     3
  9
$DIMTXSTY
  7
Standard
  9
$DIMAUNIT
 70
     0
  9
$DIMADEC
 70
     2
  9
$DIMALTRND
 40
0.0
  9
$DIMAZIN
 70
     0
  9
$DIMDSEP
 70
    44
  9
$DIMATFIT
 70
     3
  9
$DIMFRAC
 70
     0
  9
$DIMLDRBLK
  1

  9
$DIMLUNIT
 70
     2
  9
$DIMLWD
 70
    -2
  9
$DIMLWE
 70
    -2
  9
$DIMTMOVE
 70
     0
  9
$LUNITS
 70
     2
  9
$LUPREC
 70
     2
  9
$SKETCHINC
 40
1.0
  9
$FILLETRAD
 40
10.0
  9
$AUNITS
 70
     0
  9
$AUPREC
 70
     2
  9
$MENU
  1
.
  9
$ELEVATION
 40
0.0
  9
$PELEVATION
 40
0.0
  9
$THICKNESS
 40
0.0
  9
$LIMCHECK
 70
     0
  9
$CHAMFERA
 40
0.0
  9
$CHAMFERB
 40
0.0
  9
$CHAMFERC
 40
0.0
  9
$CHAMFERD
 40
0.0
  9
$SKPOLY
 70
     0
  9
$TDCREATE
 40
2457431.726269306
  9
$TDUCREATE
 40
2457432.059602639
  9
$TDUPDATE
 40
2457431.726271505
  9
$TDUUPDATE
 40
2457432.059604838
  9
$TDINDWG
 40
0.0000000116
  9
$TDUSRTIMER
 40
0.0000000116
  9
$USRTIMER
 70
     1
  9
$ANGBASE
 50
0.0
  9
$ANGDIR
 70
     0
  9
$PDMODE
 70
     0
  9
$PDSIZE
 40
-1.0
  9
$PLINEWID
 40
0.0
  9
$SPLFRAME
 70
     0
  9
$SPLINETYPE
 70
     6
  9
$SPLINESEGS
 70
     8
  9
$HANDSEED
  5
2C8
  9
$SURFTAB1
 70
     6
  9
$SURFTAB2
 70
     6
  9
$SURFTYPE
 70
     6
  9
$SURFU
 70
     6
  9
$SURFV
 70
     6
  9
$UCSBASE
  2

  9
$UCSNAME
  2

  9
$UCSORG
 10
0.0
 20
0.0
 30
0.0
  9
$UCSXDIR
 10
1.0
 20
0.0
 30
0.0
  9
$UCSYDIR
 10
0.0
 20
1.0
 30
0.0
  9
$UCSORTHOREF
  2

  9
$UCSORTHOVIEW
 70
     0
  9
$UCSORGTOP
 10
0.0
 20
0.0
 30
0.0
  9
$UCSORGBOTTOM
 10
0.0
 20
0.0
 30
0.0
  9
$UCSORGLEFT
 10
0.0
 20
0.0
 30
0.0
  9
$UCSORGRIGHT
 10
0.0
 20
0.0
 30
0.0
  9
$UCSORGFRONT
 10
0.0
 20
0.0
 30
0.0
  9
$UCSORGBACK
 10
0.0
 20
0.0
 30
0.0
  9
$PUCSBASE
  2

  9
$PUCSNAME
  2

  9
$PUCSORG
 10
0.0
 20
0.0
 30
0.0
  9
$PUCSXDIR
 10
1.0
 20
0.0
 30
0.0
  9
$PUCSYDIR
 10
0.0
 20
1.0
 30
0.0
  9
$PUCSORTHOREF
  2

  9
$PUCSORTHOVIEW
 70
     0
  9
$PUCSORGTOP
 10
0.0
 20
0.0
 30
0.0
  9
$PUCSORGBOTTOM
 10
0.0
 20
0.0
 30
0.0
  9
$PUCSORGLEFT
 10
0.0
 20
0.0
 30
0.0
  9
$PUCSORGRIGHT
 10
0.0
 20
0.0
 30
0.0
  9
$PUCSORGFRONT
 10
0.0
 20
0.0
 30
0.0
  9
$PUCSORGBACK
 10
0.0
 20
0.0
 30
0.0
  9
$USERI1
 70
     0
  9
$USERI2
 70
     0
  9
$USERI3
 70
     0
  9
$USERI4
 70
     0
  9
$USERI5
 70
     0
  9
$USERR1
 40
0.0
  9
$USERR2
 40
0.0
  9
$USERR3
 40
0.0
  9
$USERR4
 40
0.0
  9
$USERR5
 40
0.0
  9
$WORLDVIEW
 70
     1
  9
$SHADEDGE
 70
     3
  9
$SHADEDIF
 70
    70
  9
$TILEMODE
 70
     1
  9
$MAXACTVP
 70
    64
  9
$PINSBASE
 10
0.0
 20
0.0
 30
0.0
  9
$PLIMCHECK
 70
     0
  9
$PEXTMIN
 10
0.0
 20
0.0
 30
0.0
  9
$PEXTMAX
 10
431.8
 20
279.4
 30
0.0
  9
$PLIMMIN
 10
0.0
 20
0.0
  9
$PLIMMAX
 10
431.8
 20
279.4
  9
$UNITMODE
 70
     0
  9
$VISRETAIN
 70
     1
  9
$PLINEGEN
 70
     0
  9
$PSLTSCALE
 70
     1
  9
$TREEDEPTH
 70
  3020
  9
$CMLSTYLE
  2
Standard
  9
$CMLJUST
 70
     0
  9
$CMLSCALE
 40
20.0
  9
$PROXYGRAPHICS
 70
     1
  9
$MEASUREMENT
 70
     1
  9
$CELWEIGHT
370
    -1
  9
$ENDCAPS
280
     0
  9
$JOINSTYLE
280
     0
  9
$LWDISPLAY
290
     1
  9
$INSUNITS
 70
     4
  9
$HYPERLINKBASE
  1

  9
$STYLESHEET
  1

  9
$XEDIT
290
     1
  9
$CEPSNTYPE
380
     0
  9
$PSTYLEMODE
290
     1
  9
$FINGERPRINTGUID
  2
{C7FB41FF-7069-4B18-9447-B1D61026AFF9}
  9
$VERSIONGUID
  2
{FAEB1C32-E019-11D5-929B-00C0DF256EC4}
  9
$EXTNAMES
290
     1
  9
$PSVPSCALE
 40
0.0
  9
$OLESTARTUP
290
     0
  0
ENDSEC
  0
SECTION
  2
CLASSES
  0
CLASS
  1
ACDBDICTIONARYWDFLT
  2
AcDbDictionaryWithDefault
  3
ObjectDBX Classes
 90
        0
280
     0
281
     0
  0
CLASS
  1
VISUALSTYLE
  2
AcDbVisualStyle
  3
ObjectDBX Classes
 90
     4095
280
     0
281
     0
  0
CLASS
  1
MATERIAL
  2
AcDbMaterial
  3
ObjectDBX Classes
 90
     1153
280
     0
281
     0
  0
CLASS
  1
SCALE
  2
AcDbScale
  3
ObjectDBX Classes
 90
     1153
280
     0
281
     0
  0
CLASS
  1
TABLESTYLE
  2
AcDbTableStyle
  3
ObjectDBX Classes
 90
     4095
280
     0
281
     0
  0
CLASS
  1
MLEADERSTYLE
  2
AcDbMLeaderStyle
  3
ACDB_MLEADERSTYLE_CLASS
 90
     4095
280
     0
281
     0
  0
CLASS
  1
SUN
  2
AcDbSun
  3
SCENEOE
 90
     1153
280
     0
281
     0
  0
CLASS
  1
ACDBPLACEHOLDER
  2
AcDbPlaceHolder
  3
ObjectDBX Classes
 90
        0
280
     0
281
     0
  0
CLASS
  1
LAYOUT
  2
AcDbLayout
  3
ObjectDBX Classes
 90
        0
280
     0
281
     0
  0
ENDSEC
  0
SECTION
  2
TABLES
  0
TABLE
  2
VPORT
  5
8
330
0
100
AcDbSymbolTable
 70
     1
  0
VPORT
  5
29
330
8
100
AcDbSymbolTableRecord
100
AcDbViewportTableRecord
  2
*Active
 70
     0
 10
0.0
 20
0.0
 11
1.0
 21
1.0
 12
215.9
 22
139.7
 13
0.0
 23
0.0
 14
10.0
 24
10.0
 15
10.0
 25
10.0
 16
0.0
 26
0.0
 36
1.0
 17
0.0
 27
0.0
 37
0.0
 40
279.4
 41
1.5454545455
 42
50.0
 43
0.0
 44
0.0
 50
0.0
 51
0.0
 71
     0
 72
  2000
 73
     1
 74
     3
 75
     0
 76
     0
 77
     0
 78
     0
281
     0
 65
     1
110
0.0
120
0.0
130
0.0
111
1.0
121
0.0
131
0.0
112
0.0
122
1.0
132
0.0
 79
     0
146
0.0
  0
ENDTAB
  0
TABLE
  2
LTYPE
  5
5
330
0
100
AcDbSymbolTable
 70
     6
  0
LTYPE
  5
14
330
5
100
AcDbSymbolTableRecord
100
AcDbLinetypeTableRecord
  2
ByBlock
 70
     0
  3

 72
    65
 73
     0
 40
0.0
  0
LTYPE
  5
15
330
5
100
AcDbSymbolTableRecord
100
AcDbLinetypeTableRecord
  2
ByLayer
 70
     0
  3

 72
    65
 73
     0
 40
0.0
  0
LTYPE
  5
16
330
5
100
AcDbSymbolTableRecord
100
AcDbLinetypeTableRecord
  2
Continuous
 70
     0
  3
Solid line
 72
    65
 73
     0
 40
0.0
  0
LTYPE
  5
6E
330
5
100
AcDbSymbolTableRecord
100
AcDbLinetypeTableRecord
  2
HIDDEN
 70
     0
  3
Hidden __ __ __ __ __ __ __ __ __ __ __ __ __ __
 72
    65
 73
     2
 40
1.905
 49
1.27
 74
     0
 49
-0.635
 74
     0
  0
LTYPE
  5
6F
330
5
100
AcDbSymbolTableRecord
100
AcDbLinetypeTableRecord
  2
PHANTOM
 70
     0
  3
Phantom ______  __  __  ______  __  __  ______
 72
    65
 73
     6
 40
12.7
 49
6.35
 74
     0
 49
-1.27
 74
     0
 49
1.27
 74
     0
 49
-1.27
 74
     0
 49
1.27
 74
     0
 49
-1.27
 74
     0
  0
LTYPE
  5
70
330
5
100
AcDbSymbolTableRecord
100
AcDbLinetypeTableRecord
  2
CENTER
 70
     0
  3
Center ____ _ ____ _ ____ _ ____ _ ____ _ ____
 72
    65
 73
     4
 40
10.16
 49
6.35
 74
     0
 49
-1.27
 74
     0
 49
1.27
 74
     0
 49
-1.27
 74
     0
  0
LTYPE
  5
71
330
5
100
AcDbSymbolTableRecord
100
AcDbLinetypeTableRecord
  2
CENTERX2
 70
     0
  3
Center (2x) ________  __  ________  __  _____
 72
    65
 73
     4
 40
20.32
 49
12.7
 74
     0
 49
-2.54
 74
     0
 49
2.54
 74
     0
 49
-2.54
 74
     0
  0
LTYPE
  5
72
330
5
100
AcDbSymbolTableRecord
100
AcDbLinetypeTableRecord
  2
DOT2
 70
     0
  3
Dot (.5x) ........................................
 72
    65
 73
     2
 40
0.635
 49
0.0
 74
     0
 49
-0.635
 74
     0
  0
ENDTAB
  0
TABLE
  2
LAYER
  5
2
330
0
100
AcDbSymbolTable
 70
    12
  0
LAYER
  5
10
330
2
100
AcDbSymbolTableRecord
100
AcDbLayerTableRecord
  2
0
 70
     0
 62
     7
  6
Continuous
370
    -3
390
F
  0
LAYER
  5
73
330
2
100
AcDbSymbolTableRecord
100
AcDbLayerTableRecord
  2
FORMAT
 70
     0
 62
     7
  6
Continuous
370
    -3
390
F
  0
LAYER
  5
74
330
2
100
AcDbSymbolTableRecord
100
AcDbLayerTableRecord
  2
SLD-0
 70
     0
 62
     7
  6
Continuous
370
    -3
390
F
  0
LAYER
  5
75
330
2
100
AcDbSymbolTableRecord
100
AcDbLayerTableRecord
  2
0020010003
 70
     0
 62
     7
  6
Continuous
370
    -3
390
F
  0
LAYER
  5
76
330
2
100
AcDbSymbolTableRecord
100
AcDbLayerTableRecord
  2
0020010004
 70
     0
 62
     7
  6
Continuous
370
    -3
390
F
  0
LAYER
  5
77
330
2
100
AcDbSymbolTableRecord
100
AcDbLayerTableRecord
  2
0010010004
 70
     0
 62
     7
  6
Continuous
370
    -3
390
F
  0
LAYER
  5
78
330
2
100
AcDbSymbolTableRecord
100
AcDbLayerTableRecord
  2
0010040007
 70
     0
 62
     7
  6
Continuous
370
    -3
390
F
  0
LAYER
  5
79
330
2
100
AcDbSymbolTableRecord
100
AcDbLayerTableRecord
  2
0010010007
 70
     0
 62
     7
  6
Continuous
370
    -3
390
F
  0
LAYER
  5
7A
330
2
100
AcDbSymbolTableRecord
100
AcDbLayerTableRecord
  2
1
 70
     0
 62
     7
  6
Continuous
370
    -3
390
F
  0
LAYER
  5
7B
330
2
100
AcDbSymbolTableRecord
100
AcDbLayerTableRecord
  2
0060010007
 70
     0
 62
     7
  6
Continuous
370
    -3
390
F
  0
LAYER
  5
7C
330
2
100
AcDbSymbolTableRecord
100
AcDbLayerTableRecord
  2
DEFAULT_1
 70
     0
 62
   179
  6
CENTER
370
    -3
390
F
  0
LAYER
  5
7D
330
2
100
AcDbSymbolTableRecord
100
AcDbLayerTableRecord
  2
LAYER_2
 70
     0
 62
   179
  6
Continuous
370
    -3
390
F
  0
ENDTAB
  0
TABLE
  2
STYLE
  5
3
330
0
100
AcDbSymbolTable
 70
    10
  0
STYLE
  5
11
330
3
100
AcDbSymbolTableRecord
100
AcDbTextStyleTableRecord
  2
Standard
 70
     0
 40
0.0
 41
1.0
 50
0.0
 71
     0
 42
3.5
  3
txt
  4

  0
STYLE
  5
162
330
3
100
AcDbSymbolTableRecord
100
AcDbTextStyleTableRecord
  2
SLDTEXTSTYLE0
 70
     0
 40
0.0
 41
0.619047619
 50
0.0
 71
     0
 42
3.5
  3
TXT
  4

  0
STYLE
  5
164
330
3
100
AcDbSymbolTableRecord
100
AcDbTextStyleTableRecord
  2
SLDTEXTSTYLE1
 70
     0
 40
0.0
 41
0.75
 50
0.0
 71
     0
 42
3.5
  3
TXT
  4

  0
STYLE
  5
166
330
3
100
AcDbSymbolTableRecord
100
AcDbTextStyleTableRecord
  2
SLDTEXTSTYLE2
 70
     0
 40
0.0
 41
0.59
 50
0.0
 71
     0
 42
3.5
  3
TXT
  4

  0
STYLE
  5
1B3
330
3
100
AcDbSymbolTableRecord
100
AcDbTextStyleTableRecord
  2
SLDTEXTSTYLE3
 70
     0
 40
0.0
 41
0.6988636364
 50
0.0
 71
     0
 42
3.5
  3
TXT
  4

  0
STYLE
  5
1B7
330
3
100
AcDbSymbolTableRecord
100
AcDbTextStyleTableRecord
  2
SLDTEXTSTYLE4
 70
     0
 40
0.0
 41
0.6979166667
 50
0.0
 71
     0
 42
3.5
  3
TXT
  4

  0
STYLE
  5
1BA
330
3
100
AcDbSymbolTableRecord
100
AcDbTextStyleTableRecord
  2
SLDTEXTSTYLE5
 70
     0
 40
0.0
 41
0.696969697
 50
0.0
 71
     0
 42
3.5
  3
TXT
  4

  0
STYLE
  5
1D8
330
3
100
AcDbSymbolTableRecord
100
AcDbTextStyleTableRecord
  2
SLDTEXTSTYLE6
 70
     0
 40
0.0
 41
0.7
 50
0.0
 71
     0
 42
3.5
  3
TXT
  4

  0
STYLE
  5
1E7
330
3
100
AcDbSymbolTableRecord
100
AcDbTextStyleTableRecord
  2
SLDTEXTSTYLE7
 70
     0
 40
0.0
 41
0.6944444444
 50
0.0
 71
     0
 42
3.5
  3
TXT
  4

  0
STYLE
  5
1F3
330
3
100
AcDbSymbolTableRecord
100
AcDbTextStyleTableRecord
  2
SLDTEXTSTYLE8
 70
     0
 40
0.0
 41
0.6875
 50
0.0
 71
     0
 42
3.5
  3
TXT
  4

  0
ENDTAB
  0
TABLE
  2
VIEW
  5
6
330
0
100
AcDbSymbolTable
 70
     0
  0
ENDTAB
  0
TABLE
  2
UCS
  5
7
330
0
100
AcDbSymbolTable
 70
     0
  0
ENDTAB
  0
TABLE
  2
APPID
  5
9
330
0
100
AcDbSymbolTable
 70
     1
  0
APPID
  5
12
330
9
100
AcDbSymbolTableRecord
100
AcDbRegAppTableRecord
  2
ACAD
 70
     0
  0
ENDTAB
  0
TABLE
  2
DIMSTYLE
  5
A
330
0
100
AcDbSymbolTable
 70
     4
100
AcDbDimStyleTable
  0
DIMSTYLE
105
27
330
A
100
AcDbSymbolTableRecord
100
AcDbDimStyleTableRecord
  2
ISO-25
 70
     0
 41
2.5
 42
0.625
 43
3.75
 44
1.25
 73
     0
 74
     0
 77
     1
 78
     8
140
2.5
141
2.5
143
0.0393700787
147
0.625
171
     3
172
     1
178
     0
271
     2
272
     2
274
     3
278
    44
283
     0
284
     8
340
11
  0
DIMSTYLE
105
20A
102
{ACAD_REACTORS
330
209
102
}
330
A
100
AcDbSymbolTableRecord
100
AcDbDimStyleTableRecord
  2
SLDDIMSTYLE0
 70
     0
 41
3.302
 44
0.0
 45
0.000000001
 47
0.2
 48
0.2
 71
     1
 73
     0
 74
     0
 77
     1
 78
    12
 79
     3
140
3.5
147
0.875
173
     1
178
     0
271
     2
272
     2
276
     2
340
164
  0
DIMSTYLE
105
216
102
{ACAD_REACTORS
330
215
102
}
330
A
100
AcDbSymbolTableRecord
100
AcDbDimStyleTableRecord
  2
SLDDIMSTYLE1
 70
     0
 41
3.302
 44
0.0
 45
0.000000001
 47
0.2
 48
0.2
 71
     1
 73
     0
 74
     0
 77
     1
 78
    12
 79
     3
140
3.5
147
0.875
172
     1
173
     1
178
     0
271
     2
272
     2
276
     2
289
     0
340
164
  0
DIMSTYLE
105
228
102
{ACAD_REACTORS
330
227
102
}
330
A
100
AcDbSymbolTableRecord
100
AcDbDimStyleTableRecord
  2
SLDDIMSTYLE2
 70
     0
 41
3.302
 44
0.0
 45
0.000000001
 73
     0
 74
     0
 77
     1
140
3.5
147
0.875
172
     1
173
     1
178
     0
271
     2
272
     2
276
     2
284
    12
289
     0
340
164
  0
ENDTAB
  0
TABLE
  2
BLOCK_RECORD
  5
1
330
0
100
AcDbSymbolTable
 70
    24
  0
BLOCK_RECORD
  5
1F
330
1
100
AcDbSymbolTableRecord
100
AcDbBlockTableRecord
  2
*Model_Space
340
22
  0
BLOCK_RECORD
  5
1B
330
1
100
AcDbSymbolTableRecord
100
AcDbBlockTableRecord
  2
*Paper_Space
340
1E
  0
BLOCK_RECORD
  5
7E
330
1
100
AcDbSymbolTableRecord
100
AcDbBlockTableRecord
  2
Block8
340
0
102
{BLKREFS
331
1AC
331
277
102
}
  0
BLOCK_RECORD
  5
81
330
1
100
AcDbSymbolTableRecord
100
AcDbBlockTableRecord
  2
Block7
340
0
102
{BLKREFS
331
16D
102
}
  0
BLOCK_RECORD
  5
D5
330
1
100
AcDbSymbolTableRecord
100
AcDbBlockTableRecord
  2
BLOCK 2
340
0
102
{BLKREFS
331
16E
102
}
  0
BLOCK_RECORD
  5
D8
330
1
100
AcDbSymbolTableRecord
100
AcDbBlockTableRecord
  2
BLOCK 3
340
0
102
{BLKREFS
331
16F
102
}
  0
BLOCK_RECORD
  5
DB
330
1
100
AcDbSymbolTableRecord
100
AcDbBlockTableRecord
  2
BLOCK 4
340
0
102
{BLKREFS
331
171
102
}
  0
BLOCK_RECORD
  5
DE
330
1
100
AcDbSymbolTableRecord
100
AcDbBlockTableRecord
  2
BLOCK 5
340
0
102
{BLKREFS
331
172
102
}
  0
BLOCK_RECORD
  5
FF
330
1
100
AcDbSymbolTableRecord
100
AcDbBlockTableRecord
  2
BLOCK 6
340
0
102
{BLKREFS
331
173
102
}
  0
BLOCK_RECORD
  5
12E
330
1
100
AcDbSymbolTableRecord
100
AcDbBlockTableRecord
  2
BLOCK 7
340
0
102
{BLKREFS
331
170
102
}
  0
BLOCK_RECORD
  5
148
330
1
100
AcDbSymbolTableRecord
100
AcDbBlockTableRecord
  2
Block9
340
0
102
{BLKREFS
331
1AD
331
278
102
}
  0
BLOCK_RECORD
  5
157
330
1
100
AcDbSymbolTableRecord
100
AcDbBlockTableRecord
  2
Block12
340
0
102
{BLKREFS
331
1AE
331
279
102
}
  0
BLOCK_RECORD
  5
1AF
330
1
100
AcDbSymbolTableRecord
100
AcDbBlockTableRecord
  2
SW_NOTE_0
340
0
102
{BLKREFS
331
1BC
102
}
  0
BLOCK_RECORD
  5
1D5
330
1
100
AcDbSymbolTableRecord
100
AcDbBlockTableRecord
  2
SW_NOTE_1
340
0
102
{BLKREFS
331
1DE
102
}
  0
BLOCK_RECORD
  5
1EB
330
1
100
AcDbSymbolTableRecord
100
AcDbBlockTableRecord
  2
SW_NOTE_2
340
0
102
{BLKREFS
331
1F0
102
}
  0
BLOCK_RECORD
  5
1F5
330
1
100
AcDbSymbolTableRecord
100
AcDbBlockTableRecord
  2
SW_NOTE_3
340
0
102
{BLKREFS
331
1FB
102
}
  0
BLOCK_RECORD
  5
1FF
330
1
100
AcDbSymbolTableRecord
100
AcDbBlockTableRecord
  2
SW_NOTE_4
340
0
102
{BLKREFS
331
204
102
}
  0
BLOCK_RECORD
  5
20B
330
1
100
AcDbSymbolTableRecord
100
AcDbBlockTableRecord
  2
_D
340
0
  0
BLOCK_RECORD
  5
217
330
1
100
AcDbSymbolTableRecord
100
AcDbBlockTableRecord
  2
_D_1
340
0
  0
BLOCK_RECORD
  5
229
330
1
100
AcDbSymbolTableRecord
100
AcDbBlockTableRecord
  2
_D_2
340
0
  0
BLOCK_RECORD
  5
292
330
1
100
AcDbSymbolTableRecord
100
AcDbBlockTableRecord
  2
SW_NOTE_5
340
0
102
{BLKREFS
331
29A
102
}
  0
BLOCK_RECORD
  5
29C
330
1
100
AcDbSymbolTableRecord
100
AcDbBlockTableRecord
  2
SW_NOTE_6
340
0
102
{BLKREFS
331
2A1
102
}
  0
BLOCK_RECORD
  5
2AB
330
1
100
AcDbSymbolTableRecord
100
AcDbBlockTableRecord
  2
SW_NOTE_7
340
0
102
{BLKREFS
331
2B0
102
}
  0
BLOCK_RECORD
  5
2B4
330
1
100
AcDbSymbolTableRecord
100
AcDbBlockTableRecord
  2
SW_NOTE_8
340
0
102
{BLKREFS
331
2BA
102
}
  0
BLOCK_RECORD
  5
2BE
330
1
100
AcDbSymbolTableRecord
100
AcDbBlockTableRecord
  2
SW_NOTE_9
340
0
102
{BLKREFS
331
2C3
102
}
  0
ENDTAB
  0
ENDSEC
  0
SECTION
  2
BLOCKS
  0
BLOCK
  5
20
330
1F
100
AcDbEntity
  8
0
100
AcDbBlockBegin
  2
*Model_Space
 70
     0
 10
0.0
 20
0.0
 30
0.0
  3
*Model_Space
  1

  0
ENDBLK
  5
21
330
1F
100
AcDbEntity
  8
0
100
AcDbBlockEnd
  0
BLOCK
  5
1C
330
1B
100
AcDbEntity
 67
     1
  8
0
100
AcDbBlockBegin
  2
*Paper_Space
 70
     0
 10
0.0
 20
0.0
 30
0.0
  3
*Paper_Space
  1

  0
ENDBLK
  5
1D
330
1B
100
AcDbEntity
 67
     1
  8
0
100
AcDbBlockEnd
  0
BLOCK
  5
7F
330
7E
100
AcDbEntity
  8
0
100
AcDbBlockBegin
  2
Block8
 70
     0
 10
0.0
 20
0.0
 30
0.0
  3
Block8
  1

  0
INSERT
  5
16D
330
7E
100
AcDbEntity
  8
0
  6
Continuous
 62
     7
100
AcDbBlockReference
  2
Block7
 10
0.0
 20
0.0
 30
0.0
 41
0.3
 42
0.3
 43
0.3
  0
ENDBLK
  5
80
330
7E
100
AcDbEntity
  8
0
100
AcDbBlockEnd
  0
BLOCK
  5
82
330
81
100
AcDbEntity
  8
0
100
AcDbBlockBegin
  2
Block7
 70
     0
 10
0.0
 20
0.0
 30
0.0
  3
Block7
  1

  0
LINE
  5
84
330
81
100
AcDbEntity
  8
LAYER_2
100
AcDbLine
 10
26.3974452438
 20
9.8990515764
 30
0.0
 11
28.2847813791
 21
8.011715441
 31
0.0
  0
LINE
  5
85
330
81
100
AcDbEntity
  8
LAYER_2
100
AcDbLine
 10
28.9466564029
 20
6.2622352346
 30
0.0
 11
29.4904589942
 21
6.8060378259
 31
0.0
  0
LINE
  5
86
330
81
100
AcDbEntity
  8
LAYER_2
100
AcDbLine
 10
29.4904589942
 20
6.8060378259
 30
0.0
 11
30.1859402963
 21
7.5015191281
 31
0.0
  0
LINE
  5
87
330
81
100
AcDbEntity
  8
LAYER_2
100
AcDbLine
 10
30.1859455343
 20
10.0068787033
 30
0.0
 11
28.3456037146
 21
11.8472100471
 31
0.0
  0
LINE
  5
88
330
81
100
AcDbEntity
  8
LAYER_2
100
AcDbLine
 10
37.6998309892
 20
2.4861312946
 30
0.0
 11
35.8125000918
 21
4.3734726678
 31
0.0
  0
LINE
  5
89
330
81
100
AcDbEntity
  8
LAYER_2
100
AcDbLine
 10
35.1506250679
 20
6.1229528741
 30
0.0
 11
34.6068224766
 21
5.5791502828
 31
0.0
  0
LINE
  5
8A
330
81
100
AcDbEntity
  8
LAYER_2
100
AcDbLine
 10
34.6068224766
 20
5.5791502828
 30
0.0
 11
33.9113411745
 21
4.8836689807
 31
0.0
  0
LINE
  5
8B
330
81
100
AcDbEntity
  8
LAYER_2
100
AcDbLine
 10
33.9113359368
 20
2.3783094055
 30
0.0
 11
35.7516725185
 21
0.5379728237
 31
0.0
  0
LINE
  5
8C
330
81
100
AcDbEntity
  8
LAYER_2
100
AcDbLine
 10
26.3921191355
 20
2.4804044909
 30
0.0
 11
35.7611300872
 21
11.8442028679
 31
0.0
  0
LINE
  5
8D
330
81
100
AcDbEntity
  8
LAYER_2
100
AcDbLine
 10
37.7051604112
 20
9.8990903475
 30
0.0
 11
28.3361495167
 21
0.5352920441
 31
0.0
  0
LINE
  5
8E
330
81
100
AcDbEntity
  8
LAYER_2
100
AcDbLine
 10
2.0569752599
 20
9.5907905703
 30
0.0
 11
1.1266716352
 21
9.5907905703
 31
0.0
  0
LINE
  5
8F
330
81
100
AcDbEntity
  8
LAYER_2
100
AcDbLine
 10
1.1266716351
 20
11.8441338406
 30
0.0
 11
2.0569752599
 21
11.8441338406
 31
0.0
  0
LINE
  5
90
330
81
100
AcDbEntity
  8
LAYER_2
100
AcDbLine
 10
2.0569752599
 20
11.8441338406
 30
0.0
 11
2.0569752599
 21
12.6917615317
 31
0.0
  0
LINE
  5
91
330
81
100
AcDbEntity
  8
LAYER_2
100
AcDbLine
 10
4.7117781058
 20
12.4687472011
 30
0.0
 11
4.7117781058
 21
11.8217795929
 31
0.0
  0
LINE
  5
92
330
81
100
AcDbEntity
  8
LAYER_2
100
AcDbLine
 10
4.7117781058
 20
11.8217795929
 30
0.0
 11
6.719614459
 21
11.8217795929
 31
0.0
  0
LINE
  5
93
330
81
100
AcDbEntity
  8
LAYER_2
100
AcDbLine
 10
6.7196117596
 20
9.5907905703
 30
0.0
 11
4.7563512963
 21
9.5907905703
 31
0.0
  0
LINE
  5
94
330
81
100
AcDbEntity
  8
LAYER_2
100
AcDbLine
 10
4.7563512963
 20
9.5907905703
 30
0.0
 11
4.7563512963
 21
1.4813375949
 31
0.0
  0
LINE
  5
95
330
81
100
AcDbEntity
  8
LAYER_2
100
AcDbLine
 10
2.0569752599
 20
1.4813375949
 30
0.0
 11
2.0569752599
 21
9.5907905703
 31
0.0
  0
LINE
  5
96
330
81
100
AcDbEntity
  8
LAYER_2
100
AcDbLine
 10
12.0341063825
 20
15.0677263915
 30
0.0
 11
12.0341063825
 21
1.4814039198
 31
0.0
  0
LINE
  5
97
330
81
100
AcDbEntity
  8
LAYER_2
100
AcDbLine
 10
9.3345931896
 20
1.4814039198
 30
0.0
 11
9.3345931896
 21
15.0677263915
 31
0.0
  0
LINE
  5
98
330
81
100
AcDbEntity
  8
LAYER_2
100
AcDbLine
 10
14.1023897423
 20
6.2444419729
 30
0.0
 11
14.1023898974
 21
6.4057740259
 31
0.0
  0
LINE
  5
99
330
81
100
AcDbEntity
  8
LAYER_2
100
AcDbLine
 10
24.7432814653
 20
5.3297519064
 30
0.0
 11
16.9405247216
 21
5.329734882
 31
0.0
  0
LINE
  5
9A
330
81
100
AcDbEntity
  8
LAYER_2
100
AcDbLine
 10
16.9154076239
 20
7.1145633438
 30
0.0
 11
22.6937988505
 21
7.1145633438
 31
0.0
  0
LINE
  5
9B
330
81
100
AcDbEntity
  8
LAYER_2
100
AcDbLine
 10
40.1974192029
 20
1.3607946107
 30
0.0
 11
39.8336171196
 21
1.3607946107
 31
0.0
  0
LINE
  5
9C
330
81
100
AcDbEntity
  8
LAYER_2
100
AcDbLine
 10
39.8336171196
 20
1.3607946107
 30
0.0
 11
39.8336171196
 21
0.3537932001
 31
0.0
  0
LINE
  5
9D
330
81
100
AcDbEntity
  8
LAYER_2
100
AcDbLine
 10
39.8336171196
 20
0.3537932001
 30
0.0
 11
39.641725301
 21
0.3537932001
 31
0.0
  0
LINE
  5
9E
330
81
100
AcDbEntity
  8
LAYER_2
100
AcDbLine
 10
39.641725301
 20
0.3537932001
 30
0.0
 11
39.641725301
 21
1.3607946107
 31
0.0
  0
LINE
  5
9F
330
81
100
AcDbEntity
  8
LAYER_2
100
AcDbLine
 10
39.641725301
 20
1.3607946107
 30
0.0
 11
39.2779232176
 21
1.3607946107
 31
0.0
  0
LINE
  5
A0
330
81
100
AcDbEntity
  8
LAYER_2
100
AcDbLine
 10
39.2779232176
 20
1.3607946107
 30
0.0
 11
39.2779232176
 21
1.5161684171
 31
0.0
  0
LINE
  5
A1
330
81
100
AcDbEntity
  8
LAYER_2
100
AcDbLine
 10
39.2779232176
 20
1.5161684171
 30
0.0
 11
40.1974192029
 21
1.5161684171
 31
0.0
  0
LINE
  5
A2
330
81
100
AcDbEntity
  8
LAYER_2
100
AcDbLine
 10
40.1974192029
 20
1.5161684171
 30
0.0
 11
40.1974192029
 21
1.3607946107
 31
0.0
  0
LINE
  5
A3
330
81
100
AcDbEntity
  8
LAYER_2
100
AcDbLine
 10
41.7122276881
 20
0.3537932001
 30
0.0
 11
41.5203358696
 21
0.3537932001
 31
0.0
  0
LINE
  5
A4
330
81
100
AcDbEntity
  8
LAYER_2
100
AcDbLine
 10
41.5203358696
 20
0.3537932001
 30
0.0
 11
41.5203358696
 21
1.3242765985
 31
0.0
  0
LINE
  5
A5
330
81
100
AcDbEntity
  8
LAYER_2
100
AcDbLine
 10
41.5203358696
 20
1.3242765985
 30
0.0
 11
41.5148237168
 21
1.3242765985
 31
0.0
  0
LINE
  5
A6
330
81
100
AcDbEntity
  8
LAYER_2
100
AcDbLine
 10
41.5148237168
 20
1.3242765985
 30
0.0
 11
41.133796156
 21
0.3537932001
 31
0.0
  0
LINE
  5
A7
330
81
100
AcDbEntity
  8
LAYER_2
100
AcDbLine
 10
41.133796156
 20
0.3537932001
 30
0.0
 11
41.0125287949
 21
0.3537932001
 31
0.0
  0
LINE
  5
A8
330
81
100
AcDbEntity
  8
LAYER_2
100
AcDbLine
 10
41.0125287949
 20
0.3537932001
 30
0.0
 11
40.6318457437
 21
1.3242765985
 31
0.0
  0
LINE
  5
A9
330
81
100
AcDbEntity
  8
LAYER_2
100
AcDbLine
 10
40.6318457437
 20
1.3242765985
 30
0.0
 11
40.6263335909
 21
1.3242765985
 31
0.0
  0
LINE
  5
AA
330
81
100
AcDbEntity
  8
LAYER_2
100
AcDbLine
 10
40.6263335909
 20
1.3242765985
 30
0.0
 11
40.6263335909
 21
0.3537932001
 31
0.0
  0
LINE
  5
AB
330
81
100
AcDbEntity
  8
LAYER_2
100
AcDbLine
 10
40.6263335909
 20
0.3537932001
 30
0.0
 11
40.4344417723
 21
0.3537932001
 31
0.0
  0
LINE
  5
AC
330
81
100
AcDbEntity
  8
LAYER_2
100
AcDbLine
 10
40.4344417723
 20
0.3537932001
 30
0.0
 11
40.4344417723
 21
1.5161684171
 31
0.0
  0
LINE
  5
AD
330
81
100
AcDbEntity
  8
LAYER_2
100
AcDbLine
 10
40.4344417723
 20
1.5161684171
 30
0.0
 11
40.7307199841
 21
1.5161684171
 31
0.0
  0
LINE
  5
AE
330
81
100
AcDbEntity
  8
LAYER_2
100
AcDbLine
 10
40.7307199841
 20
1.5161684171
 30
0.0
 11
41.0776410996
 21
0.633190444
 31
0.0
  0
LINE
  5
AF
330
81
100
AcDbEntity
  8
LAYER_2
100
AcDbLine
 10
41.0776410996
 20
0.633190444
 30
0.0
 11
41.4187055527
 21
1.5161684171
 31
0.0
  0
LINE
  5
B0
330
81
100
AcDbEntity
  8
LAYER_2
100
AcDbLine
 10
41.4187055527
 20
1.5161684171
 30
0.0
 11
41.7122276881
 21
1.5161684171
 31
0.0
  0
LINE
  5
B1
330
81
100
AcDbEntity
  8
LAYER_2
100
AcDbLine
 10
41.7122276881
 20
1.5161684171
 30
0.0
 11
41.7122276881
 21
0.3537932001
 31
0.0
  0
SPLINE
  5
B2
330
81
100
AcDbEntity
  8
LAYER_2
100
AcDbSpline
210
0.0
220
0.0
230
1.0
 70
     8
 71
     3
 72
     8
 73
     4
 74
     0
 42
0.000000001
 43
0.00000001
 40
0.0
 40
0.0
 40
0.0
 40
0.0
 40
1.0
 40
1.0
 40
1.0
 40
1.0
 10
26.39744000594334
 20
11.8472152850476
 30
0.0
 10
25.85947241994568
 20
11.30924769907527
 30
0.0
 10
25.85947241992644
 20
10.43702440023674
 30
0.0
 10
26.39744524378801
 20
9.899051576352075
 30
0.0
  0
SPLINE
  5
B3
330
81
100
AcDbEntity
  8
LAYER_2
100
AcDbSpline
210
0.0
220
0.0
230
1.0
 70
     8
 71
     3
 72
    14
 73
    10
 74
     0
 42
0.000000001
 43
0.00000001
 40
0.0
 40
0.0
 40
0.0
 40
0.0
 40
1.0
 40
2.0
 40
3.0
 40
4.0
 40
5.0
 40
6.0
 40
7.0
 40
7.0
 40
7.0
 40
7.0
 10
28.28478137913394
 20
8.011715441006137
 30
0.0
 10
28.40633176810557
 20
7.876085613713044
 30
0.0
 10
28.91764375080724
 20
7.24374703063841
 30
0.0
 10
28.73023741763608
 20
6.388279730010216
 30
0.0
 10
28.720589231111
 20
6.344260533727317
 30
0.0
 10
28.72937840428481
 20
6.296375777371798
 30
0.0
 10
28.76351894704712
 20
6.262235234607886
 30
0.0
 10
28.81409073906267
 20
6.21166344258977
 30
0.0
 10
28.89608461086417
 20
6.211663442588805
 30
0.0
 10
28.94665640288101
 20
6.26223523460405
 30
0.0
  0
SPLINE
  5
B4
330
81
100
AcDbEntity
  8
LAYER_2
100
AcDbSpline
210
0.0
220
0.0
230
1.0
 70
     8
 71
     3
 72
     8
 73
     4
 74
     0
 42
0.000000001
 43
0.00000001
 40
0.0
 40
0.0
 40
0.0
 40
0.0
 40
1.0
 40
1.0
 40
1.0
 40
1.0
 10
30.1859402963309
 20
7.501519128053934
 30
0.0
 10
30.87778126752905
 20
8.193360099221932
 30
0.0
 10
30.87778126755536
 20
9.315042969950074
 30
0.0
 10
30.1859455342731
 20
10.00687870326378
 30
0.0
  0
SPLINE
  5
B5
330
81
100
AcDbEntity
  8
LAYER_2
100
AcDbSpline
210
0.0
220
0.0
230
1.0
 70
     8
 71
     3
 72
     8
 73
     4
 74
     0
 42
0.000000001
 43
0.00000001
 40
0.0
 40
0.0
 40
0.0
 40
0.0
 40
1.0
 40
1.0
 40
1.0
 40
1.0
 10
28.34560371463886
 20
11.84721004711629
 30
0.0
 10
27.80763089077792
 20
12.38518287100131
 30
0.0
 10
26.93540759194163
 20
12.38518287102023
 30
0.0
 10
26.39744000594334
 20
11.8472152850476
 30
0.0
  0
SPLINE
  5
B6
330
81
100
AcDbEntity
  8
LAYER_2
100
AcDbSpline
210
0.0
220
0.0
230
1.0
 70
     8
 71
     3
 72
     8
 73
     4
 74
     0
 42
0.000000001
 43
0.00000001
 40
0.0
 40
0.0
 40
0.0
 40
0.0
 40
1.0
 40
1.0
 40
1.0
 40
1.0
 10
37.6998362272242
 20
0.5379675859276956
 30
0.0
 10
38.23780381317631
 20
1.075935171949094
 30
0.0
 10
38.23780381311598
 20
1.948158470786006
 30
0.0
 10
37.69983098920628
 20
2.486131294623217
 30
0.0
  0
SPLINE
  5
B7
330
81
100
AcDbEntity
  8
LAYER_2
100
AcDbSpline
210
0.0
220
0.0
230
1.0
 70
     8
 71
     3
 72
    14
 73
    10
 74
     0
 42
0.000000001
 43
0.00000001
 40
0.0
 40
0.0
 40
0.0
 40
0.0
 40
1.0
 40
2.0
 40
3.0
 40
4.0
 40
5.0
 40
6.0
 40
7.0
 40
7.0
 40
7.0
 40
7.0
 10
35.8125000918297
 20
4.37347266777003
 30
0.0
 10
35.69094970284522
 20
4.50910249505157
 30
0.0
 10
35.17963772008452
 20
5.141441078078735
 30
0.0
 10
35.36704405318057
 20
5.99690837872488
 30
0.0
 10
35.37669223970245
 20
6.040927575009049
 30
0.0
 10
35.36790306652288
 20
6.088812331364893
 30
0.0
 10
35.33376252375993
 20
6.122952874123684
 30
0.0
 10
35.28319073173922
 20
6.173524666138595
 30
0.0
 10
35.20119685993713
 20
6.173524666132822
 30
0.0
 10
35.15062506792412
 20
6.12295287411372
 30
0.0
  0
SPLINE
  5
B8
330
81
100
AcDbEntity
  8
LAYER_2
100
AcDbSpline
210
0.0
220
0.0
230
1.0
 70
     8
 71
     3
 72
     8
 73
     4
 74
     0
 42
0.000000001
 43
0.00000001
 40
0.0
 40
0.0
 40
0.0
 40
0.0
 40
1.0
 40
1.0
 40
1.0
 40
1.0
 10
33.91134117447439
 20
4.883668980663995
 30
0.0
 10
33.21950020333718
 20
4.191828009433109
 30
0.0
 10
33.21950020341163
 20
3.070145138705932
 30
0.0
 10
33.91133593675677
 20
2.378309405454464
 30
0.0
  0
SPLINE
  5
B9
330
81
100
AcDbEntity
  8
LAYER_2
100
AcDbSpline
210
0.0
220
0.0
230
1.0
 70
     8
 71
     3
 72
     8
 73
     4
 74
     0
 42
0.000000001
 43
0.00000001
 40
0.0
 40
0.0
 40
0.0
 40
0.0
 40
1.0
 40
1.0
 40
1.0
 40
1.0
 10
35.75167251852805
 20
0.5379728236831818
 30
0.0
 10
36.28964534243712
 20
-0.0000000001533704
 30
0.0
 10
37.16186864127339
 20
-0.0000000000937028
 30
0.0
 10
37.6998362272242
 20
0.5379675859276956
 30
0.0
  0
SPLINE
  5
BA
330
81
100
AcDbEntity
  8
LAYER_2
100
AcDbSpline
210
0.0
220
0.0
230
1.0
 70
     8
 71
     3
 72
    11
 73
     7
 74
     0
 42
0.000000001
 43
0.00000001
 40
0.0
 40
0.0
 40
0.0
 40
0.0
 40
1.0
 40
2.0
 40
3.0
 40
4.0
 40
4.0
 40
4.0
 40
4.0
 10
35.76113008724488
 20
11.84420286787247
 30
0.0
 10
36.03266410810216
 20
12.11558581129366
 30
0.0
 10
36.39185086910618
 20
12.24914403068919
 30
0.0
 10
36.74966121391607
 20
12.24490230702649
 30
0.0
 10
37.09671616781422
 20
12.24078808497606
 30
0.0
 10
37.44247620902609
 20
12.10703364600862
 30
0.0
 10
37.70570163505532
 20
11.84366160292133
 30
0.0
  0
SPLINE
  5
BB
330
81
100
AcDbEntity
  8
LAYER_2
100
AcDbSpline
210
0.0
220
0.0
230
1.0
 70
     8
 71
     3
 72
    11
 73
     7
 74
     0
 42
0.000000001
 43
0.00000001
 40
0.0
 40
0.0
 40
0.0
 40
0.0
 40
1.0
 40
2.0
 40
3.0
 40
4.0
 40
4.0
 40
4.0
 40
4.0
 10
37.70570163505532
 20
11.84366160292133
 30
0.0
 10
37.9725815349662
 20
11.5766330619023
 30
0.0
 10
38.10617254806678
 20
11.22483641874975
 30
0.0
 10
38.10649824034967
 20
10.87294228817619
 30
0.0
 10
38.10682496796635
 20
10.51992953094929
 30
0.0
 10
37.9730377611038
 20
10.16681866551576
 30
0.0
 10
37.70516041120889
 20
9.899090347478191
 30
0.0
  0
SPLINE
  5
BC
330
81
100
AcDbEntity
  8
LAYER_2
100
AcDbSpline
210
0.0
220
0.0
230
1.0
 70
     8
 71
     3
 72
    11
 73
     7
 74
     0
 42
0.000000001
 43
0.00000001
 40
0.0
 40
0.0
 40
0.0
 40
0.0
 40
1.0
 40
2.0
 40
3.0
 40
4.0
 40
4.0
 40
4.0
 40
4.0
 10
28.33614951673787
 20
0.5352920441001052
 30
0.0
 10
28.06869682590135
 20
0.2679881546175447
 30
0.0
 10
27.71620649252843
 20
0.1343969421795446
 30
0.0
 10
27.36375327009398
 20
0.1344947391223317
 30
0.0
 10
27.01129937540977
 20
0.1345925362518582
 30
0.0
 10
26.65888259180522
 20
0.2683798527454498
 30
0.0
 10
26.39157815956014
 20
0.5358330208058635
 30
0.0
  0
SPLINE
  5
BD
330
81
100
AcDbEntity
  8
LAYER_2
100
AcDbSpline
210
0.0
220
0.0
230
1.0
 70
     8
 71
     3
 72
    11
 73
     7
 74
     0
 42
0.000000001
 43
0.00000001
 40
0.0
 40
0.0
 40
0.0
 40
0.0
 40
1.0
 40
2.0
 40
3.0
 40
4.0
 40
4.0
 40
4.0
 40
4.0
 10
26.39157815956014
 20
0.5358330208058635
 30
0.0
 10
26.13070202626591
 20
0.7968543130278671
 30
0.0
 10
25.99718517224161
 20
1.138872639013751
 30
0.0
 10
25.99100559653476
 20
1.482804196711693
 30
0.0
 10
25.98452148638938
 20
1.843684976889706
 30
0.0
 10
26.11823447154894
 20
2.20667220642818
 30
0.0
 10
26.39211913545476
 20
2.48040449092906
 30
0.0
  0
SPLINE
  5
BE
330
81
100
AcDbEntity
  8
LAYER_2
100
AcDbSpline
210
0.0
220
0.0
230
1.0
 70
     8
 71
     3
 72
     8
 73
     4
 74
     0
 42
0.000000001
 43
0.00000001
 40
0.0
 40
0.0
 40
0.0
 40
0.0
 40
1.0
 40
1.0
 40
1.0
 40
1.0
 10
1.12667163515482
 20
9.59079057031606
 30
0.0
 10
0.5044280729915238
 20
9.59079057031606
 30
0.0
 10
0.0000000000000069
 20
10.09521864330916
 30
0.0
 10
0.0000000000000069
 20
10.71746220547248
 30
0.0
  0
SPLINE
  5
BF
330
81
100
AcDbEntity
  8
LAYER_2
100
AcDbSpline
210
0.0
220
0.0
230
1.0
 70
     8
 71
     3
 72
     8
 73
     4
 74
     0
 42
0.000000001
 43
0.00000001
 40
0.0
 40
0.0
 40
0.0
 40
0.0
 40
1.0
 40
1.0
 40
1.0
 40
1.0
 10
0.0000000000000069
 20
10.71746220547248
 30
0.0
 10
0.0000000000000069
 20
11.33970576763163
 30
0.0
 10
0.5044280729838078
 20
11.84413384062186
 30
0.0
 10
1.126671635142629
 20
11.84413384062475
 30
0.0
  0
SPLINE
  5
C0
330
81
100
AcDbEntity
  8
LAYER_2
100
AcDbSpline
210
0.0
220
0.0
230
1.0
 70
     8
 71
     3
 72
    17
 73
    13
 74
     0
 42
0.000000001
 43
0.00000001
 40
0.0
 40
0.0
 40
0.0
 40
0.0
 40
1.0
 40
2.0
 40
3.0
 40
4.0
 40
5.0
 40
6.0
 40
7.0
 40
8.0
 40
9.0
 40
10.0
 40
10.0
 40
10.0
 40
10.0
 10
2.056975259862391
 20
12.69176153167009
 30
0.0
 10
2.056975259862391
 20
14.00805327130896
 30
0.0
 10
2.391500168998306
 20
14.98968294522859
 30
0.0
 10
3.016248410538817
 20
15.61429403018289
 30
0.0
 10
3.640859495494086
 20
16.23904227172309
 30
0.0
 10
4.510980866367246
 20
16.55134781420233
 30
0.0
 10
5.671051256474505
 20
16.55134781420233
 30
0.0
 10
6.157255200492838
 20
16.55134781420233
 30
0.0
 10
6.565376105807541
 20
16.51529812367423
 30
0.0
 10
6.929700984952512
 20
16.45567292634885
 30
0.0
 10
7.467148897864872
 20
16.36771451424403
 30
0.0
 10
7.85733387797994
 20
15.89649990393244
 30
0.0
 10
7.85732957359947
 20
15.35190194090472
 30
0.0
  0
SPLINE
  5
C1
330
81
100
AcDbEntity
  8
LAYER_2
100
AcDbSpline
210
0.0
220
0.0
230
1.0
 70
     8
 71
     3
 72
    14
 73
    10
 74
     0
 42
0.000000001
 43
0.00000001
 40
0.0
 40
0.0
 40
0.0
 40
0.0
 40
1.0
 40
2.0
 40
3.0
 40
4.0
 40
5.0
 40
6.0
 40
7.0
 40
7.0
 40
7.0
 40
7.0
 10
7.85732957359947
 20
15.35190194090472
 30
0.0
 10
7.857324391168076
 20
14.69621167633191
 30
0.0
 10
7.297460664258883
 20
14.18035171451338
 30
0.0
 10
6.644266535681169
 20
14.23751073365828
 30
0.0
 10
6.524838948344443
 20
14.24796147632661
 30
0.0
 10
6.401877923856644
 20
14.25342867618114
 30
0.0
 10
6.27344297478944
 20
14.25342867618114
 30
0.0
 10
5.247100254385032
 20
14.25342867618114
 30
0.0
 10
4.711778105816994
 20
13.69575000437086
 30
0.0
 10
4.711778105816994
 20
12.46874720111925
 30
0.0
  0
SPLINE
  5
C2
330
81
100
AcDbEntity
  8
LAYER_2
100
AcDbSpline
210
0.0
220
0.0
230
1.0
 70
     8
 71
     3
 72
     8
 73
     4
 74
     0
 42
0.000000001
 43
0.00000001
 40
0.0
 40
0.0
 40
0.0
 40
0.0
 40
1.0
 40
1.0
 40
1.0
 40
1.0
 10
6.71961445904852
 20
11.82177959292111
 30
0.0
 10
7.335684443961377
 20
11.82177822530126
 30
0.0
 10
7.835106735082934
 20
11.32235371682819
 30
0.0
 10
7.835105367463083
 20
10.70628373191631
 30
0.0
  0
SPLINE
  5
C3
330
81
100
AcDbEntity
  8
LAYER_2
100
AcDbSpline
210
0.0
220
0.0
230
1.0
 70
     8
 71
     3
 72
     8
 73
     4
 74
     0
 42
0.000000001
 43
0.00000001
 40
0.0
 40
0.0
 40
0.0
 40
0.0
 40
1.0
 40
1.0
 40
1.0
 40
1.0
 10
7.835105367463076
 20
10.70628373191631
 30
0.0
 10
7.835105244241109
 20
10.09021374700229
 30
0.0
 10
7.335681744552256
 20
9.590790447094093
 30
0.0
 10
6.719611759637894
 20
9.59079057031606
 30
0.0
  0
SPLINE
  5
C4
330
81
100
AcDbEntity
  8
LAYER_2
100
AcDbSpline
210
0.0
220
0.0
230
1.0
 70
     8
 71
     3
 72
     8
 73
     4
 74
     0
 42
0.000000001
 43
0.00000001
 40
0.0
 40
0.0
 40
0.0
 40
0.0
 40
1.0
 40
1.0
 40
1.0
 40
1.0
 10
4.756351296307859
 20
1.481337594908129
 30
0.0
 10
4.756351296307859
 20
0.7359254854111957
 30
0.0
 10
4.152075387575962
 20
0.1316495766780293
 30
0.0
 10
3.406663278076136
 20
0.1316495766780293
 30
0.0
  0
SPLINE
  5
C5
330
81
100
AcDbEntity
  8
LAYER_2
100
AcDbSpline
210
0.0
220
0.0
230
1.0
 70
     8
 71
     3
 72
     8
 73
     4
 74
     0
 42
0.000000001
 43
0.00000001
 40
0.0
 40
0.0
 40
0.0
 40
0.0
 40
1.0
 40
1.0
 40
1.0
 40
1.0
 10
3.406663278076136
 20
0.1316495766780293
 30
0.0
 10
2.66125116858916
 20
0.1316495766780293
 30
0.0
 10
2.056975259862391
 20
0.7359254854041319
 30
0.0
 10
2.056975259862391
 20
1.481337594892731
 30
0.0
  0
SPLINE
  5
C6
330
81
100
AcDbEntity
  8
LAYER_2
100
AcDbSpline
210
0.0
220
0.0
230
1.0
 70
     8
 71
     3
 72
     8
 73
     4
 74
     0
 42
0.000000001
 43
0.00000001
 40
0.0
 40
0.0
 40
0.0
 40
0.0
 40
1.0
 40
1.0
 40
1.0
 40
1.0
 10
10.6843497860629
 20
16.4174829879165
 30
0.0
 10
11.42979977026517
 20
16.41748298791649
 30
0.0
 10
12.03410638251409
 20
15.81317637566564
 30
0.0
 10
12.03410638251409
 20
15.06772639146405
 30
0.0
  0
SPLINE
  5
C7
330
81
100
AcDbEntity
  8
LAYER_2
100
AcDbSpline
210
0.0
220
0.0
230
1.0
 70
     8
 71
     3
 72
     8
 73
     4
 74
     0
 42
0.000000001
 43
0.00000001
 40
0.0
 40
0.0
 40
0.0
 40
0.0
 40
1.0
 40
1.0
 40
1.0
 40
1.0
 10
12.03410638251409
 20
1.481403919785046
 30
0.0
 10
12.03410638251409
 20
0.7359539355802497
 30
0.0
 10
11.42979977026516
 20
0.131647323331964
 30
0.0
 10
10.6843497860629
 20
0.131647323331964
 30
0.0
  0
SPLINE
  5
C8
330
81
100
AcDbEntity
  8
LAYER_2
100
AcDbSpline
210
0.0
220
0.0
230
1.0
 70
     8
 71
     3
 72
     8
 73
     4
 74
     0
 42
0.000000001
 43
0.00000001
 40
0.0
 40
0.0
 40
0.0
 40
0.0
 40
1.0
 40
1.0
 40
1.0
 40
1.0
 10
10.6843497860629
 20
0.131647323331964
 30
0.0
 10
9.938899801859371
 20
0.131647323331964
 30
0.0
 10
9.334593189611391
 20
0.7359539355802497
 30
0.0
 10
9.334593189611391
 20
1.481403919785046
 30
0.0
  0
SPLINE
  5
C9
330
81
100
AcDbEntity
  8
LAYER_2
100
AcDbSpline
210
0.0
220
0.0
230
1.0
 70
     8
 71
     3
 72
     8
 73
     4
 74
     0
 42
0.000000001
 43
0.00000001
 40
0.0
 40
0.0
 40
0.0
 40
0.0
 40
1.0
 40
1.0
 40
1.0
 40
1.0
 10
9.334593189611399
 20
15.06772639146405
 30
0.0
 10
9.334593189611399
 20
15.81317637566564
 30
0.0
 10
9.938899801859378
 20
16.41748298791649
 30
0.0
 10
10.6843497860629
 20
16.41748298791649
 30
0.0
  0
SPLINE
  5
CA
330
81
100
AcDbEntity
  8
LAYER_2
100
AcDbSpline
210
0.0
220
0.0
230
1.0
 70
     8
 71
     3
 72
    11
 73
     7
 74
     0
 42
0.000000001
 43
0.00000001
 40
0.0
 40
0.0
 40
0.0
 40
0.0
 40
1.0
 40
2.0
 40
3.0
 40
4.0
 40
4.0
 40
4.0
 40
4.0
 10
14.10238989738305
 20
6.405774025867506
 30
0.0
 10
14.10239343675691
 20
10.08785665312796
 30
0.0
 10
17.41001369934165
 20
12.99132589468977
 30
0.0
 10
21.03039801688693
 20
12.32009577971439
 30
0.0
 10
24.00125777871986
 20
11.76928946618388
 30
0.0
 10
25.50243356053517
 20
9.105354380041799
 30
0.0
 10
25.50243356053517
 20
6.088220623403397
 30
0.0
  0
SPLINE
  5
CB
330
81
100
AcDbEntity
  8
LAYER_2
100
AcDbSpline
210
0.0
220
0.0
230
1.0
 70
     8
 71
     3
 72
     8
 73
     4
 74
     0
 42
0.000000001
 43
0.00000001
 40
0.0
 40
0.0
 40
0.0
 40
0.0
 40
1.0
 40
1.0
 40
1.0
 40
1.0
 10
25.50243356053517
 20
6.088220623403397
 30
0.0
 10
25.50205542627709
 20
5.669219799508199
 30
0.0
 10
25.16228245882159
 20
5.329752704444579
 30
0.0
 10
24.74328146531376
 20
5.329751906445614
 30
0.0
  0
SPLINE
  5
CC
330
81
100
AcDbEntity
  8
LAYER_2
100
AcDbSpline
210
0.0
220
0.0
230
1.0
 70
     8
 71
     3
 72
    17
 73
    13
 74
     0
 42
0.000000001
 43
0.00000001
 40
0.0
 40
0.0
 40
0.0
 40
0.0
 40
1.0
 40
2.0
 40
3.0
 40
4.0
 40
5.0
 40
6.0
 40
7.0
 40
8.0
 40
9.0
 40
10.0
 40
10.0
 40
10.0
 40
10.0
 10
16.9405247216392
 20
5.329734881962846
 30
0.0
 10
16.86832201582107
 20
5.32973474444931
 30
0.0
 10
16.8118600712948
 20
5.262718682183552
 30
0.0
 10
16.82478533155169
 20
5.191682294505
 30
0.0
 10
17.15808597679844
 20
3.359883678401739
 30
0.0
 10
18.49492437653273
 20
2.340278395061034
 30
0.0
 10
20.19282945255414
 20
2.340278395061034
 30
0.0
 10
21.19207899224634
 20
2.340278395061034
 30
0.0
 10
21.97269718074914
 20
2.623171238837943
 30
0.0
 10
22.70071580925243
 20
3.159571789529518
 30
0.0
 10
23.1243157687853
 20
3.47167815971286
 30
0.0
 10
23.70348119809242
 20
3.461416912598818
 30
0.0
 10
24.09704420912217
 20
3.112195681322739
 30
0.0
  0
SPLINE
  5
CD
330
81
100
AcDbEntity
  8
LAYER_2
100
AcDbSpline
210
0.0
220
0.0
230
1.0
 70
     8
 71
     3
 72
    14
 73
    10
 74
     0
 42
0.000000001
 43
0.00000001
 40
0.0
 40
0.0
 40
0.0
 40
0.0
 40
1.0
 40
2.0
 40
3.0
 40
4.0
 40
5.0
 40
6.0
 40
7.0
 40
7.0
 40
7.0
 40
7.0
 10
24.09704420912217
 20
3.112195681322739
 30
0.0
 10
24.59540956652758
 20
2.669979927150429
 30
0.0
 10
24.59614782453455
 20
1.878281484996226
 30
0.0
 10
24.08016384916407
 20
1.456756468111317
 30
0.0
 10
23.07020359717522
 20
0.6316852787028939
 30
0.0
 10
21.78866290861731
 20
0.131647323331964
 30
0.0
 10
20.14825197875879
 20
0.131647323331964
 30
0.0
 10
16.73483606499551
 20
0.131647323331964
 30
0.0
 10
14.10238974230012
 20
2.608009453079353
 30
0.0
 10
14.10238974230012
 20
6.244441972935
 30
0.0
  0
SPLINE
  5
CE
330
81
100
AcDbEntity
  8
LAYER_2
100
AcDbSpline
210
0.0
220
0.0
230
1.0
 70
     8
 71
     3
 72
    17
 73
    13
 74
     0
 42
0.000000001
 43
0.00000001
 40
0.0
 40
0.0
 40
0.0
 40
0.0
 40
1.0
 40
2.0
 40
3.0
 40
4.0
 40
5.0
 40
6.0
 40
7.0
 40
8.0
 40
9.0
 40
10.0
 40
10.0
 40
10.0
 40
10.0
 10
22.69379885049652
 20
7.114563343806537
 30
0.0
 10
22.76353327291022
 20
7.114563343806537
 30
0.0
 10
22.81901982576562
 20
7.176561694640447
 30
0.0
 10
22.81012548064366
 20
7.2457265722463
 30
0.0
 10
22.59448940561114
 20
8.922572088504895
 30
0.0
 10
21.57552963309855
 20
10.21553655851112
 30
0.0
 10
19.83580927969689
 20
10.21553655851112
 30
0.0
 10
18.22597661651519
 20
10.21553655851112
 30
0.0
 10
17.08282567005861
 20
9.006181366363407
 30
0.0
 10
16.7995092198067
 20
7.249763613170527
 30
0.0
 10
16.78816343430312
 20
7.179425519269173
 30
0.0
 10
16.84416034809792
 20
7.114563343806537
 30
0.0
 10
16.91540762385054
 20
7.114563343806537
 30
0.0
  0
HATCH
  5
CF
330
81
100
AcDbEntity
  8
LAYER_2
 62
   250
100
AcDbHatch
 10
0.0
 20
0.0
 30
0.0
210
0.0
220
0.0
230
1.0
  2
SOLID
 70
     1
 71
     0
 91
        1
 92
        0
 93
        8
 72
     4
 94
        3
 73
     1
 74
     0
 95
        8
 96
        4
 40
0.0
 40
0.0
 40
0.0
 40
0.0
 40
1.0
 40
1.0
 40
1.0
 40
1.0
 10
26.39744000594334
 20
11.8472152850476
 42
1.0
 10
25.85947241994568
 20
11.30924769907527
 42
1.0
 10
25.85947241992644
 20
10.43702440023674
 42
1.0
 10
26.39744524378801
 20
9.899051576352075
 42
1.0
 72
     1
 10
26.39744524378801
 20
9.899051576352075
 11
28.28478137913394
 21
8.011715441006137
 72
     4
 94
        3
 73
     1
 74
     0
 95
       14
 96
       10
 40
0.0
 40
0.0
 40
0.0
 40
0.0
 40
1.0
 40
2.0
 40
3.0
 40
4.0
 40
5.0
 40
6.0
 40
7.0
 40
7.0
 40
7.0
 40
7.0
 10
28.28478137913394
 20
8.011715441006137
 42
1.0
 10
28.40633176810557
 20
7.876085613713044
 42
1.0
 10
28.91764375080724
 20
7.24374703063841
 42
1.0
 10
28.73023741763608
 20
6.388279730010216
 42
1.0
 10
28.720589231111
 20
6.344260533727317
 42
1.0
 10
28.72937840428481
 20
6.296375777371798
 42
1.0
 10
28.76351894704712
 20
6.262235234607886
 42
1.0
 10
28.81409073906267
 20
6.21166344258977
 42
1.0
 10
28.89608461086417
 20
6.211663442588805
 42
1.0
 10
28.94665640288101
 20
6.26223523460405
 42
1.0
 72
     1
 10
28.94665640288101
 20
6.26223523460405
 11
29.49045899418156
 21
6.806037825904589
 72
     1
 10
29.49045899418156
 20
6.806037825904589
 11
30.1859402963309
 21
7.501519128053934
 72
     4
 94
        3
 73
     1
 74
     0
 95
        8
 96
        4
 40
0.0
 40
0.0
 40
0.0
 40
0.0
 40
1.0
 40
1.0
 40
1.0
 40
1.0
 10
30.1859402963309
 20
7.501519128053934
 42
1.0
 10
30.87778126752905
 20
8.193360099221932
 42
1.0
 10
30.87778126755536
 20
9.315042969950074
 42
1.0
 10
30.1859455342731
 20
10.00687870326378
 42
1.0
 72
     1
 10
30.1859455342731
 20
10.00687870326378
 11
28.34560371463886
 21
11.84721004711629
 72
     4
 94
        3
 73
     1
 74
     0
 95
        8
 96
        4
 40
0.0
 40
0.0
 40
0.0
 40
0.0
 40
1.0
 40
1.0
 40
1.0
 40
1.0
 10
28.34560371463886
 20
11.84721004711629
 42
1.0
 10
27.80763089077792
 20
12.38518287100131
 42
1.0
 10
26.93540759194163
 20
12.38518287102023
 42
1.0
 10
26.39744000594334
 20
11.8472152850476
 42
1.0
 97
        0
 75
     0
 76
     1
 98
        1
 10
0.0
 20
0.0
  0
HATCH
  5
D0
330
81
100
AcDbEntity
  8
LAYER_2
 62
   250
100
AcDbHatch
 10
0.0
 20
0.0
 30
0.0
210
0.0
220
0.0
230
1.0
  2
SOLID
 70
     1
 71
     0
 91
        1
 92
        0
 93
        8
 72
     4
 94
        3
 73
     1
 74
     0
 95
        8
 96
        4
 40
0.0
 40
0.0
 40
0.0
 40
0.0
 40
1.0
 40
1.0
 40
1.0
 40
1.0
 10
37.6998362272242
 20
0.5379675859276956
 42
1.0
 10
38.23780381317631
 20
1.075935171949094
 42
1.0
 10
38.23780381311598
 20
1.948158470786006
 42
1.0
 10
37.69983098920628
 20
2.486131294623217
 42
1.0
 72
     1
 10
37.69983098920628
 20
2.486131294623217
 11
35.8125000918297
 21
4.37347266777003
 72
     4
 94
        3
 73
     1
 74
     0
 95
       14
 96
       10
 40
0.0
 40
0.0
 40
0.0
 40
0.0
 40
1.0
 40
2.0
 40
3.0
 40
4.0
 40
5.0
 40
6.0
 40
7.0
 40
7.0
 40
7.0
 40
7.0
 10
35.8125000918297
 20
4.37347266777003
 42
1.0
 10
35.69094970284522
 20
4.50910249505157
 42
1.0
 10
35.17963772008452
 20
5.141441078078735
 42
1.0
 10
35.36704405318057
 20
5.99690837872488
 42
1.0
 10
35.37669223970245
 20
6.040927575009049
 42
1.0
 10
35.36790306652288
 20
6.088812331364893
 42
1.0
 10
35.33376252375993
 20
6.122952874123684
 42
1.0
 10
35.28319073173922
 20
6.173524666138595
 42
1.0
 10
35.20119685993713
 20
6.173524666132822
 42
1.0
 10
35.15062506792412
 20
6.12295287411372
 42
1.0
 72
     1
 10
35.15062506792412
 20
6.12295287411372
 11
34.60682247662228
 21
5.579150282811883
 72
     1
 10
34.60682247662228
 20
5.579150282811883
 11
33.91134117447439
 21
4.883668980663995
 72
     4
 94
        3
 73
     1
 74
     0
 95
        8
 96
        4
 40
0.0
 40
0.0
 40
0.0
 40
0.0
 40
1.0
 40
1.0
 40
1.0
 40
1.0
 10
33.91134117447439
 20
4.883668980663995
 42
1.0
 10
33.21950020333718
 20
4.191828009433109
 42
1.0
 10
33.21950020341163
 20
3.070145138705932
 42
1.0
 10
33.91133593675677
 20
2.378309405454464
 42
1.0
 72
     1
 10
33.91133593675677
 20
2.378309405454464
 11
35.75167251852805
 21
0.5379728236831818
 72
     4
 94
        3
 73
     1
 74
     0
 95
        8
 96
        4
 40
0.0
 40
0.0
 40
0.0
 40
0.0
 40
1.0
 40
1.0
 40
1.0
 40
1.0
 10
35.75167251852805
 20
0.5379728236831818
 42
1.0
 10
36.28964534243712
 20
-0.0000000001533704
 42
1.0
 10
37.16186864127339
 20
-0.0000000000937028
 42
1.0
 10
37.6998362272242
 20
0.5379675859276956
 42
1.0
 97
        0
 75
     0
 76
     1
 98
        1
 10
0.0
 20
0.0
  0
HATCH
  5
D1
330
81
100
AcDbEntity
  8
LAYER_2
 62
   250
100
AcDbHatch
 10
0.0
 20
0.0
 30
0.0
210
0.0
220
0.0
230
1.0
  2
SOLID
 70
     1
 71
     0
 91
        1
 92
        0
 93
        6
 72
     4
 94
        3
 73
     1
 74
     0
 95
       11
 96
        7
 40
0.0
 40
0.0
 40
0.0
 40
0.0
 40
1.0
 40
2.0
 40
3.0
 40
4.0
 40
4.0
 40
4.0
 40
4.0
 10
26.39157815956014
 20
0.5358330208058635
 42
1.0
 10
26.13070202626591
 20
0.7968543130278671
 42
1.0
 10
25.99718517224161
 20
1.138872639013751
 42
1.0
 10
25.99100559653476
 20
1.482804196711693
 42
1.0
 10
25.98452148638938
 20
1.843684976889706
 42
1.0
 10
26.11823447154894
 20
2.20667220642818
 42
1.0
 10
26.39211913545476
 20
2.48040449092906
 42
1.0
 72
     1
 10
26.39211913545476
 20
2.48040449092906
 11
35.76113008724489
 21
11.84420286787247
 72
     4
 94
        3
 73
     1
 74
     0
 95
       11
 96
        7
 40
0.0
 40
0.0
 40
0.0
 40
0.0
 40
1.0
 40
2.0
 40
3.0
 40
4.0
 40
4.0
 40
4.0
 40
4.0
 10
35.76113008724488
 20
11.84420286787247
 42
1.0
 10
36.03266410810216
 20
12.11558581129366
 42
1.0
 10
36.39185086910618
 20
12.24914403068919
 42
1.0
 10
36.74966121391607
 20
12.24490230702649
 42
1.0
 10
37.09671616781422
 20
12.24078808497606
 42
1.0
 10
37.44247620902609
 20
12.10703364600862
 42
1.0
 10
37.70570163505532
 20
11.84366160292133
 42
1.0
 72
     4
 94
        3
 73
     1
 74
     0
 95
       11
 96
        7
 40
0.0
 40
0.0
 40
0.0
 40
0.0
 40
1.0
 40
2.0
 40
3.0
 40
4.0
 40
4.0
 40
4.0
 40
4.0
 10
37.70570163505532
 20
11.84366160292133
 42
1.0
 10
37.9725815349662
 20
11.5766330619023
 42
1.0
 10
38.10617254806678
 20
11.22483641874975
 42
1.0
 10
38.10649824034967
 20
10.87294228817619
 42
1.0
 10
38.10682496796635
 20
10.51992953094929
 42
1.0
 10
37.9730377611038
 20
10.16681866551576
 42
1.0
 10
37.70516041120889
 20
9.899090347478191
 42
1.0
 72
     1
 10
37.70516041120889
 20
9.899090347478191
 11
28.33614951673787
 21
0.535292044100105
 72
     4
 94
        3
 73
     1
 74
     0
 95
       11
 96
        7
 40
0.0
 40
0.0
 40
0.0
 40
0.0
 40
1.0
 40
2.0
 40
3.0
 40
4.0
 40
4.0
 40
4.0
 40
4.0
 10
28.33614951673787
 20
0.5352920441001052
 42
1.0
 10
28.06869682590135
 20
0.2679881546175447
 42
1.0
 10
27.71620649252843
 20
0.1343969421795446
 42
1.0
 10
27.36375327009398
 20
0.1344947391223317
 42
1.0
 10
27.01129937540977
 20
0.1345925362518582
 42
1.0
 10
26.65888259180522
 20
0.2683798527454498
 42
1.0
 10
26.39157815956014
 20
0.5358330208058635
 42
1.0
 97
        0
 75
     0
 76
     1
 98
        1
 10
0.0
 20
0.0
  0
HATCH
  5
D2
330
81
100
AcDbEntity
  8
LAYER_2
 62
   250
100
AcDbHatch
 10
0.0
 20
0.0
 30
0.0
210
0.0
220
0.0
230
1.0
  2
SOLID
 70
     1
 71
     0
 91
        1
 92
        0
 93
       16
 72
     1
 10
2.056975259862391
 20
1.481337594892731
 11
2.056975259862391
 21
9.59079057031606
 72
     1
 10
2.056975259862391
 20
9.59079057031606
 11
1.12667163515482
 21
9.59079057031606
 72
     4
 94
        3
 73
     1
 74
     0
 95
        8
 96
        4
 40
0.0
 40
0.0
 40
0.0
 40
0.0
 40
1.0
 40
1.0
 40
1.0
 40
1.0
 10
1.12667163515482
 20
9.59079057031606
 42
1.0
 10
0.5044280729915238
 20
9.59079057031606
 42
1.0
 10
0.0000000000000069
 20
10.09521864330916
 42
1.0
 10
0.0000000000000069
 20
10.71746220547248
 42
1.0
 72
     4
 94
        3
 73
     1
 74
     0
 95
        8
 96
        4
 40
0.0
 40
0.0
 40
0.0
 40
0.0
 40
1.0
 40
1.0
 40
1.0
 40
1.0
 10
0.0000000000000069
 20
10.71746220547248
 42
1.0
 10
0.0000000000000069
 20
11.33970576763163
 42
1.0
 10
0.5044280729838078
 20
11.84413384062186
 42
1.0
 10
1.126671635142629
 20
11.84413384062475
 42
1.0
 72
     1
 10
1.126671635142629
 20
11.84413384062475
 11
2.056975259862391
 21
11.84413384062475
 72
     1
 10
2.056975259862391
 20
11.84413384062475
 11
2.056975259862391
 21
12.69176153167009
 72
     4
 94
        3
 73
     1
 74
     0
 95
       17
 96
       13
 40
0.0
 40
0.0
 40
0.0
 40
0.0
 40
1.0
 40
2.0
 40
3.0
 40
4.0
 40
5.0
 40
6.0
 40
7.0
 40
8.0
 40
9.0
 40
10.0
 40
10.0
 40
10.0
 40
10.0
 10
2.056975259862391
 20
12.69176153167009
 42
1.0
 10
2.056975259862391
 20
14.00805327130896
 42
1.0
 10
2.391500168998306
 20
14.98968294522859
 42
1.0
 10
3.016248410538817
 20
15.61429403018289
 42
1.0
 10
3.640859495494086
 20
16.23904227172309
 42
1.0
 10
4.510980866367246
 20
16.55134781420233
 42
1.0
 10
5.671051256474505
 20
16.55134781420233
 42
1.0
 10
6.157255200492838
 20
16.55134781420233
 42
1.0
 10
6.565376105807541
 20
16.51529812367423
 42
1.0
 10
6.929700984952512
 20
16.45567292634885
 42
1.0
 10
7.467148897864872
 20
16.36771451424403
 42
1.0
 10
7.85733387797994
 20
15.89649990393244
 42
1.0
 10
7.85732957359947
 20
15.35190194090472
 42
1.0
 72
     4
 94
        3
 73
     1
 74
     0
 95
       14
 96
       10
 40
0.0
 40
0.0
 40
0.0
 40
0.0
 40
1.0
 40
2.0
 40
3.0
 40
4.0
 40
5.0
 40
6.0
 40
7.0
 40
7.0
 40
7.0
 40
7.0
 10
7.85732957359947
 20
15.35190194090472
 42
1.0
 10
7.857324391168076
 20
14.69621167633191
 42
1.0
 10
7.297460664258883
 20
14.18035171451338
 42
1.0
 10
6.644266535681169
 20
14.23751073365828
 42
1.0
 10
6.524838948344443
 20
14.24796147632661
 42
1.0
 10
6.401877923856644
 20
14.25342867618114
 42
1.0
 10
6.27344297478944
 20
14.25342867618114
 42
1.0
 10
5.247100254385032
 20
14.25342867618114
 42
1.0
 10
4.711778105816994
 20
13.69575000437086
 42
1.0
 10
4.711778105816994
 20
12.46874720111925
 42
1.0
 72
     1
 10
4.711778105816994
 20
12.46874720111925
 11
4.711778105816994
 21
11.82177959292111
 72
     1
 10
4.711778105816994
 20
11.82177959292111
 11
6.71961445904852
 21
11.82177959292111
 72
     4
 94
        3
 73
     1
 74
     0
 95
        8
 96
        4
 40
0.0
 40
0.0
 40
0.0
 40
0.0
 40
1.0
 40
1.0
 40
1.0
 40
1.0
 10
6.71961445904852
 20
11.82177959292111
 42
1.0
 10
7.335684443961377
 20
11.82177822530126
 42
1.0
 10
7.835106735082934
 20
11.32235371682819
 42
1.0
 10
7.835105367463083
 20
10.70628373191631
 42
1.0
 72
     4
 94
        3
 73
     1
 74
     0
 95
        8
 96
        4
 40
0.0
 40
0.0
 40
0.0
 40
0.0
 40
1.0
 40
1.0
 40
1.0
 40
1.0
 10
7.835105367463076
 20
10.70628373191631
 42
1.0
 10
7.835105244241109
 20
10.09021374700229
 42
1.0
 10
7.335681744552256
 20
9.590790447094093
 42
1.0
 10
6.719611759637894
 20
9.59079057031606
 42
1.0
 72
     1
 10
6.719611759637894
 20
9.59079057031606
 11
4.756351296307859
 21
9.59079057031606
 72
     1
 10
4.756351296307859
 20
9.59079057031606
 11
4.756351296307859
 21
1.48133759490813
 72
     4
 94
        3
 73
     1
 74
     0
 95
        8
 96
        4
 40
0.0
 40
0.0
 40
0.0
 40
0.0
 40
1.0
 40
1.0
 40
1.0
 40
1.0
 10
4.756351296307859
 20
1.481337594908129
 42
1.0
 10
4.756351296307859
 20
0.7359254854111957
 42
1.0
 10
4.152075387575962
 20
0.1316495766780293
 42
1.0
 10
3.406663278076136
 20
0.1316495766780293
 42
1.0
 72
     4
 94
        3
 73
     1
 74
     0
 95
        8
 96
        4
 40
0.0
 40
0.0
 40
0.0
 40
0.0
 40
1.0
 40
1.0
 40
1.0
 40
1.0
 10
3.406663278076136
 20
0.1316495766780293
 42
1.0
 10
2.66125116858916
 20
0.1316495766780293
 42
1.0
 10
2.056975259862391
 20
0.7359254854041319
 42
1.0
 10
2.056975259862391
 20
1.481337594892731
 42
1.0
 97
        0
 75
     0
 76
     1
 98
        1
 10
0.0
 20
0.0
  0
HATCH
  5
D3
330
81
100
AcDbEntity
  8
LAYER_2
 62
   250
100
AcDbHatch
 10
0.0
 20
0.0
 30
0.0
210
0.0
220
0.0
230
1.0
  2
SOLID
 70
     1
 71
     0
 91
        1
 92
        0
 93
        6
 72
     4
 94
        3
 73
     1
 74
     0
 95
        8
 96
        4
 40
0.0
 40
0.0
 40
0.0
 40
0.0
 40
1.0
 40
1.0
 40
1.0
 40
1.0
 10
10.6843497860629
 20
16.4174829879165
 42
1.0
 10
11.42979977026517
 20
16.41748298791649
 42
1.0
 10
12.03410638251409
 20
15.81317637566564
 42
1.0
 10
12.03410638251409
 20
15.06772639146405
 42
1.0
 72
     1
 10
12.03410638251409
 20
15.06772639146405
 11
12.03410638251409
 21
1.481403919785047
 72
     4
 94
        3
 73
     1
 74
     0
 95
        8
 96
        4
 40
0.0
 40
0.0
 40
0.0
 40
0.0
 40
1.0
 40
1.0
 40
1.0
 40
1.0
 10
12.03410638251409
 20
1.481403919785046
 42
1.0
 10
12.03410638251409
 20
0.7359539355802497
 42
1.0
 10
11.42979977026516
 20
0.131647323331964
 42
1.0
 10
10.6843497860629
 20
0.131647323331964
 42
1.0
 72
     4
 94
        3
 73
     1
 74
     0
 95
        8
 96
        4
 40
0.0
 40
0.0
 40
0.0
 40
0.0
 40
1.0
 40
1.0
 40
1.0
 40
1.0
 10
10.6843497860629
 20
0.131647323331964
 42
1.0
 10
9.938899801859371
 20
0.131647323331964
 42
1.0
 10
9.334593189611391
 20
0.7359539355802497
 42
1.0
 10
9.334593189611391
 20
1.481403919785046
 42
1.0
 72
     1
 10
9.334593189611391
 20
1.481403919785046
 11
9.334593189611391
 21
15.06772639146405
 72
     4
 94
        3
 73
     1
 74
     0
 95
        8
 96
        4
 40
0.0
 40
0.0
 40
0.0
 40
0.0
 40
1.0
 40
1.0
 40
1.0
 40
1.0
 10
9.334593189611399
 20
15.06772639146405
 42
1.0
 10
9.334593189611399
 20
15.81317637566564
 42
1.0
 10
9.938899801859378
 20
16.41748298791649
 42
1.0
 10
10.6843497860629
 20
16.41748298791649
 42
1.0
 97
        0
 75
     0
 76
     1
 98
        1
 10
0.0
 20
0.0
  0
HATCH
  5
D4
330
81
100
AcDbEntity
  8
LAYER_2
 62
   250
100
AcDbHatch
 10
0.0
 20
0.0
 30
0.0
210
0.0
220
0.0
230
1.0
  2
SOLID
 70
     1
 71
     0
 91
        2
 92
        0
 93
        6
 72
     4
 94
        3
 73
     1
 74
     0
 95
       14
 96
       10
 40
0.0
 40
0.0
 40
0.0
 40
0.0
 40
1.0
 40
2.0
 40
3.0
 40
4.0
 40
5.0
 40
6.0
 40
7.0
 40
7.0
 40
7.0
 40
7.0
 10
24.09704420912217
 20
3.112195681322739
 42
1.0
 10
24.59540956652758
 20
2.669979927150429
 42
1.0
 10
24.59614782453455
 20
1.878281484996226
 42
1.0
 10
24.08016384916407
 20
1.456756468111317
 42
1.0
 10
23.07020359717522
 20
0.6316852787028939
 42
1.0
 10
21.78866290861731
 20
0.131647323331964
 42
1.0
 10
20.14825197875879
 20
0.131647323331964
 42
1.0
 10
16.73483606499551
 20
0.131647323331964
 42
1.0
 10
14.10238974230012
 20
2.608009453079353
 42
1.0
 10
14.10238974230012
 20
6.244441972935
 42
1.0
 72
     1
 10
14.10238974230012
 20
6.244441972935
 11
14.10238989738305
 21
6.405774025867506
 72
     4
 94
        3
 73
     1
 74
     0
 95
       11
 96
        7
 40
0.0
 40
0.0
 40
0.0
 40
0.0
 40
1.0
 40
2.0
 40
3.0
 40
4.0
 40
4.0
 40
4.0
 40
4.0
 10
14.10238989738305
 20
6.405774025867506
 42
1.0
 10
14.10239343675691
 20
10.08785665312796
 42
1.0
 10
17.41001369934165
 20
12.99132589468977
 42
1.0
 10
21.03039801688693
 20
12.32009577971439
 42
1.0
 10
24.00125777871986
 20
11.76928946618388
 42
1.0
 10
25.50243356053517
 20
9.105354380041799
 42
1.0
 10
25.50243356053517
 20
6.088220623403397
 42
1.0
 72
     4
 94
        3
 73
     1
 74
     0
 95
        8
 96
        4
 40
0.0
 40
0.0
 40
0.0
 40
0.0
 40
1.0
 40
1.0
 40
1.0
 40
1.0
 10
25.50243356053517
 20
6.088220623403397
 42
1.0
 10
25.50205542627709
 20
5.669219799508199
 42
1.0
 10
25.16228245882159
 20
5.329752704444579
 42
1.0
 10
24.74328146531376
 20
5.329751906445614
 42
1.0
 72
     1
 10
24.74328146531376
 20
5.329751906445614
 11
16.9405247216392
 21
5.329734881962846
 72
     4
 94
        3
 73
     1
 74
     0
 95
       17
 96
       13
 40
0.0
 40
0.0
 40
0.0
 40
0.0
 40
1.0
 40
2.0
 40
3.0
 40
4.0
 40
5.0
 40
6.0
 40
7.0
 40
8.0
 40
9.0
 40
10.0
 40
10.0
 40
10.0
 40
10.0
 10
16.9405247216392
 20
5.329734881962846
 42
1.0
 10
16.86832201582107
 20
5.32973474444931
 42
1.0
 10
16.8118600712948
 20
5.262718682183552
 42
1.0
 10
16.82478533155169
 20
5.191682294505
 42
1.0
 10
17.15808597679844
 20
3.359883678401739
 42
1.0
 10
18.49492437653273
 20
2.340278395061034
 42
1.0
 10
20.19282945255414
 20
2.340278395061034
 42
1.0
 10
21.19207899224634
 20
2.340278395061034
 42
1.0
 10
21.97269718074914
 20
2.623171238837943
 42
1.0
 10
22.70071580925243
 20
3.159571789529518
 42
1.0
 10
23.1243157687853
 20
3.47167815971286
 42
1.0
 10
23.70348119809242
 20
3.461416912598818
 42
1.0
 10
24.09704420912217
 20
3.112195681322739
 42
1.0
 97
        0
 92
        0
 93
        2
 72
     1
 10
16.91540762385054
 20
7.114563343806537
 11
22.69379885049652
 21
7.114563343806537
 72
     4
 94
        3
 73
     1
 74
     0
 95
       17
 96
       13
 40
0.0
 40
0.0
 40
0.0
 40
0.0
 40
1.0
 40
2.0
 40
3.0
 40
4.0
 40
5.0
 40
6.0
 40
7.0
 40
8.0
 40
9.0
 40
10.0
 40
10.0
 40
10.0
 40
10.0
 10
22.69379885049652
 20
7.114563343806537
 42
1.0
 10
22.76353327291022
 20
7.114563343806537
 42
1.0
 10
22.81901982576562
 20
7.176561694640447
 42
1.0
 10
22.81012548064366
 20
7.2457265722463
 42
1.0
 10
22.59448940561114
 20
8.922572088504895
 42
1.0
 10
21.57552963309855
 20
10.21553655851112
 42
1.0
 10
19.83580927969689
 20
10.21553655851112
 42
1.0
 10
18.22597661651519
 20
10.21553655851112
 42
1.0
 10
17.08282567005861
 20
9.006181366363407
 42
1.0
 10
16.7995092198067
 20
7.249763613170527
 42
1.0
 10
16.78816343430312
 20
7.179425519269173
 42
1.0
 10
16.84416034809792
 20
7.114563343806537
 42
1.0
 10
16.91540762385054
 20
7.114563343806537
 42
1.0
 97
        0
 75
     0
 76
     1
 98
        1
 10
0.0
 20
0.0
  0
INSERT
  5
16E
330
81
100
AcDbEntity
  8
0
  6
Continuous
 62
     7
100
AcDbBlockReference
  2
BLOCK 2
 10
-39.983426312
 20
41.2819232228
 30
0.0
  0
ENDBLK
  5
83
330
81
100
AcDbEntity
  8
0
100
AcDbBlockEnd
  0
BLOCK
  5
D6
330
D5
100
AcDbEntity
  8
0
100
AcDbBlockBegin
  2
BLOCK 2
 70
     0
 10
0.0
 20
0.0
 30
0.0
  3
BLOCK 2
  1

  0
INSERT
  5
16F
330
D5
100
AcDbEntity
  8
0
  6
Continuous
 62
     7
100
AcDbBlockReference
  2
BLOCK 3
 10
0.0
 20
0.0
 30
0.0
  0
INSERT
  5
170
330
D5
100
AcDbEntity
  8
0
  6
Continuous
 62
     7
100
AcDbBlockReference
  2
BLOCK 7
 10
0.0
 20
0.0
 30
0.0
  0
ENDBLK
  5
D7
330
D5
100
AcDbEntity
  8
0
100
AcDbBlockEnd
  0
BLOCK
  5
D9
330
D8
100
AcDbEntity
  8
0
100
AcDbBlockBegin
  2
BLOCK 3
 70
     0
 10
0.0
 20
0.0
 30
0.0
  3
BLOCK 3
  1

  0
INSERT
  5
171
330
D8
100
AcDbEntity
  8
0
  6
Continuous
 62
     7
100
AcDbBlockReference
  2
BLOCK 4
 10
0.0
 20
0.0
 30
0.0
  0
ENDBLK
  5
DA
330
D8
100
AcDbEntity
  8
0
100
AcDbBlockEnd
  0
BLOCK
  5
DC
330
DB
100
AcDbEntity
  8
0
100
AcDbBlockBegin
  2
BLOCK 4
 70
     0
 10
0.0
 20
0.0
 30
0.0
  3
BLOCK 4
  1

  0
INSERT
  5
172
330
DB
100
AcDbEntity
  8
0
  6
Continuous
 62
     7
100
AcDbBlockReference
  2
BLOCK 5
 10
0.0
 20
0.0
 30
0.0
  0
INSERT
  5
173
330
DB
100
AcDbEntity
  8
0
  6
Continuous
 62
     7
100
AcDbBlockReference
  2
BLOCK 6
 10
0.0
 20
0.0
 30
0.0
  0
ENDBLK
  5
DD
330
DB
100
AcDbEntity
  8
0
100
AcDbBlockEnd
  0
BLOCK
  5
DF
330
DE
100
AcDbEntity
  8
0
100
AcDbBlockBegin
  2
BLOCK 5
 70
     0
 10
0.0
 20
0.0
 30
0.0
  3
BLOCK 5
  1

  0
LINE
  5
E1
330
DE
100
AcDbEntity
  8
SLD-0
370
     0
100
AcDbLine
 10
66.3808715558
 20
-31.3828716464
 30
0.0
 11
68.2682076911
 21
-33.2702077818
 31
0.0
  0
LINE
  5
E2
330
DE
100
AcDbEntity
  8
SLD-0
370
     0
100
AcDbLine
 10
68.9300827149
 20
-35.0196879882
 30
0.0
 11
69.4738853062
 21
-34.4758853969
 31
0.0
  0
LINE
  5
E3
330
DE
100
AcDbEntity
  8
SLD-0
370
     0
100
AcDbLine
 10
69.4738853062
 20
-34.4758853969
 30
0.0
 11
70.1693666084
 21
-33.7804040948
 31
0.0
  0
LINE
  5
E4
330
DE
100
AcDbEntity
  8
SLD-0
370
     0
100
AcDbLine
 10
70.1693718463
 20
-31.2750445196
 30
0.0
 11
68.3290352646
 21
-29.4347079378
 31
0.0
  0
LINE
  5
E5
330
DE
100
AcDbEntity
  8
SLD-0
370
     0
100
AcDbLine
 10
77.6832625393
 20
-38.7957866902
 30
0.0
 11
75.7959264038
 21
-36.9084505549
 31
0.0
  0
LINE
  5
E6
330
DE
100
AcDbEntity
  8
SLD-0
370
     0
100
AcDbLine
 10
75.1340513799
 20
-35.1589703486
 30
0.0
 11
74.5902487886
 21
-35.7027729399
 31
0.0
  0
LINE
  5
E7
330
DE
100
AcDbEntity
  8
SLD-0
370
     0
100
AcDbLine
 10
74.5902487886
 20
-35.7027729399
 30
0.0
 11
73.8947674865
 21
-36.3982542421
 31
0.0
  0
LINE
  5
E8
330
DE
100
AcDbEntity
  8
SLD-0
370
     0
100
AcDbLine
 10
73.8947622488
 20
-38.9036138173
 30
0.0
 11
75.7350988307
 21
-40.743950399
 31
0.0
  0
LINE
  5
E9
330
DE
100
AcDbEntity
  8
SLD-0
370
     0
100
AcDbLine
 10
66.3755454475
 20
-38.8015187319
 30
0.0
 11
75.7445563993
 21
-29.4377203549
 31
0.0
  0
LINE
  5
EA
330
DE
100
AcDbEntity
  8
SLD-0
370
     0
100
AcDbLine
 10
77.6885886673
 20
-31.3828348204
 30
0.0
 11
68.3195777728
 21
-40.7466331238
 31
0.0
  0
SPLINE
  5
EB
330
DE
100
AcDbEntity
  8
SLD-0
370
     0
100
AcDbSpline
210
0.0
220
0.0
230
1.0
 70
     8
 71
     3
 72
     8
 73
     4
 74
     0
 42
0.000000001
 43
0.00000001
 40
1.0
 40
1.0
 40
1.0
 40
1.0
 40
2.0
 40
2.0
 40
2.0
 40
2.0
 10
66.38086631798505
 20
-29.43470793774106
 30
0.0
 10
65.8428987319874
 20
-29.97267552371339
 30
0.0
 10
65.84289873196815
 20
-30.84489882255192
 30
0.0
 10
66.38087155582973
 20
-31.38287164643658
 30
0.0
  0
SPLINE
  5
EC
330
DE
100
AcDbEntity
  8
SLD-0
370
     0
100
AcDbSpline
210
0.0
220
0.0
230
1.0
 70
     8
 71
     3
 72
     8
 73
     4
 74
     0
 42
0.000000001
 43
0.00000001
 40
3.0
 40
3.0
 40
3.0
 40
3.0
 40
4.0
 40
4.0
 40
4.0
 40
4.0
 10
68.26820769113202
 20
-33.27020778182616
 30
0.0
 10
68.38975808010366
 20
-33.40583760911925
 30
0.0
 10
68.90107006280533
 20
-34.03817619219388
 30
0.0
 10
68.71366372963416
 20
-34.89364349282208
 30
0.0
  0
SPLINE
  5
ED
330
DE
100
AcDbEntity
  8
SLD-0
370
     0
100
AcDbSpline
210
0.0
220
0.0
230
1.0
 70
     8
 71
     3
 72
     8
 73
     4
 74
     0
 42
0.000000001
 43
0.00000001
 40
4.0
 40
4.0
 40
4.0
 40
4.0
 40
5.0
 40
5.0
 40
5.0
 40
5.0
 10
68.71366372963416
 20
-34.89364349282208
 30
0.0
 10
68.70401554310908
 20
-34.93766268910498
 30
0.0
 10
68.7128047162829
 20
-34.98554744546049
 30
0.0
 10
68.7469452590452
 20
-35.0196879882244
 30
0.0
  0
SPLINE
  5
EE
330
DE
100
AcDbEntity
  8
SLD-0
370
     0
100
AcDbSpline
210
0.0
220
0.0
230
1.0
 70
     8
 71
     3
 72
     8
 73
     4
 74
     0
 42
0.000000001
 43
0.00000001
 40
5.0
 40
5.0
 40
5.0
 40
5.0
 40
6.0
 40
6.0
 40
6.0
 40
6.0
 10
68.7469452590452
 20
-35.0196879882244
 30
0.0
 10
68.79751705106075
 20
-35.07025978024252
 30
0.0
 10
68.87951092286225
 20
-35.07025978024349
 30
0.0
 10
68.93008271487909
 20
-35.01968798822824
 30
0.0
  0
SPLINE
  5
EF
330
DE
100
AcDbEntity
  8
SLD-0
370
     0
100
AcDbSpline
210
0.0
220
0.0
230
1.0
 70
     8
 71
     3
 72
     8
 73
     4
 74
     0
 42
0.000000001
 43
0.00000001
 40
8.0
 40
8.0
 40
8.0
 40
8.0
 40
9.0
 40
9.0
 40
9.0
 40
9.0
 10
70.16936660835722
 20
-33.7804040948066
 30
0.0
 10
70.86120757955537
 20
-33.0885631236386
 30
0.0
 10
70.86120757958169
 20
-31.96688025291046
 30
0.0
 10
70.16937184629943
 20
-31.27504451959676
 30
0.0
  0
SPLINE
  5
F0
330
DE
100
AcDbEntity
  8
SLD-0
370
     0
100
AcDbSpline
210
0.0
220
0.0
230
1.0
 70
     8
 71
     3
 72
     8
 73
     4
 74
     0
 42
0.000000001
 43
0.00000001
 40
10.0
 40
10.0
 40
10.0
 40
10.0
 40
11.0
 40
11.0
 40
11.0
 40
11.0
 10
68.32903526456823
 20
-29.43470793778439
 30
0.0
 10
67.79106244070731
 20
-28.89673511389937
 30
0.0
 10
66.918839141871
 20
-28.89673511388045
 30
0.0
 10
66.38087155587272
 20
-29.43470269985308
 30
0.0
  0
SPLINE
  5
F1
330
DE
100
AcDbEntity
  8
SLD-0
370
     0
100
AcDbSpline
210
0.0
220
0.0
230
1.0
 70
     8
 71
     3
 72
     8
 73
     4
 74
     0
 42
0.000000001
 43
0.00000001
 40
1.0
 40
1.0
 40
1.0
 40
1.0
 40
2.0
 40
2.0
 40
2.0
 40
2.0
 10
77.68326777727583
 20
-40.7439503988504
 30
0.0
 10
78.22123536322793
 20
-40.205982812829
 30
0.0
 10
78.22123536316761
 20
-39.33375951399209
 30
0.0
 10
77.68326253925791
 20
-38.79578669015488
 30
0.0
  0
SPLINE
  5
F2
330
DE
100
AcDbEntity
  8
SLD-0
370
     0
100
AcDbSpline
210
0.0
220
0.0
230
1.0
 70
     8
 71
     3
 72
     8
 73
     4
 74
     0
 42
0.000000001
 43
0.00000001
 40
3.0
 40
3.0
 40
3.0
 40
3.0
 40
4.0
 40
4.0
 40
4.0
 40
4.0
 10
75.79592640378688
 20
-36.90845055493408
 30
0.0
 10
75.67437601480239
 20
-36.77282072765254
 30
0.0
 10
75.16306403204169
 20
-36.14048214462538
 30
0.0
 10
75.35047036513774
 20
-35.28501484397924
 30
0.0
  0
SPLINE
  5
F3
330
DE
100
AcDbEntity
  8
SLD-0
370
     0
100
AcDbSpline
210
0.0
220
0.0
230
1.0
 70
     8
 71
     3
 72
     8
 73
     4
 74
     0
 42
0.000000001
 43
0.00000001
 40
4.0
 40
4.0
 40
4.0
 40
4.0
 40
5.0
 40
5.0
 40
5.0
 40
5.0
 10
75.35047036513774
 20
-35.28501484397924
 30
0.0
 10
75.36011855165962
 20
-35.24099564769507
 30
0.0
 10
75.35132937848005
 20
-35.19311089133922
 30
0.0
 10
75.3171888357171
 20
-35.15897034858043
 30
0.0
  0
SPLINE
  5
F4
330
DE
100
AcDbEntity
  8
SLD-0
370
     0
100
AcDbSpline
210
0.0
220
0.0
230
1.0
 70
     8
 71
     3
 72
     8
 73
     4
 74
     0
 42
0.000000001
 43
0.00000001
 40
5.0
 40
5.0
 40
5.0
 40
5.0
 40
6.0
 40
6.0
 40
6.0
 40
6.0
 10
75.3171888357171
 20
-35.15897034858043
 30
0.0
 10
75.26661704369639
 20
-35.10839855656552
 30
0.0
 10
75.1846231718943
 20
-35.1083985565713
 30
0.0
 10
75.13405137988129
 20
-35.15897034859039
 30
0.0
  0
SPLINE
  5
F5
330
DE
100
AcDbEntity
  8
SLD-0
370
     0
100
AcDbSpline
210
0.0
220
0.0
230
1.0
 70
     8
 71
     3
 72
     8
 73
     4
 74
     0
 42
0.000000001
 43
0.00000001
 40
8.0
 40
8.0
 40
8.0
 40
8.0
 40
9.0
 40
9.0
 40
9.0
 40
9.0
 10
73.8947674865161
 20
-36.39825424212466
 30
0.0
 10
73.20292651537889
 20
-37.09009521335555
 30
0.0
 10
73.20292651545334
 20
-38.21177808408273
 30
0.0
 10
73.89476224879849
 20
-38.9036138173342
 30
0.0
  0
SPLINE
  5
F6
330
DE
100
AcDbEntity
  8
SLD-0
370
     0
100
AcDbSpline
210
0.0
220
0.0
230
1.0
 70
     8
 71
     3
 72
     8
 73
     4
 74
     0
 42
0.000000001
 43
0.00000001
 40
10.0
 40
10.0
 40
10.0
 40
10.0
 40
11.0
 40
11.0
 40
11.0
 40
11.0
 10
75.7350988306933
 20
-40.74395039898194
 30
0.0
 10
76.27307165460238
 20
-41.2819232228185
 30
0.0
 10
77.14529495343865
 20
-41.28192322275883
 30
0.0
 10
77.68326253938945
 20
-40.74395563673743
 30
0.0
  0
SPLINE
  5
F7
330
DE
100
AcDbEntity
  8
SLD-0
370
     0
100
AcDbSpline
210
0.0
220
0.0
230
1.0
 70
     8
 71
     3
 72
     8
 73
     4
 74
     0
 42
0.000000001
 43
0.00000001
 40
1.0
 40
1.0
 40
1.0
 40
1.0
 40
2.0
 40
2.0
 40
2.0
 40
2.0
 10
75.74455639928661
 20
-29.43772035491619
 30
0.0
 10
76.01609041722224
 20
-29.16633740857174
 30
0.0
 10
76.37527717678842
 20
-29.03277918530929
 30
0.0
 10
76.73308752164395
 20
-29.03702090511989
 30
0.0
  0
SPLINE
  5
F8
330
DE
100
AcDbEntity
  8
SLD-0
370
     0
100
AcDbSpline
210
0.0
220
0.0
230
1.0
 70
     8
 71
     3
 72
     8
 73
     4
 74
     0
 42
0.000000001
 43
0.00000001
 40
2.0
 40
2.0
 40
2.0
 40
2.0
 40
3.0
 40
3.0
 40
3.0
 40
3.0
 10
76.73308752164395
 20
-29.03702090511989
 30
0.0
 10
77.08014247558641
 20
-29.04113512343401
 30
0.0
 10
77.42590251823823
 20
-29.17488955867909
 30
0.0
 10
77.68912794710286
 20
-29.43826159893256
 30
0.0
  0
SPLINE
  5
F9
330
DE
100
AcDbEntity
  8
SLD-0
370
     0
100
AcDbSpline
210
0.0
220
0.0
230
1.0
 70
     8
 71
     3
 72
     8
 73
     4
 74
     0
 42
0.000000001
 43
0.00000001
 40
4.0
 40
4.0
 40
4.0
 40
4.0
 40
5.0
 40
5.0
 40
5.0
 40
5.0
 10
77.6891299120636
 20
-29.43826356498806
 30
0.0
 10
77.9560098090998
 20
-29.70529210888017
 30
0.0
 10
78.08960081841312
 20
-30.0570887534709
 30
0.0
 10
78.08992650690773
 20
-30.40898288404795
 30
0.0
  0
SPLINE
  5
FA
330
DE
100
AcDbEntity
  8
SLD-0
370
     0
100
AcDbSpline
210
0.0
220
0.0
230
1.0
 70
     8
 71
     3
 72
     8
 73
     4
 74
     0
 42
0.000000001
 43
0.00000001
 40
5.0
 40
5.0
 40
5.0
 40
5.0
 40
6.0
 40
6.0
 40
6.0
 40
6.0
 10
78.08992650690773
 20
-30.40898288404795
 30
0.0
 10
78.09025323072404
 20
-30.76199564127838
 30
0.0
 10
77.95646602006012
 20
-31.11510650527162
 30
0.0
 10
77.68858866728299
 20
-31.38283482042537
 30
0.0
  0
SPLINE
  5
FB
330
DE
100
AcDbEntity
  8
SLD-0
370
     0
100
AcDbSpline
210
0.0
220
0.0
230
1.0
 70
     8
 71
     3
 72
     8
 73
     4
 74
     0
 42
0.000000001
 43
0.00000001
 40
7.0
 40
7.0
 40
7.0
 40
7.0
 40
8.0
 40
8.0
 40
8.0
 40
8.0
 10
68.31957777281195
 20
-40.74663312380346
 30
0.0
 10
68.05212508197545
 20
-41.01393701328602
 30
0.0
 10
67.69963474860252
 20
-41.14752822572402
 30
0.0
 10
67.34718152616807
 20
-41.14743042878123
 30
0.0
  0
SPLINE
  5
FC
330
DE
100
AcDbEntity
  8
SLD-0
370
     0
100
AcDbSpline
210
0.0
220
0.0
230
1.0
 70
     8
 71
     3
 72
     8
 73
     4
 74
     0
 42
0.000000001
 43
0.00000001
 40
8.0
 40
8.0
 40
8.0
 40
8.0
 40
9.0
 40
9.0
 40
9.0
 40
9.0
 10
67.34718152616807
 20
-41.14743042878123
 30
0.0
 10
66.99472763148387
 20
-41.14733263165171
 30
0.0
 10
66.64231084787932
 20
-41.01354531515811
 30
0.0
 10
66.37500641563423
 20
-40.7460921470977
 30
0.0
  0
SPLINE
  5
FD
330
DE
100
AcDbEntity
  8
SLD-0
370
     0
100
AcDbSpline
210
0.0
220
0.0
230
1.0
 70
     8
 71
     3
 72
     8
 73
     4
 74
     0
 42
0.000000001
 43
0.00000001
 40
10.0
 40
10.0
 40
10.0
 40
10.0
 40
11.0
 40
11.0
 40
11.0
 40
11.0
 10
66.37500447160186
 20
-40.7460902019828
 30
0.0
 10
66.11412833830762
 20
-40.48506890976079
 30
0.0
 10
65.98061148428333
 20
-40.14305058377491
 30
0.0
 10
65.97443190857648
 20
-39.79911902607697
 30
0.0
  0
SPLINE
  5
FE
330
DE
100
AcDbEntity
  8
SLD-0
370
     0
100
AcDbSpline
210
0.0
220
0.0
230
1.0
 70
     8
 71
     3
 72
     8
 73
     4
 74
     0
 42
0.000000001
 43
0.00000001
 40
11.0
 40
11.0
 40
11.0
 40
11.0
 40
12.0
 40
12.0
 40
12.0
 40
12.0
 10
65.97443190857648
 20
-39.79911902607697
 30
0.0
 10
65.9679477984311
 20
-39.43823824589895
 30
0.0
 10
66.10166078359066
 20
-39.07525101636048
 30
0.0
 10
66.37554544749648
 20
-38.8015187318596
 30
0.0
  0
ENDBLK
  5
E0
330
DE
100
AcDbEntity
  8
0
100
AcDbBlockEnd
  0
BLOCK
  5
100
330
FF
100
AcDbEntity
  8
0
100
AcDbBlockBegin
  2
BLOCK 6
 70
     0
 10
0.0
 20
0.0
 30
0.0
  3
BLOCK 6
  1

  0
LINE
  5
102
330
FF
100
AcDbEntity
  8
SLD-0
370
     0
100
AcDbLine
 10
42.0404015719
 20
-31.6911349058
 30
0.0
 11
41.1100979472
 21
-31.6911349058
 31
0.0
  0
LINE
  5
103
330
FF
100
AcDbEntity
  8
SLD-0
370
     0
100
AcDbLine
 10
41.1100979472
 20
-29.4377893822
 30
0.0
 11
42.0404015719
 21
-29.4377893822
 31
0.0
  0
LINE
  5
104
330
FF
100
AcDbEntity
  8
SLD-0
370
     0
100
AcDbLine
 10
42.0404015719
 20
-29.4377893822
 30
0.0
 11
42.0404015719
 21
-28.5901616911
 31
0.0
  0
LINE
  5
105
330
FF
100
AcDbEntity
  8
SLD-0
370
     0
100
AcDbLine
 10
44.6952044178
 20
-28.8131782972
 30
0.0
 11
44.6952044178
 21
-29.4601459054
 31
0.0
  0
LINE
  5
106
330
FF
100
AcDbEntity
  8
SLD-0
370
     0
100
AcDbLine
 10
44.6952044178
 20
-29.4601459054
 30
0.0
 11
46.7030407711
 21
-29.4601459054
 31
0.0
  0
LINE
  5
107
330
FF
100
AcDbEntity
  8
SLD-0
370
     0
100
AcDbLine
 10
46.7030407711
 20
-31.6911349058
 30
0.0
 11
44.7397803077
 21
-31.6911349058
 31
0.0
  0
LINE
  5
108
330
FF
100
AcDbEntity
  8
SLD-0
370
     0
100
AcDbLine
 10
44.7397803077
 20
-31.6911349058
 30
0.0
 11
44.7397803077
 21
-39.8005878812
 31
0.0
  0
LINE
  5
109
330
FF
100
AcDbEntity
  8
SLD-0
370
     0
100
AcDbLine
 10
42.0404015719
 20
-39.8005878812
 30
0.0
 11
42.0404015719
 21
-31.6911349058
 31
0.0
  0
LINE
  5
10A
330
FF
100
AcDbEntity
  8
SLD-0
370
     0
100
AcDbLine
 10
52.0175353941
 20
-26.2141968313
 30
0.0
 11
52.0175353941
 21
-39.800519303
 31
0.0
  0
LINE
  5
10B
330
FF
100
AcDbEntity
  8
SLD-0
370
     0
100
AcDbLine
 10
49.3180195017
 20
-39.800519303
 30
0.0
 11
49.3180195017
 21
-26.2141968313
 31
0.0
  0
LINE
  5
10C
330
FF
100
AcDbEntity
  8
SLD-0
370
     0
100
AcDbLine
 10
54.0858160543
 20
-35.0374812499
 30
0.0
 11
54.0858162094
 21
-34.8761491969
 31
0.0
  0
LINE
  5
10D
330
FF
100
AcDbEntity
  8
SLD-0
370
     0
100
AcDbLine
 10
64.7267077767
 20
-35.9521720748
 30
0.0
 11
56.9239494498
 21
-35.9521869354
 31
0.0
  0
LINE
  5
10E
330
FF
100
AcDbEntity
  8
SLD-0
370
     0
100
AcDbLine
 10
56.8988339359
 20
-34.167359879
 30
0.0
 11
62.6772251625
 21
-34.167359879
 31
0.0
  0
SPLINE
  5
10F
330
FF
100
AcDbEntity
  8
SLD-0
370
     0
100
AcDbSpline
210
0.0
220
0.0
230
1.0
 70
     8
 71
     3
 72
     8
 73
     4
 74
     0
 42
0.000000001
 43
0.00000001
 40
1.0
 40
1.0
 40
1.0
 40
1.0
 40
2.0
 40
2.0
 40
2.0
 40
2.0
 10
41.11009794719654
 20
-31.69113490581866
 30
0.0
 10
40.48785438503324
 20
-31.69113490581866
 30
0.0
 10
39.98342631204172
 20
-31.18670683282557
 30
0.0
 10
39.98342631204172
 20
-30.56446327066225
 30
0.0
  0
SPLINE
  5
110
330
FF
100
AcDbEntity
  8
SLD-0
370
     0
100
AcDbSpline
210
0.0
220
0.0
230
1.0
 70
     8
 71
     3
 72
     8
 73
     4
 74
     0
 42
0.000000001
 43
0.00000001
 40
3.0
 40
3.0
 40
3.0
 40
3.0
 40
4.0
 40
4.0
 40
4.0
 40
4.0
 10
39.98342631204172
 20
-30.56446101731618
 30
0.0
 10
39.98342631204172
 20
-29.94221745515703
 30
0.0
 10
40.48785438502552
 20
-29.43778938216681
 30
0.0
 10
41.11009794718434
 20
-29.43778938216391
 30
0.0
  0
SPLINE
  5
111
330
FF
100
AcDbEntity
  8
SLD-0
370
     0
100
AcDbSpline
210
0.0
220
0.0
230
1.0
 70
     8
 71
     3
 72
     8
 73
     4
 74
     0
 42
0.000000001
 43
0.00000001
 40
6.0
 40
6.0
 40
6.0
 40
6.0
 40
7.0
 40
7.0
 40
7.0
 40
7.0
 10
42.04040157190411
 20
-28.59016169111537
 30
0.0
 10
42.04040157190411
 20
-27.2738699514765
 30
0.0
 10
42.37492648104002
 20
-26.29224027755687
 30
0.0
 10
42.99967472258053
 20
-25.66762919260257
 30
0.0
  0
SPLINE
  5
112
330
FF
100
AcDbEntity
  8
SLD-0
370
     0
100
AcDbSpline
210
0.0
220
0.0
230
1.0
 70
     8
 71
     3
 72
     8
 73
     4
 74
     0
 42
0.000000001
 43
0.00000001
 40
7.0
 40
7.0
 40
7.0
 40
7.0
 40
8.0
 40
8.0
 40
8.0
 40
8.0
 10
42.99967472258053
 20
-25.66762919260257
 30
0.0
 10
43.6242858075358
 20
-25.04288095106237
 30
0.0
 10
44.49440717840896
 20
-24.73057540858313
 30
0.0
 10
45.65447756851622
 20
-24.73057540858313
 30
0.0
  0
SPLINE
  5
113
330
FF
100
AcDbEntity
  8
SLD-0
370
     0
100
AcDbSpline
210
0.0
220
0.0
230
1.0
 70
     8
 71
     3
 72
     8
 73
     4
 74
     0
 42
0.000000001
 43
0.00000001
 40
8.0
 40
8.0
 40
8.0
 40
8.0
 40
9.0
 40
9.0
 40
9.0
 40
9.0
 10
45.65447756851622
 20
-24.73057540858313
 30
0.0
 10
46.14068151253455
 20
-24.73057540858313
 30
0.0
 10
46.54880241784925
 20
-24.76662509911123
 30
0.0
 10
46.91312729699423
 20
-24.8262502964366
 30
0.0
  0
SPLINE
  5
114
330
FF
100
AcDbEntity
  8
SLD-0
370
     0
100
AcDbSpline
210
0.0
220
0.0
230
1.0
 70
     8
 71
     3
 72
     8
 73
     4
 74
     0
 42
0.000000001
 43
0.00000001
 40
9.0
 40
9.0
 40
9.0
 40
9.0
 40
10.0
 40
10.0
 40
10.0
 40
10.0
 10
46.91312729699423
 20
-24.8262502964366
 30
0.0
 10
47.45057520990659
 20
-24.91420870854143
 30
0.0
 10
47.84076019002165
 20
-25.38542331885302
 30
0.0
 10
47.84075588564119
 20
-25.93002128188074
 30
0.0
  0
SPLINE
  5
115
330
FF
100
AcDbEntity
  8
SLD-0
370
     0
100
AcDbSpline
210
0.0
220
0.0
230
1.0
 70
     8
 71
     3
 72
     8
 73
     4
 74
     0
 42
0.000000001
 43
0.00000001
 40
11.0
 40
11.0
 40
11.0
 40
11.0
 40
12.0
 40
12.0
 40
12.0
 40
12.0
 10
47.84075588562386
 20
-25.93002355741964
 30
0.0
 10
47.84075070319247
 20
-26.58571382199245
 30
0.0
 10
47.28088697628328
 20
-27.10157378381098
 30
0.0
 10
46.62769284770556
 20
-27.04441476466608
 30
0.0
  0
SPLINE
  5
116
330
FF
100
AcDbEntity
  8
SLD-0
370
     0
100
AcDbSpline
210
0.0
220
0.0
230
1.0
 70
     8
 71
     3
 72
     8
 73
     4
 74
     0
 42
0.000000001
 43
0.00000001
 40
12.0
 40
12.0
 40
12.0
 40
12.0
 40
13.0
 40
13.0
 40
13.0
 40
13.0
 10
46.62769284770556
 20
-27.04441476466608
 30
0.0
 10
46.50826526036884
 20
-27.03396402199775
 30
0.0
 10
46.38530423588104
 20
-27.02849682214323
 30
0.0
 10
46.25686928681384
 20
-27.02849682214323
 30
0.0
  0
SPLINE
  5
117
330
FF
100
AcDbEntity
  8
SLD-0
370
     0
100
AcDbSpline
210
0.0
220
0.0
230
1.0
 70
     8
 71
     3
 72
     8
 73
     4
 74
     0
 42
0.000000001
 43
0.00000001
 40
13.0
 40
13.0
 40
13.0
 40
13.0
 40
14.0
 40
14.0
 40
14.0
 40
14.0
 10
46.25686928681384
 20
-27.02849682214323
 30
0.0
 10
45.23052656640942
 20
-27.02849682214323
 30
0.0
 10
44.69520441784139
 20
-27.5861754939535
 30
0.0
 10
44.69520441784139
 20
-28.81317829720511
 30
0.0
  0
SPLINE
  5
118
330
FF
100
AcDbEntity
  8
SLD-0
370
     0
100
AcDbSpline
210
0.0
220
0.0
230
1.0
 70
     8
 71
     3
 72
     8
 73
     4
 74
     0
 42
0.000000001
 43
0.00000001
 40
16.0
 40
16.0
 40
16.0
 40
16.0
 40
17.0
 40
17.0
 40
17.0
 40
17.0
 10
46.70304077107291
 20
-29.46014590540325
 30
0.0
 10
47.31911075598728
 20
-29.46014590540325
 30
0.0
 10
47.81853415578501
 20
-29.95956930520261
 30
0.0
 10
47.81853415578501
 20
-30.57563929011601
 30
0.0
  0
SPLINE
  5
119
330
FF
100
AcDbEntity
  8
SLD-0
370
     0
100
AcDbSpline
210
0.0
220
0.0
230
1.0
 70
     8
 71
     3
 72
     8
 73
     4
 74
     0
 42
0.000000001
 43
0.00000001
 40
18.0
 40
18.0
 40
18.0
 40
18.0
 40
19.0
 40
19.0
 40
19.0
 40
19.0
 10
47.81853415578501
 20
-30.57564152110529
 30
0.0
 10
47.81853415578501
 20
-31.19171150601933
 30
0.0
 10
47.31911075598728
 20
-31.69113490581866
 30
0.0
 10
46.70304077107291
 20
-31.69113490581866
 30
0.0
  0
SPLINE
  5
11A
330
FF
100
AcDbEntity
  8
SLD-0
370
     0
100
AcDbSpline
210
0.0
220
0.0
230
1.0
 70
     8
 71
     3
 72
     8
 73
     4
 74
     0
 42
0.000000001
 43
0.00000001
 40
21.0
 40
21.0
 40
21.0
 40
21.0
 40
22.0
 40
22.0
 40
22.0
 40
22.0
 10
44.73978030774288
 20
-39.8005878812266
 30
0.0
 10
44.73978030774288
 20
-40.54599999072353
 30
0.0
 10
44.13550439901098
 20
-41.15027589945669
 30
0.0
 10
43.39009228951115
 20
-41.15027589945669
 30
0.0
  0
SPLINE
  5
11B
330
FF
100
AcDbEntity
  8
SLD-0
370
     0
100
AcDbSpline
210
0.0
220
0.0
230
1.0
 70
     8
 71
     3
 72
     8
 73
     4
 74
     0
 42
0.000000001
 43
0.00000001
 40
23.0
 40
23.0
 40
23.0
 40
23.0
 40
24.0
 40
24.0
 40
24.0
 40
24.0
 10
43.39008959012971
 20
-41.15027589945669
 30
0.0
 10
42.64467748064273
 20
-41.15027589945669
 30
0.0
 10
42.04040157191596
 20
-40.54599999073059
 30
0.0
 10
42.04040157191596
 20
-39.800587881242
 30
0.0
  0
SPLINE
  5
11C
330
FF
100
AcDbEntity
  8
SLD-0
370
     0
100
AcDbSpline
210
0.0
220
0.0
230
1.0
 70
     8
 71
     3
 72
     8
 73
     4
 74
     0
 42
0.000000001
 43
0.00000001
 40
1.0
 40
1.0
 40
1.0
 40
1.0
 40
2.0
 40
2.0
 40
2.0
 40
2.0
 10
50.66777879762337
 20
-24.86444023487217
 30
0.0
 10
51.41322878182564
 20
-24.86444023487217
 30
0.0
 10
52.01753539407456
 20
-25.46874684712302
 30
0.0
 10
52.01753539407456
 20
-26.21419683132461
 30
0.0
  0
SPLINE
  5
11D
330
FF
100
AcDbEntity
  8
SLD-0
370
     0
100
AcDbSpline
210
0.0
220
0.0
230
1.0
 70
     8
 71
     3
 72
     8
 73
     4
 74
     0
 42
0.000000001
 43
0.00000001
 40
3.0
 40
3.0
 40
3.0
 40
3.0
 40
4.0
 40
4.0
 40
4.0
 40
4.0
 10
52.01753539407456
 20
-39.80051930300362
 30
0.0
 10
52.01753539407456
 20
-40.54596928720841
 30
0.0
 10
51.41322878182564
 20
-41.15027589945669
 30
0.0
 10
50.66777879762337
 20
-41.15027589945669
 30
0.0
  0
SPLINE
  5
11E
330
FF
100
AcDbEntity
  8
SLD-0
370
     0
100
AcDbSpline
210
0.0
220
0.0
230
1.0
 70
     8
 71
     3
 72
     8
 73
     4
 74
     0
 42
0.000000001
 43
0.00000001
 40
5.0
 40
5.0
 40
5.0
 40
5.0
 40
6.0
 40
6.0
 40
6.0
 40
6.0
 10
50.66777609810461
 20
-41.15027589945669
 30
0.0
 10
49.92232611390109
 20
-41.15027589945669
 30
0.0
 10
49.3180195016531
 20
-40.54596928720841
 30
0.0
 10
49.3180195016531
 20
-39.80051930300362
 30
0.0
  0
SPLINE
  5
11F
330
FF
100
AcDbEntity
  8
SLD-0
370
     0
100
AcDbSpline
210
0.0
220
0.0
230
1.0
 70
     8
 71
     3
 72
     8
 73
     4
 74
     0
 42
0.000000001
 43
0.00000001
 40
7.0
 40
7.0
 40
7.0
 40
7.0
 40
8.0
 40
8.0
 40
8.0
 40
8.0
 10
49.3180195016531
 20
-26.21419683132461
 30
0.0
 10
49.3180195016531
 20
-25.46874684712302
 30
0.0
 10
49.92232611390109
 20
-24.86444023487217
 30
0.0
 10
50.66777609810461
 20
-24.86444023487217
 30
0.0
  0
SPLINE
  5
120
330
FF
100
AcDbEntity
  8
SLD-0
370
     0
100
AcDbSpline
210
0.0
220
0.0
230
1.0
 70
     8
 71
     3
 72
     8
 73
     4
 74
     0
 42
0.000000001
 43
0.00000001
 40
1.0
 40
1.0
 40
1.0
 40
1.0
 40
2.0
 40
2.0
 40
2.0
 40
2.0
 10
54.08581620942476
 20
-34.87614919692115
 30
0.0
 10
54.08581974879862
 20
-31.1940665696607
 30
0.0
 10
57.39344001138336
 20
-28.29059732809889
 30
0.0
 10
61.01382432892864
 20
-28.96182744307427
 30
0.0
  0
SPLINE
  5
121
330
FF
100
AcDbEntity
  8
SLD-0
370
     0
100
AcDbSpline
210
0.0
220
0.0
230
1.0
 70
     8
 71
     3
 72
     8
 73
     4
 74
     0
 42
0.000000001
 43
0.00000001
 40
2.0
 40
2.0
 40
2.0
 40
2.0
 40
3.0
 40
3.0
 40
3.0
 40
3.0
 10
61.01382432892864
 20
-28.96182744307427
 30
0.0
 10
63.98468409076158
 20
-29.51263375660478
 30
0.0
 10
65.48585987257688
 20
-32.17656884274686
 30
0.0
 10
65.48585987257688
 20
-35.19370259938526
 30
0.0
  0
SPLINE
  5
122
330
FF
100
AcDbEntity
  8
SLD-0
370
     0
100
AcDbSpline
210
0.0
220
0.0
230
1.0
 70
     8
 71
     3
 72
     8
 73
     4
 74
     0
 42
0.000000001
 43
0.00000001
 40
4.0
 40
4.0
 40
4.0
 40
4.0
 40
5.0
 40
5.0
 40
5.0
 40
5.0
 10
65.4858598718909
 20
-35.19370335785299
 30
0.0
 10
65.48548173763282
 20
-35.61270418174819
 30
0.0
 10
65.14570877017732
 20
-35.95217127681181
 30
0.0
 10
64.7267077766695
 20
-35.95217207481078
 30
0.0
  0
SPLINE
  5
123
330
FF
100
AcDbEntity
  8
SLD-0
370
     0
100
AcDbSpline
210
0.0
220
0.0
230
1.0
 70
     8
 71
     3
 72
     8
 73
     4
 74
     0
 42
0.000000001
 43
0.00000001
 40
6.0
 40
6.0
 40
6.0
 40
6.0
 40
7.0
 40
7.0
 40
7.0
 40
7.0
 10
56.92394944978737
 20
-35.95218693538364
 30
0.0
 10
56.85174674396924
 20
-35.95218707289717
 30
0.0
 10
56.79528479944297
 20
-36.01920313516294
 30
0.0
 10
56.80821005969986
 20
-36.09023952284149
 30
0.0
  0
SPLINE
  5
124
330
FF
100
AcDbEntity
  8
SLD-0
370
     0
100
AcDbSpline
210
0.0
220
0.0
230
1.0
 70
     8
 71
     3
 72
     8
 73
     4
 74
     0
 42
0.000000001
 43
0.00000001
 40
7.0
 40
7.0
 40
7.0
 40
7.0
 40
8.0
 40
8.0
 40
8.0
 40
8.0
 10
56.80821005969986
 20
-36.09023952284149
 30
0.0
 10
57.14151070494661
 20
-37.92203813894475
 30
0.0
 10
58.4783491046809
 20
-38.94164342228545
 30
0.0
 10
60.17625418070232
 20
-38.94164342228545
 30
0.0
  0
SPLINE
  5
125
330
FF
100
AcDbEntity
  8
SLD-0
370
     0
100
AcDbSpline
210
0.0
220
0.0
230
1.0
 70
     8
 71
     3
 72
     8
 73
     4
 74
     0
 42
0.000000001
 43
0.00000001
 40
8.0
 40
8.0
 40
8.0
 40
8.0
 40
9.0
 40
9.0
 40
9.0
 40
9.0
 10
60.17625418070232
 20
-38.94164342228545
 30
0.0
 10
61.17550372039452
 20
-38.94164342228545
 30
0.0
 10
61.95612190889731
 20
-38.65875057850855
 30
0.0
 10
62.68414053740059
 20
-38.12235002781697
 30
0.0
  0
SPLINE
  5
126
330
FF
100
AcDbEntity
  8
SLD-0
370
     0
100
AcDbSpline
210
0.0
220
0.0
230
1.0
 70
     8
 71
     3
 72
     8
 73
     4
 74
     0
 42
0.000000001
 43
0.00000001
 40
9.0
 40
9.0
 40
9.0
 40
9.0
 40
10.0
 40
10.0
 40
10.0
 40
10.0
 10
62.68414053740059
 20
-38.12235002781697
 30
0.0
 10
63.10774049693347
 20
-37.81024365763363
 30
0.0
 10
63.68690592624058
 20
-37.82050490474767
 30
0.0
 10
64.08046893727034
 20
-38.16972613602375
 30
0.0
  0
SPLINE
  5
127
330
FF
100
AcDbEntity
  8
SLD-0
370
     0
100
AcDbSpline
210
0.0
220
0.0
230
1.0
 70
     8
 71
     3
 72
     8
 73
     4
 74
     0
 42
0.000000001
 43
0.00000001
 40
11.0
 40
11.0
 40
11.0
 40
11.0
 40
12.0
 40
12.0
 40
12.0
 40
12.0
 10
64.08047052116389
 20
-38.16972754146592
 30
0.0
 10
64.5788358785693
 20
-38.61194329563823
 30
0.0
 10
64.57957413657627
 20
-39.40364173779243
 30
0.0
 10
64.0635901612058
 20
-39.82516675467734
 30
0.0
  0
SPLINE
  5
128
330
FF
100
AcDbEntity
  8
SLD-0
370
     0
100
AcDbSpline
210
0.0
220
0.0
230
1.0
 70
     8
 71
     3
 72
     8
 73
     4
 74
     0
 42
0.000000001
 43
0.00000001
 40
12.0
 40
12.0
 40
12.0
 40
12.0
 40
13.0
 40
13.0
 40
13.0
 40
13.0
 10
64.0635901612058
 20
-39.82516675467734
 30
0.0
 10
63.05362990921694
 20
-40.65023794408577
 30
0.0
 10
61.77208922065902
 20
-41.15027589945669
 30
0.0
 10
60.1316782908005
 20
-41.15027589945669
 30
0.0
  0
SPLINE
  5
129
330
FF
100
AcDbEntity
  8
SLD-0
370
     0
100
AcDbSpline
210
0.0
220
0.0
230
1.0
 70
     8
 71
     3
 72
     8
 73
     4
 74
     0
 42
0.000000001
 43
0.00000001
 40
13.0
 40
13.0
 40
13.0
 40
13.0
 40
14.0
 40
14.0
 40
14.0
 40
14.0
 10
60.1316782908005
 20
-41.15027589945669
 30
0.0
 10
56.71826237703722
 20
-41.15027589945669
 30
0.0
 10
54.08581605434184
 20
-38.67391376970931
 30
0.0
 10
54.08581605434184
 20
-35.03748124985366
 30
0.0
  0
SPLINE
  5
12A
330
FF
100
AcDbEntity
  8
SLD-0
370
     0
100
AcDbSpline
210
0.0
220
0.0
230
1.0
 70
     8
 71
     3
 72
     8
 73
     4
 74
     0
 42
0.000000001
 43
0.00000001
 40
0.0
 40
0.0
 40
0.0
 40
0.0
 40
1.0
 40
1.0
 40
1.0
 40
1.0
 10
62.67722516253824
 20
-34.16735987898213
 30
0.0
 10
62.74695958495194
 20
-34.16735987898213
 30
0.0
 10
62.80244613780733
 20
-34.10536152814822
 30
0.0
 10
62.79355179268538
 20
-34.03619665054236
 30
0.0
  0
SPLINE
  5
12B
330
FF
100
AcDbEntity
  8
SLD-0
370
     0
100
AcDbSpline
210
0.0
220
0.0
230
1.0
 70
     8
 71
     3
 72
     8
 73
     4
 74
     0
 42
0.000000001
 43
0.00000001
 40
1.0
 40
1.0
 40
1.0
 40
1.0
 40
2.0
 40
2.0
 40
2.0
 40
2.0
 10
62.79355179268538
 20
-34.03619665054236
 30
0.0
 10
62.57791571765285
 20
-32.35935113428376
 30
0.0
 10
61.55895594514027
 20
-31.06638666427754
 30
0.0
 10
59.8192355917386
 20
-31.06638666427754
 30
0.0
  0
SPLINE
  5
12C
330
FF
100
AcDbEntity
  8
SLD-0
370
     0
100
AcDbSpline
210
0.0
220
0.0
230
1.0
 70
     8
 71
     3
 72
     8
 73
     4
 74
     0
 42
0.000000001
 43
0.00000001
 40
2.0
 40
2.0
 40
2.0
 40
2.0
 40
3.0
 40
3.0
 40
3.0
 40
3.0
 10
59.8192355917386
 20
-31.06638666427754
 30
0.0
 10
58.20940292855691
 20
-31.06638666427754
 30
0.0
 10
57.06625198210033
 20
-32.27574185642526
 30
0.0
 10
56.78293553184841
 20
-34.03215960961813
 30
0.0
  0
SPLINE
  5
12D
330
FF
100
AcDbEntity
  8
SLD-0
370
     0
100
AcDbSpline
210
0.0
220
0.0
230
1.0
 70
     8
 71
     3
 72
     8
 73
     4
 74
     0
 42
0.000000001
 43
0.00000001
 40
3.0
 40
3.0
 40
3.0
 40
3.0
 40
4.0
 40
4.0
 40
4.0
 40
4.0
 10
56.78293553184841
 20
-34.03215960961813
 30
0.0
 10
56.77158974634483
 20
-34.10249770351949
 30
0.0
 10
56.82758666013963
 20
-34.16735987898213
 30
0.0
 10
56.89883393589226
 20
-34.16735987898213
 30
0.0
  0
ENDBLK
  5
101
330
FF
100
AcDbEntity
  8
0
100
AcDbBlockEnd
  0
BLOCK
  5
12F
330
12E
100
AcDbEntity
  8
0
100
AcDbBlockBegin
  2
BLOCK 7
 70
     0
 10
0.0
 20
0.0
 30
0.0
  3
BLOCK 7
  1

  0
LINE
  5
131
330
12E
100
AcDbEntity
  8
SLD-0
370
     0
100
AcDbLine
 10
80.1808455149
 20
-39.9211286121
 30
0.0
 11
79.8170434316
 21
-39.9211286121
 31
0.0
  0
LINE
  5
132
330
12E
100
AcDbEntity
  8
SLD-0
370
     0
100
AcDbLine
 10
79.8170434316
 20
-39.9211286121
 30
0.0
 11
79.8170434316
 21
-40.9281300227
 31
0.0
  0
LINE
  5
133
330
12E
100
AcDbEntity
  8
SLD-0
370
     0
100
AcDbLine
 10
79.8170434316
 20
-40.9281300227
 30
0.0
 11
79.625151613
 21
-40.9281300227
 31
0.0
  0
LINE
  5
134
330
12E
100
AcDbEntity
  8
SLD-0
370
     0
100
AcDbLine
 10
79.625151613
 20
-40.9281300227
 30
0.0
 11
79.625151613
 21
-39.9211286121
 31
0.0
  0
LINE
  5
135
330
12E
100
AcDbEntity
  8
SLD-0
370
     0
100
AcDbLine
 10
79.625151613
 20
-39.9211286121
 30
0.0
 11
79.2613495297
 21
-39.9211286121
 31
0.0
  0
LINE
  5
136
330
12E
100
AcDbEntity
  8
SLD-0
370
     0
100
AcDbLine
 10
79.2613495297
 20
-39.9211286121
 30
0.0
 11
79.2613495297
 21
-39.7657548057
 31
0.0
  0
LINE
  5
137
330
12E
100
AcDbEntity
  8
SLD-0
370
     0
100
AcDbLine
 10
79.2613495297
 20
-39.7657548057
 30
0.0
 11
80.1808455149
 21
-39.7657548057
 31
0.0
  0
LINE
  5
138
330
12E
100
AcDbEntity
  8
SLD-0
370
     0
100
AcDbLine
 10
80.1808455149
 20
-39.7657548057
 30
0.0
 11
80.1808455149
 21
-39.9211286121
 31
0.0
  0
LINE
  5
139
330
12E
100
AcDbEntity
  8
SLD-0
370
     0
100
AcDbLine
 10
81.6956540002
 20
-40.9281300227
 30
0.0
 11
81.5037621816
 21
-40.9281300227
 31
0.0
  0
LINE
  5
13A
330
12E
100
AcDbEntity
  8
SLD-0
370
     0
100
AcDbLine
 10
81.5037621816
 20
-40.9281300227
 30
0.0
 11
81.5037621816
 21
-39.9576466242
 31
0.0
  0
LINE
  5
13B
330
12E
100
AcDbEntity
  8
SLD-0
370
     0
100
AcDbLine
 10
81.5037621816
 20
-39.9576466242
 30
0.0
 11
81.4982500288
 21
-39.9576466242
 31
0.0
  0
LINE
  5
13C
330
12E
100
AcDbEntity
  8
SLD-0
370
     0
100
AcDbLine
 10
81.4982500288
 20
-39.9576466242
 30
0.0
 11
81.1172224681
 21
-40.9281300227
 31
0.0
  0
LINE
  5
13D
330
12E
100
AcDbEntity
  8
SLD-0
370
     0
100
AcDbLine
 10
81.1172224681
 20
-40.9281300227
 30
0.0
 11
80.9959551069
 21
-40.9281300227
 31
0.0
  0
LINE
  5
13E
330
12E
100
AcDbEntity
  8
SLD-0
370
     0
100
AcDbLine
 10
80.9959551069
 20
-40.9281300227
 30
0.0
 11
80.6152720557
 21
-39.9576466242
 31
0.0
  0
LINE
  5
13F
330
12E
100
AcDbEntity
  8
SLD-0
370
     0
100
AcDbLine
 10
80.6152720557
 20
-39.9576466242
 30
0.0
 11
80.609759903
 21
-39.9576466242
 31
0.0
  0
LINE
  5
140
330
12E
100
AcDbEntity
  8
SLD-0
370
     0
100
AcDbLine
 10
80.609759903
 20
-39.9576466242
 30
0.0
 11
80.609759903
 21
-40.9281300227
 31
0.0
  0
LINE
  5
141
330
12E
100
AcDbEntity
  8
SLD-0
370
     0
100
AcDbLine
 10
80.609759903
 20
-40.9281300227
 30
0.0
 11
80.4178680844
 21
-40.9281300227
 31
0.0
  0
LINE
  5
142
330
12E
100
AcDbEntity
  8
SLD-0
370
     0
100
AcDbLine
 10
80.4178680844
 20
-40.9281300227
 30
0.0
 11
80.4178680844
 21
-39.7657548057
 31
0.0
  0
LINE
  5
143
330
12E
100
AcDbEntity
  8
SLD-0
370
     0
100
AcDbLine
 10
80.4178680844
 20
-39.7657548057
 30
0.0
 11
80.7141462962
 21
-39.7657548057
 31
0.0
  0
LINE
  5
144
330
12E
100
AcDbEntity
  8
SLD-0
370
     0
100
AcDbLine
 10
80.7141462962
 20
-39.7657548057
 30
0.0
 11
81.0610674116
 21
-40.6487327788
 31
0.0
  0
LINE
  5
145
330
12E
100
AcDbEntity
  8
SLD-0
370
     0
100
AcDbLine
 10
81.0610674116
 20
-40.6487327788
 30
0.0
 11
81.4021318648
 21
-39.7657548057
 31
0.0
  0
LINE
  5
146
330
12E
100
AcDbEntity
  8
SLD-0
370
     0
100
AcDbLine
 10
81.4021318648
 20
-39.7657548057
 30
0.0
 11
81.6956540002
 21
-39.7657548057
 31
0.0
  0
LINE
  5
147
330
12E
100
AcDbEntity
  8
SLD-0
370
     0
100
AcDbLine
 10
81.6956540002
 20
-39.7657548057
 30
0.0
 11
81.6956540002
 21
-40.9281300227
 31
0.0
  0
ENDBLK
  5
130
330
12E
100
AcDbEntity
  8
0
100
AcDbBlockEnd
  0
BLOCK
  5
149
330
148
100
AcDbEntity
  8
0
100
AcDbBlockBegin
  2
Block9
 70
     0
 10
0.0
 20
0.0
 30
0.0
  3
Block9
  1

  0
CIRCLE
  5
14B
330
148
100
AcDbEntity
  8
SLD-0
 62
     7
370
    30
100
AcDbCircle
 10
328.7685409015
 20
20.2563443506
 30
0.0
 40
1.73486087991586
  0
CIRCLE
  5
14C
330
148
100
AcDbEntity
  8
SLD-0
 62
     7
370
    30
100
AcDbCircle
 10
328.7685409015
 20
20.2563443506
 30
0.0
 40
3.355194210461851
  0
LINE
  5
14D
330
148
100
AcDbEntity
  8
SLD-0
 62
     7
370
     0
100
AcDbLine
 10
328.7685409015
 20
20.2563443506
 30
0.0
 11
343.9772960754
 21
20.2563443506
 31
0.0
  0
LINE
  5
14E
330
148
100
AcDbEntity
  8
SLD-0
  6
Continuous
 62
     7
370
    30
100
AcDbLine
 10
334.6216072866
 20
22.3678208872
 30
0.0
 11
334.6216072866
 21
18.144867814
 31
0.0
  0
LINE
  5
14F
330
148
100
AcDbEntity
  8
SLD-0
 62
     7
370
    30
100
AcDbLine
 10
341.9955491891
 20
23.2349229044
 30
0.0
 11
341.9955491891
 21
19.6953801463
 31
0.0
  0
LINE
  5
150
330
148
100
AcDbEntity
  8
SLD-0
 62
     7
370
    30
100
AcDbLine
 10
334.6216072866
 20
22.3678208872
 30
0.0
 11
341.9955491891
 21
23.2349229044
 31
0.0
  0
LINE
  5
151
330
148
100
AcDbEntity
  8
SLD-0
 62
     7
370
     0
100
AcDbLine
 10
328.7685409015
 20
20.2563443506
 30
0.0
 11
328.7685409015
 21
20.9397328424
 31
0.0
  0
LINE
  5
152
330
148
100
AcDbEntity
  8
SLD-0
 62
     7
370
     0
100
AcDbLine
 10
328.7685409015
 20
20.2563443506
 30
0.0
 11
328.7685409015
 21
18.9579859561
 31
0.0
  0
LINE
  5
153
330
148
100
AcDbEntity
  8
SLD-0
 62
     7
370
     0
100
AcDbLine
 10
328.7685409015
 20
20.2563443506
 30
0.0
 11
327.708536753
 21
20.2563443506
 31
0.0
  0
LINE
  5
154
330
148
100
AcDbEntity
  8
SLD-0
 62
     7
370
     0
100
AcDbLine
 10
328.7685409015
 20
20.2563443506
 30
0.0
 11
329.9207193237
 21
20.2563443506
 31
0.0
  0
LINE
  5
155
330
148
100
AcDbEntity
  8
SLD-0
  6
Continuous
 62
     7
370
    30
100
AcDbLine
 10
334.6216072866
 20
18.144867814
 30
0.0
 11
341.9955491891
 21
17.2777657968
 31
0.0
  0
LINE
  5
156
330
148
100
AcDbEntity
  8
SLD-0
  6
Continuous
 62
     7
370
    30
100
AcDbLine
 10
341.9955491891
 20
17.2777657968
 30
0.0
 11
341.9955491891
 21
20.8173085549
 31
0.0
  0
ENDBLK
  5
14A
330
148
100
AcDbEntity
  8
0
100
AcDbBlockEnd
  0
BLOCK
  5
158
330
157
100
AcDbEntity
  8
0
100
AcDbBlockBegin
  2
Block12
 70
     0
 10
0.0
 20
0.0
 30
0.0
  3
Block12
  1

  0
LINE
  5
15A
330
157
100
AcDbEntity
  8
SLD-0
100
AcDbLine
 10
322.187010067
 20
265.4577683253
 30
0.0
 11
322.187010067
 21
256.6292439321
 31
0.0
  0
LINE
  5
15B
330
157
100
AcDbEntity
  8
0
  6
Continuous
 62
     7
370
     0
100
AcDbLine
 10
302.6246080413
 20
260.6952683253
 30
0.0
 11
415.9567907574
 21
260.6952683253
 31
0.0
  0
LINE
  5
15C
330
157
100
AcDbEntity
  8
0
  6
Continuous
 62
     7
370
     0
100
AcDbLine
 10
302.6246080413
 20
256.6292439321
 30
0.0
 11
415.9567907574
 21
256.6292439321
 31
0.0
  0
LINE
  5
15D
330
157
100
AcDbEntity
  8
0
  6
Continuous
 62
     7
370
     0
100
AcDbLine
 10
302.6246080413
 20
256.6292439321
 30
0.0
 11
302.6246080413
 21
270.3086585366
 31
0.0
  0
LINE
  5
15E
330
157
100
AcDbEntity
  8
0
  6
Continuous
 62
     7
370
     0
100
AcDbLine
 10
302.6246080413
 20
265.4577683253
 30
0.0
 11
415.9567907574
 21
265.4577683253
 31
0.0
  0
LINE
  5
15F
330
157
100
AcDbEntity
  8
0
  6
Continuous
 62
     7
370
     0
100
AcDbLine
 10
309.2372509796
 20
265.4577683253
 30
0.0
 11
309.2372509796
 21
256.6292439321
 31
0.0
  0
LINE
  5
160
330
157
100
AcDbEntity
  8
0
  6
Continuous
 62
     7
370
     0
100
AcDbLine
 10
405.0322666875
 20
265.4577683253
 30
0.0
 11
405.0322666875
 21
256.6292439321
 31
0.0
  0
LINE
  5
161
330
157
100
AcDbEntity
  8
0
  6
Continuous
 62
     7
370
     0
100
AcDbLine
 10
391.9003726263
 20
265.4577683253
 30
0.0
 11
391.9003726263
 21
256.6292439321
 31
0.0
  0
MTEXT
  5
163
330
157
100
AcDbEntity
  8
SLD-0
100
AcDbMText
 10
396.0469896801
 20
259.6107711273
 30
0.0
 40
1.651
 41
0.0
 71
     1
 72
     1
  1
N/A           2/12/16
  7
SLDTEXTSTYLE0
 73
     1
 44
1.0
  0
MTEXT
  5
165
330
157
100
AcDbEntity
  8
0
  6
Continuous
 62
     7
370
     0
100
AcDbMText
 10
358.2039015771
 20
268.3290257633
 30
0.0
 40
1.651
 41
0.0
 71
     1
 72
     1
  1
REVISIONS
  7
SLDTEXTSTYLE1
 73
     1
 44
1.0
  0
MTEXT
  5
167
330
157
100
AcDbEntity
  8
SLD-0
100
AcDbMText
 10
305.0914479936
 20
259.5727076663
 30
0.0
 40
1.651
 41
0.0
 71
     1
 72
     1
  1
P1        PC                       INITIAL RELEASE
  7
SLDTEXTSTYLE2
 73
     1
 44
1.0
  0
MTEXT
  5
168
330
157
100
AcDbEntity
  8
SLD-0
100
AcDbMText
 10
312.9319168815
 20
263.4946765869
 30
0.0
 40
1.651
 41
0.0
 71
     1
 72
     1
  1
NAME
  7
SLDTEXTSTYLE1
 73
     1
 44
1.0
  0
MTEXT
  5
169
330
157
100
AcDbEntity
  8
0
  6
Continuous
 62
     7
370
     0
100
AcDbMText
 10
408.1420295767
 20
263.4946765869
 30
0.0
 40
1.651
 41
0.0
 71
     1
 72
     1
  1
DATE
  7
SLDTEXTSTYLE1
 73
     1
 44
1.0
  0
MTEXT
  5
16A
330
157
100
AcDbEntity
  8
0
  6
Continuous
 62
     7
370
     0
100
AcDbMText
 10
395.674089661
 20
263.4946765869
 30
0.0
 40
1.651
 41
0.0
 71
     1
 72
     1
  1
ECO
  7
SLDTEXTSTYLE1
 73
     1
 44
1.0
  0
MTEXT
  5
16B
330
157
100
AcDbEntity
  8
0
  6
Continuous
 62
     7
370
     0
100
AcDbMText
 10
344.8620285002
 20
263.4946765869
 30
0.0
 40
1.651
 41
0.0
 71
     1
 72
     1
  1
DESCRIPTION
  7
SLDTEXTSTYLE1
 73
     1
 44
1.0
  0
MTEXT
  5
16C
330
157
100
AcDbEntity
  8
0
  6
Continuous
 62
     7
370
     0
100
AcDbMText
 10
303.8537460237
 20
263.4946765869
 30
0.0
 40
1.651
 41
0.0
 71
     1
 72
     1
  1
REV.
  7
SLDTEXTSTYLE1
 73
     1
 44
1.0
  0
ENDBLK
  5
159
330
157
100
AcDbEntity
  8
0
100
AcDbBlockEnd
  0
BLOCK
  5
1B0
330
1AF
100
AcDbEntity
  8
0
100
AcDbBlockBegin
  2
SW_NOTE_0
 70
     0
 10
0.0
 20
0.0
 30
0.0
  3
SW_NOTE_0
  1

  0
MTEXT
  5
1B2
330
1AF
100
AcDbEntity
  8
SLD-0
 62
     0
100
AcDbMText
 10
0.0
 20
4.5117370892
 30
0.0
 40
3.5
 41
0.0
 71
     1
 72
     1
  1
NOTES:
  7
SLDTEXTSTYLE1
 73
     1
 44
1.0
  0
MTEXT
  5
1B4
330
1AF
100
AcDbEntity
  8
SLD-0
 62
     0
100
AcDbMText
 10
0.0
 20
-4.5396519717
 30
0.0
 40
3.5
 41
0.0
 71
     1
 72
     1
  1
1.  ADHESIVE MATERIAL : 3M VHB 5930P  0.80MM
  7
SLDTEXTSTYLE3
 73
     1
 44
1.0
  0
MTEXT
  5
1B5
330
1AF
100
AcDbEntity
  8
SLD-0
 62
     0
100
AcDbMText
 10
0.0
 20
-13.5910410326
 30
0.0
 40
3.5
 41
0.0
 71
     1
 72
     1
  1
2. PART TO BE FREE OF ALL CONTAMINANTS, NO OILS, FILM,
  7
SLDTEXTSTYLE1
 73
     1
 44
1.0
  0
MTEXT
  5
1B6
330
1AF
100
AcDbEntity
  8
SLD-0
 62
     0
100
AcDbMText
 10
0.0
 20
-18.1167355631
 30
0.0
 40
3.5
 41
0.0
 71
     1
 72
     1
  1
OR DIRT TO BE PRESENT
  7
SLDTEXTSTYLE1
 73
     1
 44
1.0
  0
MTEXT
  5
1B8
330
1AF
100
AcDbEntity
  8
SLD-0
 62
     0
100
AcDbMText
 10
0.0
 20
-27.168124624
 30
0.0
 40
3.5
 41
0.0
 71
     1
 72
     1
  1
3. PART IS TO BE FREE OF ALL ROUGH EDGES, BURRS,
  7
SLDTEXTSTYLE4
 73
     1
 44
1.0
  0
MTEXT
  5
1B9
330
1AF
100
AcDbEntity
  8
SLD-0
 62
     0
100
AcDbMText
 10
0.0
 20
-31.6938191545
 30
0.0
 40
3.5
 41
0.0
 71
     1
 72
     1
  1
SCRATCHES, MARKINGS, OR DEFORMATIONS.
  7
SLDTEXTSTYLE1
 73
     1
 44
1.0
  0
MTEXT
  5
1BB
330
1AF
100
AcDbEntity
  8
SLD-0
 62
     0
100
AcDbMText
 10
0.0
 20
-40.7452082154
 30
0.0
 40
3.5
 41
0.0
 71
     1
 72
     1
  1
5.  BAG AND TAG WITH PART NUMBER.
  7
SLDTEXTSTYLE5
 73
     1
 44
1.0
  0
ENDBLK
  5
1B1
330
1AF
100
AcDbEntity
  8
0
100
AcDbBlockEnd
  0
BLOCK
  5
1D6
330
1D5
100
AcDbEntity
  8
0
100
AcDbBlockBegin
  2
SW_NOTE_1
 70
     0
 10
0.0
 20
0.0
 30
0.0
  3
SW_NOTE_1
  1

  0
MTEXT
  5
1D9
330
1D5
100
AcDbEntity
  8
0
  6
Continuous
 62
     0
370
     0
100
AcDbMText
 10
0.0
 20
2.7285267159
 30
0.0
 40
2.1166666667
 41
0.0
 71
     1
 72
     1
  1
The information contained in this drawing
  7
SLDTEXTSTYLE6
 73
     1
 44
1.0
  0
MTEXT
  5
1DA
330
1D5
100
AcDbEntity
  8
0
  6
Continuous
 62
     0
370
     0
100
AcDbMText
 10
0.0
 20
-0.0936954723
 30
0.0
 40
2.1166666667
 41
0.0
 71
     1
 72
     1
  1
is the sole property of Flex Inc.
  7
SLDTEXTSTYLE6
 73
     1
 44
1.0
  0
MTEXT
  5
1DB
330
1D5
100
AcDbEntity
  8
0
  6
Continuous
 62
     0
370
     0
100
AcDbMText
 10
0.0
 20
-2.9159176604
 30
0.0
 40
2.1166666667
 41
0.0
 71
     1
 72
     1
  1
Any reproduction in part or as a whole,
  7
SLDTEXTSTYLE6
 73
     1
 44
1.0
  0
MTEXT
  5
1DC
330
1D5
100
AcDbEntity
  8
0
  6
Continuous
 62
     0
370
     0
100
AcDbMText
 10
0.0
 20
-5.7381398485
 30
0.0
 40
2.1166666667
 41
0.0
 71
     1
 72
     1
  1
without the written permission of Flex, Inc.,
  7
SLDTEXTSTYLE6
 73
     1
 44
1.0
  0
MTEXT
  5
1DD
330
1D5
100
AcDbEntity
  8
0
  6
Continuous
 62
     0
370
     0
100
AcDbMText
 10
0.0
 20
-8.5603620366
 30
0.0
 40
2.1166666667
 41
0.0
 71
     1
 72
     1
  1
is prohibited.
  7
SLDTEXTSTYLE6
 73
     1
 44
1.0
  0
ENDBLK
  5
1D7
330
1D5
100
AcDbEntity
  8
0
100
AcDbBlockEnd
  0
BLOCK
  5
1EC
330
1EB
100
AcDbEntity
  8
0
100
AcDbBlockBegin
  2
SW_NOTE_2
 70
     0
 10
0.0
 20
0.0
 30
0.0
  3
SW_NOTE_2
  1

  0
MTEXT
  5
1EE
330
1EB
100
AcDbEntity
  8
SLD-0
 62
     0
100
AcDbMText
 10
0.0
 20
4.5117370892
 30
0.0
 40
3.5
 41
0.0
 71
     1
 72
     1
  1
BATTERY ADHESSIVE STRIP,
  7
SLDTEXTSTYLE1
 73
     1
 44
1.0
  0
MTEXT
  5
1EF
330
1EB
100
AcDbEntity
  8
SLD-0
 62
     0
100
AcDbMText
 10
0.0
 20
0.0117372829
 30
0.0
 40
3.5
 41
0.0
 71
     1
 72
     1
  1
5930P .75IN X 4.5
  7
SLDTEXTSTYLE1
 73
     1
 44
1.0
  0
ENDBLK
  5
1ED
330
1EB
100
AcDbEntity
  8
0
100
AcDbBlockEnd
  0
BLOCK
  5
1F6
330
1F5
100
AcDbEntity
  8
0
100
AcDbBlockBegin
  2
SW_NOTE_3
 70
     0
 10
0.0
 20
0.0
 30
0.0
  3
SW_NOTE_3
  1

  0
MTEXT
  5
1F8
330
1F5
100
AcDbEntity
  8
0
  6
Continuous
 62
     0
370
     0
100
AcDbMText
 10
0.0
 20
2.3874608764
 30
0.0
 40
1.8520833333
 41
0.0
 71
     1
 72
     1
  1
DIMENSIONS ARE MILLIMETERS
  7
SLDTEXTSTYLE6
 73
     1
 44
1.0
  0
MTEXT
  5
1F9
330
1F5
100
AcDbEntity
  8
0
  6
Continuous
 62
     0
370
     0
100
AcDbMText
 10
0.0
 20
-0.0819835382
 30
0.0
 40
1.8520833333
 41
0.0
 71
     1
 72
     1
  1
TOLERANCES:  SEE F/D
  7
SLDTEXTSTYLE6
 73
     1
 44
1.0
  0
MTEXT
  5
1FA
330
1F5
100
AcDbEntity
  8
0
  6
Continuous
 62
     0
370
     0
100
AcDbMText
 10
0.0
 20
-2.5514279528
 30
0.0
 40
1.8520833333
 41
0.0
 71
     1
 72
     1
  1
DO NOT SCALE THIS DRAWING
  7
SLDTEXTSTYLE6
 73
     1
 44
1.0
  0
ENDBLK
  5
1F7
330
1F5
100
AcDbEntity
  8
0
100
AcDbBlockEnd
  0
BLOCK
  5
200
330
1FF
100
AcDbEntity
  8
0
100
AcDbBlockBegin
  2
SW_NOTE_4
 70
     0
 10
0.0
 20
0.0
 30
0.0
  3
SW_NOTE_4
  1

  0
MTEXT
  5
202
330
1FF
100
AcDbEntity
  8
SLD-0
 62
     0
100
AcDbMText
 10
0.0
 20
2.3874608764
 30
0.0
 40
1.8520833333
 41
0.0
 71
     1
 72
     1
  1
INTERPRET GEOMETRIC DIMENSIONING
  7
SLDTEXTSTYLE6
 73
     1
 44
1.0
  0
MTEXT
  5
203
330
1FF
100
AcDbEntity
  8
SLD-0
 62
     0
100
AcDbMText
 10
0.0
 20
-1.0819834693
 30
0.0
 40
1.8520833333
 41
0.0
 71
     1
 72
     1
  1
AND TOLERANCING PER ASME Y14.5M-2009
  7
SLDTEXTSTYLE6
 73
     1
 44
1.0
  0
ENDBLK
  5
201
330
1FF
100
AcDbEntity
  8
0
100
AcDbBlockEnd
  0
BLOCK
  5
20C
330
20B
100
AcDbEntity
  8
0
100
AcDbBlockBegin
  2
_D
 70
     0
 10
0.0
 20
0.0
 30
0.0
  3
_D
  1

  0
SOLID
  5
20E
330
20B
100
AcDbEntity
  8
SLD-0
100
AcDbTrace
 10
217.2557532468
 20
205.0934545455
 30
0.0
 11
216.7477532468
 21
201.7914545455
 31
0.0
 12
217.7637532468
 22
201.7914545455
 32
0.0
 13
217.7637532468
 23
201.7914545455
 33
0.0
  0
SOLID
  5
20F
330
20B
100
AcDbEntity
  8
SLD-0
100
AcDbTrace
 10
217.2557532468
 20
90.7934545455
 30
0.0
 11
217.7637532468
 21
94.0954545455
 31
0.0
 12
216.7477532468
 22
94.0954545455
 32
0.0
 13
216.7477532468
 23
94.0954545455
 33
0.0
  0
LINE
  5
210
330
20B
100
AcDbEntity
  8
SLD-0
100
AcDbLine
 10
208.2557532468
 20
205.0934545455
 30
0.0
 11
218.2557532468
 21
205.0934545455
 31
0.0
  0
LINE
  5
211
330
20B
100
AcDbEntity
  8
SLD-0
100
AcDbLine
 10
208.2557532468
 20
90.7934545455
 30
0.0
 11
218.2557532468
 21
90.7934545455
 31
0.0
  0
LINE
  5
212
330
20B
100
AcDbEntity
  8
SLD-0
100
AcDbLine
 10
217.2557532468
 20
205.0934545455
 30
0.0
 11
217.2557532468
 21
90.7934545455
 31
0.0
  0
MTEXT
  5
213
330
20B
100
AcDbEntity
  8
SLD-0
100
AcDbMText
 10
212.7440163322
 20
129.5632170799
 30
0.0
 40
3.5
 41
0.0
 71
     1
 72
     1
  1
114.30
  7
SLDTEXTSTYLE1
 11
-7.044195017643634E-15
 21
1.0
 31
0.0
 73
     1
 44
1.0
  0
MTEXT
  5
214
330
20B
100
AcDbEntity
  8
SLD-0
100
AcDbMText
 10
212.7440163322
 20
145.0993289935
 30
0.0
 40
3.5
 41
0.0
 71
     1
 72
     1
  1
0.20
  7
SLDTEXTSTYLE1
 11
-7.044195017643634E-15
 21
1.0
 31
0.0
 73
     1
 44
1.0
  0
ENDBLK
  5
20D
330
20B
100
AcDbEntity
  8
0
100
AcDbBlockEnd
  0
BLOCK
  5
218
330
217
100
AcDbEntity
  8
0
100
AcDbBlockBegin
  2
_D_1
 70
     0
 10
0.0
 20
0.0
 30
0.0
  3
_D_1
  1

  0
SOLID
  5
21A
330
217
100
AcDbEntity
  8
SLD-0
100
AcDbTrace
 10
207.2557532468
 20
215.0934545455
 30
0.0
 11
210.5577532468
 21
214.5854545455
 31
0.0
 12
210.5577532468
 22
215.6014545455
 32
0.0
 13
210.5577532468
 23
215.6014545455
 33
0.0
  0
SOLID
  5
21B
330
217
100
AcDbEntity
  8
SLD-0
100
AcDbTrace
 10
188.2057532468
 20
215.0934545455
 30
0.0
 11
184.9037532468
 21
215.6014545455
 31
0.0
 12
184.9037532468
 22
214.5854545455
 32
0.0
 13
184.9037532468
 23
214.5854545455
 33
0.0
  0
LINE
  5
21C
330
217
100
AcDbEntity
  8
SLD-0
100
AcDbLine
 10
207.2557532468
 20
206.0934545455
 30
0.0
 11
207.2557532468
 21
216.0934545455
 31
0.0
  0
LINE
  5
21D
330
217
100
AcDbEntity
  8
SLD-0
100
AcDbLine
 10
188.2057532468
 20
206.0934545455
 30
0.0
 11
188.2057532468
 21
216.0934545455
 31
0.0
  0
LINE
  5
21E
330
217
100
AcDbEntity
  8
SLD-0
100
AcDbLine
 10
207.2557532468
 20
215.0934545455
 30
0.0
 11
213.6057532468
 21
215.0934545455
 31
0.0
  0
LINE
  5
21F
330
217
100
AcDbEntity
  8
SLD-0
100
AcDbLine
 10
207.2557532468
 20
215.0934545455
 30
0.0
 11
188.2057532468
 21
215.0934545455
 31
0.0
  0
LINE
  5
220
330
217
100
AcDbEntity
  8
SLD-0
100
AcDbLine
 10
188.2057532468
 20
215.0934545455
 30
0.0
 11
181.8557532468
 21
215.0934545455
 31
0.0
  0
MTEXT
  5
221
330
217
100
AcDbEntity
  8
SLD-0
100
AcDbMText
 10
184.7322941087
 20
219.60519146
 30
0.0
 40
3.5
 41
0.0
 71
     1
 72
     1
  1
19.05
  7
SLDTEXTSTYLE1
 73
     1
 44
1.0
  0
MTEXT
  5
222
330
217
100
AcDbEntity
  8
SLD-0
100
AcDbMText
 10
197.682294596
 20
219.60519146
 30
0.0
 40
3.5
 41
0.0
 71
     1
 72
     1
  1
0.20
  7
SLDTEXTSTYLE1
 73
     1
 44
1.0
  0
ENDBLK
  5
219
330
217
100
AcDbEntity
  8
0
100
AcDbBlockEnd
  0
BLOCK
  5
22A
330
229
100
AcDbEntity
  8
0
100
AcDbBlockBegin
  2
_D_2
 70
     0
 10
0.0
 20
0.0
 30
0.0
  3
_D_2
  1

  0
ARC
  5
22C
330
229
100
AcDbEntity
  8
SLD-0
100
AcDbCircle
 10
272.052232442
 20
84.5571831873
 30
0.0
 40
6.2120763399956
100
AcDbArc
 50
153.4349488229
 51
206.5650511771
  0
ARC
  5
22D
330
229
100
AcDbEntity
  8
SLD-0
100
AcDbCircle
 10
269.9911215208
 20
84.5571831873
 30
0.0
 40
6.2120763399956
100
AcDbArc
 50
333.4349488229
 51
26.5650511771
  0
SOLID
  5
22E
330
229
100
AcDbEntity
  8
SLD-0
100
AcDbTrace
 10
257.9507124115
 20
81.7790581918
 30
0.0
 11
254.6487124115
 21
82.2870581918
 31
0.0
 12
254.6487124115
 22
81.2710581918
 32
0.0
 13
254.6487124115
 23
81.2710581918
 33
0.0
  0
SOLID
  5
22F
330
229
100
AcDbEntity
  8
SLD-0
100
AcDbTrace
 10
258.7507124115
 20
81.7790581918
 30
0.0
 11
262.0527124115
 21
81.2710581918
 31
0.0
 12
262.0527124115
 22
82.2870581918
 32
0.0
 13
262.0527124115
 23
82.2870581918
 33
0.0
  0
LINE
  5
230
330
229
100
AcDbEntity
  8
SLD-0
100
AcDbLine
 10
257.9507124115
 20
89.7934545455
 30
0.0
 11
257.9507124115
 21
80.7790581918
 31
0.0
  0
LINE
  5
231
330
229
100
AcDbEntity
  8
SLD-0
100
AcDbLine
 10
258.7507124115
 20
89.7934545455
 30
0.0
 11
258.7507124115
 21
80.7790581918
 31
0.0
  0
LINE
  5
232
330
229
100
AcDbEntity
  8
SLD-0
100
AcDbLine
 10
257.9507124115
 20
81.7790581918
 30
0.0
 11
251.6007124115
 21
81.7790581918
 31
0.0
  0
LINE
  5
233
330
229
100
AcDbEntity
  8
SLD-0
100
AcDbLine
 10
257.9507124115
 20
81.7790581918
 30
0.0
 11
258.7507124115
 21
81.7790581918
 31
0.0
  0
LINE
  5
234
330
229
100
AcDbEntity
  8
SLD-0
100
AcDbLine
 10
258.7507124115
 20
81.7790581918
 30
0.0
 11
276.2031975184
 21
81.7790581918
 31
0.0
  0
MTEXT
  5
235
330
229
100
AcDbEntity
  8
SLD-0
100
AcDbMText
 10
266.495982451
 20
86.2907951063
 30
0.0
 40
3.5
 41
0.0
 71
     1
 72
     1
  1
0.80
  7
SLDTEXTSTYLE1
 73
     1
 44
1.0
  0
ENDBLK
  5
22B
330
229
100
AcDbEntity
  8
0
100
AcDbBlockEnd
  0
BLOCK
  5
293
330
292
100
AcDbEntity
  8
0
100
AcDbBlockBegin
  2
SW_NOTE_5
 70
     0
 10
0.0
 20
0.0
 30
0.0
  3
SW_NOTE_5
  1

  0
MTEXT
  5
295
330
292
100
AcDbEntity
  8
0
  6
Continuous
 62
     0
370
     0
100
AcDbMText
 10
0.0
 20
2.7285267159
 30
0.0
 40
2.1166666667
 41
0.0
 71
     1
 72
     1
  1
The information contained in this drawing
  7
SLDTEXTSTYLE6
 73
     1
 44
1.0
  0
MTEXT
  5
296
330
292
100
AcDbEntity
  8
0
  6
Continuous
 62
     0
370
     0
100
AcDbMText
 10
0.0
 20
-0.0936954723
 30
0.0
 40
2.1166666667
 41
0.0
 71
     1
 72
     1
  1
is the sole property of Flex Inc.
  7
SLDTEXTSTYLE6
 73
     1
 44
1.0
  0
MTEXT
  5
297
330
292
100
AcDbEntity
  8
0
  6
Continuous
 62
     0
370
     0
100
AcDbMText
 10
0.0
 20
-2.9159176604
 30
0.0
 40
2.1166666667
 41
0.0
 71
     1
 72
     1
  1
Any reproduction in part or as a whole,
  7
SLDTEXTSTYLE6
 73
     1
 44
1.0
  0
MTEXT
  5
298
330
292
100
AcDbEntity
  8
0
  6
Continuous
 62
     0
370
     0
100
AcDbMText
 10
0.0
 20
-5.7381398485
 30
0.0
 40
2.1166666667
 41
0.0
 71
     1
 72
     1
  1
without the written permission of Flex, Inc.,
  7
SLDTEXTSTYLE6
 73
     1
 44
1.0
  0
MTEXT
  5
299
330
292
100
AcDbEntity
  8
0
  6
Continuous
 62
     0
370
     0
100
AcDbMText
 10
0.0
 20
-8.5603620366
 30
0.0
 40
2.1166666667
 41
0.0
 71
     1
 72
     1
  1
is prohibited.
  7
SLDTEXTSTYLE6
 73
     1
 44
1.0
  0
ENDBLK
  5
294
330
292
100
AcDbEntity
  8
0
100
AcDbBlockEnd
  0
BLOCK
  5
29D
330
29C
100
AcDbEntity
  8
0
100
AcDbBlockBegin
  2
SW_NOTE_6
 70
     0
 10
0.0
 20
0.0
 30
0.0
  3
SW_NOTE_6
  1

  0
MTEXT
  5
29F
330
29C
100
AcDbEntity
  8
0
  6
Continuous
 62
     0
370
     0
100
AcDbMText
 10
0.0
 20
2.7285267159
 30
0.0
 40
2.1166666667
 41
0.0
 71
     1
 72
     1
  1
FILENAME:
  7
SLDTEXTSTYLE6
 73
     1
 44
1.0
  0
MTEXT
  5
2A0
330
29C
100
AcDbEntity
  8
0
  6
Continuous
 62
     0
370
     0
100
AcDbMText
 10
14.4820176065
 20
2.7050082015
 30
0.0
 40
2.1166666667
 41
0.0
 71
     1
 72
     1
  1
MCH-00002535-000
  7
SLDTEXTSTYLE1
 73
     1
 44
1.0
  0
ENDBLK
  5
29E
330
29C
100
AcDbEntity
  8
0
100
AcDbBlockEnd
  0
BLOCK
  5
2AC
330
2AB
100
AcDbEntity
  8
0
100
AcDbBlockBegin
  2
SW_NOTE_7
 70
     0
 10
0.0
 20
0.0
 30
0.0
  3
SW_NOTE_7
  1

  0
MTEXT
  5
2AE
330
2AB
100
AcDbEntity
  8
SLD-0
 62
     0
100
AcDbMText
 10
0.0
 20
4.5117370892
 30
0.0
 40
3.5
 41
0.0
 71
     1
 72
     1
  1
BATTERY ADHESSIVE STRIP,
  7
SLDTEXTSTYLE1
 73
     1
 44
1.0
  0
MTEXT
  5
2AF
330
2AB
100
AcDbEntity
  8
SLD-0
 62
     0
100
AcDbMText
 10
0.0
 20
0.0117372829
 30
0.0
 40
3.5
 41
0.0
 71
     1
 72
     1
  1
5930P .75IN X 4.5
  7
SLDTEXTSTYLE1
 73
     1
 44
1.0
  0
ENDBLK
  5
2AD
330
2AB
100
AcDbEntity
  8
0
100
AcDbBlockEnd
  0
BLOCK
  5
2B5
330
2B4
100
AcDbEntity
  8
0
100
AcDbBlockBegin
  2
SW_NOTE_8
 70
     0
 10
0.0
 20
0.0
 30
0.0
  3
SW_NOTE_8
  1

  0
MTEXT
  5
2B7
330
2B4
100
AcDbEntity
  8
0
  6
Continuous
 62
     0
370
     0
100
AcDbMText
 10
0.0
 20
2.3874608764
 30
0.0
 40
1.8520833333
 41
0.0
 71
     1
 72
     1
  1
DIMENSIONS ARE MILLIMETERS [IN.]
  7
SLDTEXTSTYLE6
 73
     1
 44
1.0
  0
MTEXT
  5
2B8
330
2B4
100
AcDbEntity
  8
0
  6
Continuous
 62
     0
370
     0
100
AcDbMText
 10
0.0
 20
-0.0819835382
 30
0.0
 40
1.8520833333
 41
0.0
 71
     1
 72
     1
  1
TOLERANCES:  SEE F/D
  7
SLDTEXTSTYLE6
 73
     1
 44
1.0
  0
MTEXT
  5
2B9
330
2B4
100
AcDbEntity
  8
0
  6
Continuous
 62
     0
370
     0
100
AcDbMText
 10
0.0
 20
-2.5514279528
 30
0.0
 40
1.8520833333
 41
0.0
 71
     1
 72
     1
  1
DO NOT SCALE THIS DRAWING
  7
SLDTEXTSTYLE6
 73
     1
 44
1.0
  0
ENDBLK
  5
2B6
330
2B4
100
AcDbEntity
  8
0
100
AcDbBlockEnd
  0
BLOCK
  5
2BF
330
2BE
100
AcDbEntity
  8
0
100
AcDbBlockBegin
  2
SW_NOTE_9
 70
     0
 10
0.0
 20
0.0
 30
0.0
  3
SW_NOTE_9
  1

  0
MTEXT
  5
2C1
330
2BE
100
AcDbEntity
  8
SLD-0
 62
     0
100
AcDbMText
 10
0.0
 20
2.3874608764
 30
0.0
 40
1.8520833333
 41
0.0
 71
     1
 72
     1
  1
INTERPRET GEOMETRIC DIMENSIONING
  7
SLDTEXTSTYLE6
 73
     1
 44
1.0
  0
MTEXT
  5
2C2
330
2BE
100
AcDbEntity
  8
SLD-0
 62
     0
100
AcDbMText
 10
0.0
 20
-1.0819834693
 30
0.0
 40
1.8520833333
 41
0.0
 71
     1
 72
     1
  1
AND TOLERANCING PER ASME Y14.5M-2009
  7
SLDTEXTSTYLE6
 73
     1
 44
1.0
  0
ENDBLK
  5
2C0
330
2BE
100
AcDbEntity
  8
0
100
AcDbBlockEnd
  0
ENDSEC
  0
SECTION
  2
ENTITIES
  0
LINE
  5
174
330
1F
100
AcDbEntity
  8
0
  6
Continuous
 62
     7
370
     0
100
AcDbLine
 10
15.9067907574
 20
270.3086585366
 30
0.0
 11
415.9567907574
 21
270.3086585366
 31
0.0
  0
LINE
  5
175
330
1F
100
AcDbEntity
  8
0
  6
Continuous
 62
     7
370
     0
100
AcDbLine
 10
15.9067907574
 20
270.3086585366
 30
0.0
 11
15.9067907574
 21
9.9586585366
 31
0.0
  0
LINE
  5
176
330
1F
100
AcDbEntity
  8
0
  6
Continuous
 62
     7
370
     0
100
AcDbLine
 10
415.9567907574
 20
9.9586585366
 30
0.0
 11
15.9067907574
 21
9.9586585366
 31
0.0
  0
LINE
  5
177
330
1F
100
AcDbEntity
  8
0
  6
Continuous
 62
     7
370
     0
100
AcDbLine
 10
415.9567907574
 20
9.9586585366
 30
0.0
 11
415.9567907574
 21
270.3086585366
 31
0.0
  0
LINE
  5
178
330
1F
100
AcDbEntity
  8
0
  6
Continuous
 62
     7
370
     0
100
AcDbLine
 10
415.9567907574
 20
205.1124212398
 30
0.0
 11
419.1317907574
 21
205.1124212398
 31
0.0
  0
LINE
  5
179
330
1F
100
AcDbEntity
  8
0
  6
Continuous
 62
     7
370
     0
100
AcDbLine
 10
415.9567907574
 20
140.0249212398
 30
0.0
 11
419.1317907574
 21
140.0249212398
 31
0.0
  0
LINE
  5
17A
330
1F
100
AcDbEntity
  8
0
  6
Continuous
 62
     7
370
     0
100
AcDbLine
 10
415.9567907574
 20
140.0249212398
 30
0.0
 11
417.6631990566
 21
140.6347663616
 31
0.0
  0
LINE
  5
17B
330
1F
100
AcDbEntity
  8
0
  6
Continuous
 62
     7
370
     0
100
AcDbLine
 10
415.9567907574
 20
140.0249212398
 30
0.0
 11
417.6631990566
 21
139.4514266928
 31
0.0
  0
LINE
  5
17C
330
1F
100
AcDbEntity
  8
0
  6
Continuous
 62
     7
370
     0
100
AcDbLine
 10
417.6631990566
 20
140.6347663616
 30
0.0
 11
417.6631990566
 21
139.4514266928
 31
0.0
  0
LINE
  5
17D
330
1F
100
AcDbEntity
  8
0
  6
Continuous
 62
     7
370
     0
100
AcDbLine
 10
415.9567907574
 20
140.0249212398
 30
0.0
 11
417.6631990566
 21
140.2544904611
 31
0.0
  0
LINE
  5
17E
330
1F
100
AcDbEntity
  8
0
  6
Continuous
 62
     7
370
     0
100
AcDbLine
 10
415.9567907574
 20
140.0249212398
 30
0.0
 11
417.6631990566
 21
139.7630949914
 31
0.0
  0
LINE
  5
17F
330
1F
100
AcDbEntity
  8
0
  6
Continuous
 62
     7
370
     0
100
AcDbLine
 10
415.9567907574
 20
74.9374212398
 30
0.0
 11
419.1317907574
 21
74.9374212398
 31
0.0
  0
LINE
  5
180
330
1F
100
AcDbEntity
  8
0
  6
Continuous
 62
     7
370
     0
100
AcDbLine
 10
15.9067907574
 20
75.0461585366
 30
0.0
 11
12.7317907574
 21
75.0461585366
 31
0.0
  0
LINE
  5
181
330
1F
100
AcDbEntity
  8
0
  6
Continuous
 62
     7
370
     0
100
AcDbLine
 10
15.9067907574
 20
140.1336585366
 30
0.0
 11
14.2003824582
 21
139.8718322882
 31
0.0
  0
LINE
  5
182
330
1F
100
AcDbEntity
  8
0
  6
Continuous
 62
     7
370
     0
100
AcDbLine
 10
15.9067907574
 20
140.1336585366
 30
0.0
 11
14.2003824582
 21
140.3632277579
 31
0.0
  0
LINE
  5
183
330
1F
100
AcDbEntity
  8
0
  6
Continuous
 62
     7
370
     0
100
AcDbLine
 10
14.2003824582
 20
140.7435036584
 30
0.0
 11
14.2003824582
 21
139.5601639895
 31
0.0
  0
LINE
  5
184
330
1F
100
AcDbEntity
  8
0
  6
Continuous
 62
     7
370
     0
100
AcDbLine
 10
15.9067907574
 20
140.1336585366
 30
0.0
 11
14.2003824582
 21
139.5601639895
 31
0.0
  0
LINE
  5
185
330
1F
100
AcDbEntity
  8
0
  6
Continuous
 62
     7
370
     0
100
AcDbLine
 10
15.9067907574
 20
140.1336585366
 30
0.0
 11
14.2003824582
 21
140.7435036584
 31
0.0
  0
LINE
  5
186
330
1F
100
AcDbEntity
  8
0
  6
Continuous
 62
     7
370
     0
100
AcDbLine
 10
15.9067907574
 20
140.1336585366
 30
0.0
 11
12.7317907574
 21
140.1336585366
 31
0.0
  0
LINE
  5
187
330
1F
100
AcDbEntity
  8
0
  6
Continuous
 62
     7
370
     0
100
AcDbLine
 10
15.9067907574
 20
205.2211585366
 30
0.0
 11
12.7317907574
 21
205.2211585366
 31
0.0
  0
LINE
  5
188
330
1F
100
AcDbEntity
  8
SLD-0
100
AcDbLine
 10
292.900127442
 20
42.3960562379
 30
0.0
 11
292.900127442
 21
9.9586585366
 31
0.0
  0
LINE
  5
189
330
1F
100
AcDbEntity
  8
SLD-0
100
AcDbLine
 10
233.1850707009
 20
32.7224754236
 30
0.0
 11
345.8853028693
 21
32.7224754236
 31
0.0
  0
LINE
  5
18A
330
1F
100
AcDbEntity
  8
0
  6
Continuous
 62
     7
370
     0
100
AcDbLine
 10
345.8853028693
 20
51.6042583659
 30
0.0
 11
345.8853028693
 21
15.3659588565
 31
0.0
  0
LINE
  5
18B
330
1F
100
AcDbEntity
  8
0
  6
Continuous
 62
     7
370
     0
100
AcDbLine
 10
292.900127442
 20
15.3659588565
 30
0.0
 11
415.9567907574
 21
15.3659588565
 31
0.0
  0
LINE
  5
18C
330
1F
100
AcDbEntity
  8
0
  6
Continuous
 62
     7
370
     0
100
AcDbLine
 10
345.8853028693
 20
27.6512278319
 30
0.0
 11
415.9567907574
 21
27.6512278319
 31
0.0
  0
LINE
  5
18D
330
1F
100
AcDbEntity
  8
0
  6
Continuous
 62
     7
370
     0
100
AcDbLine
 10
233.0619314966
 20
42.3960562379
 30
0.0
 11
415.9567907574
 21
42.3960562379
 31
0.0
  0
LINE
  5
18E
330
1F
100
AcDbEntity
  8
0
  6
Continuous
 62
     7
370
     0
100
AcDbLine
 10
355.6413410057
 20
27.6512278319
 30
0.0
 11
355.6413410057
 21
9.9586585366
 31
0.0
  0
LINE
  5
18F
330
1F
100
AcDbEntity
  8
SLD-0
100
AcDbLine
 10
292.900127442
 20
37.5961226916
 30
0.0
 11
345.7554102435
 21
37.5961226916
 31
0.0
  0
LINE
  5
190
330
1F
100
AcDbEntity
  8
0
  6
Continuous
 62
     7
370
     0
100
AcDbLine
 10
403.4654656336
 20
27.6512278319
 30
0.0
 11
403.4654656336
 21
15.3659588565
 31
0.0
  0
LINE
  5
191
330
1F
100
AcDbEntity
  8
SLD-0
 62
     7
370
     0
100
AcDbLine
 10
393.7007746095
 20
15.3659588565
 30
0.0
 11
393.7007746095
 21
9.9586585366
 31
0.0
  0
LINE
  5
192
330
1F
100
AcDbEntity
  8
SLD-0
100
AcDbLine
 10
233.0619314966
 20
42.3960562379
 30
0.0
 11
233.0619314966
 21
9.9586585366
 31
0.0
  0
LINE
  5
193
330
1F
100
AcDbEntity
  8
SLD-0
 62
     7
370
     0
100
AcDbLine
 10
345.8853028693
 20
51.6042583659
 30
0.0
 11
415.9567907574
 21
51.6042583659
 31
0.0
  0
LINE
  5
194
330
1F
100
AcDbEntity
  8
0
  6
Continuous
 62
     7
370
     0
100
AcDbLine
 10
326.5182407361
 20
42.3960562379
 30
0.0
 11
326.5182407361
 21
32.7224754236
 31
0.0
  0
LINE
  5
195
330
1F
100
AcDbEntity
  8
SLD-0
100
AcDbLine
 10
292.900127442
 20
23.2532309372
 30
0.0
 11
345.8853028693
 21
23.2532309372
 31
0.0
  0
LINE
  5
196
330
1F
100
AcDbEntity
  8
0
  6
Continuous
 62
     7
370
     0
100
AcDbLine
 10
365.9441907574
 20
9.9586585366
 30
0.0
 11
365.9441907574
 21
7.8047587093
 31
0.0
  0
LINE
  5
197
330
1F
100
AcDbEntity
  8
0
  6
Continuous
 62
     7
370
     0
100
AcDbLine
 10
315.9379407574
 20
9.9586585366
 30
0.0
 11
315.9379407574
 21
7.8047587093
 31
0.0
  0
LINE
  5
198
330
1F
100
AcDbEntity
  8
0
  6
Continuous
 62
     7
370
     0
100
AcDbLine
 10
265.9316907574
 20
9.9586585366
 30
0.0
 11
265.9316907574
 21
7.8047587093
 31
0.0
  0
LINE
  5
199
330
1F
100
AcDbEntity
  8
0
  6
Continuous
 62
     7
370
     0
100
AcDbLine
 10
215.9254407574
 20
9.9586585366
 30
0.0
 11
215.9254407574
 21
7.8047587093
 31
0.0
  0
LINE
  5
19A
330
1F
100
AcDbEntity
  8
0
  6
Continuous
 62
     7
370
     0
100
AcDbLine
 10
165.9191907574
 20
9.9586585366
 30
0.0
 11
165.9191907574
 21
7.8047587093
 31
0.0
  0
LINE
  5
19B
330
1F
100
AcDbEntity
  8
0
  6
Continuous
 62
     7
370
     0
100
AcDbLine
 10
115.9129407574
 20
9.9586585366
 30
0.0
 11
115.9129407574
 21
7.8047587093
 31
0.0
  0
LINE
  5
19C
330
1F
100
AcDbEntity
  8
0
  6
Continuous
 62
     7
370
     0
100
AcDbLine
 10
65.9066907574
 20
9.9586585366
 30
0.0
 11
65.9066907574
 21
7.8047587093
 31
0.0
  0
LINE
  5
19D
330
1F
100
AcDbEntity
  8
0
  6
Continuous
 62
     7
370
     0
100
AcDbLine
 10
65.9066907574
 20
270.3086585366
 30
0.0
 11
65.9066907574
 21
272.4625583638
 31
0.0
  0
LINE
  5
19E
330
1F
100
AcDbEntity
  8
0
  6
Continuous
 62
     7
370
     0
100
AcDbLine
 10
115.9129407574
 20
270.3086585366
 30
0.0
 11
115.9129407574
 21
272.4625583638
 31
0.0
  0
LINE
  5
19F
330
1F
100
AcDbEntity
  8
0
  6
Continuous
 62
     7
370
     0
100
AcDbLine
 10
165.9191907574
 20
270.3086585366
 30
0.0
 11
165.9191907574
 21
272.4625583638
 31
0.0
  0
LINE
  5
1A0
330
1F
100
AcDbEntity
  8
0
  6
Continuous
 62
     7
370
     0
100
AcDbLine
 10
215.9254407574
 20
270.3086585366
 30
0.0
 11
215.9254407574
 21
272.4625583638
 31
0.0
  0
LINE
  5
1A1
330
1F
100
AcDbEntity
  8
0
  6
Continuous
 62
     7
370
     0
100
AcDbLine
 10
265.9316907574
 20
270.3086585366
 30
0.0
 11
265.9316907574
 21
272.4625583638
 31
0.0
  0
LINE
  5
1A2
330
1F
100
AcDbEntity
  8
0
  6
Continuous
 62
     7
370
     0
100
AcDbLine
 10
315.9379407574
 20
270.3086585366
 30
0.0
 11
315.9379407574
 21
272.4625583638
 31
0.0
  0
LINE
  5
1A3
330
1F
100
AcDbEntity
  8
0
  6
Continuous
 62
     7
370
     0
100
AcDbLine
 10
365.9441907574
 20
270.3086585366
 30
0.0
 11
365.9441907574
 21
272.4625583638
 31
0.0
  0
LINE
  5
1A4
330
1F
100
AcDbEntity
  8
0
  6
Continuous
 62
     7
370
     0
100
AcDbLine
 10
215.9254407574
 20
270.3086585366
 30
0.0
 11
215.5888623736
 21
271.3737387512
 31
0.0
  0
LINE
  5
1A5
330
1F
100
AcDbEntity
  8
0
  6
Continuous
 62
     7
370
     0
100
AcDbLine
 10
215.9254407574
 20
270.3086585366
 30
0.0
 11
216.2443370929
 21
271.3737387512
 31
0.0
  0
LINE
  5
1A6
330
1F
100
AcDbEntity
  8
0
  6
Continuous
 62
     7
370
     0
100
AcDbLine
 10
216.2443370929
 20
271.3737387512
 30
0.0
 11
215.5888623736
 21
271.3737387512
 31
0.0
  0
LINE
  5
1A7
330
1F
100
AcDbEntity
  8
0
  6
Continuous
 62
     7
370
     0
100
AcDbLine
 10
215.7466618431
 20
271.3737387512
 30
0.0
 11
215.9254407574
 21
270.3086585366
 31
0.0
  0
LINE
  5
1A8
330
1F
100
AcDbEntity
  8
0
  6
Continuous
 62
     7
370
     0
100
AcDbLine
 10
216.0501223612
 20
271.3737387512
 30
0.0
 11
215.9254407574
 21
270.3086585366
 31
0.0
  0
LINE
  5
1A9
330
1F
100
AcDbEntity
  8
0
  6
Continuous
 62
     7
370
     0
100
AcDbLine
 10
215.9254407574
 20
9.9586585366
 30
0.0
 11
216.2443370929
 21
9.0805
 31
0.0
  0
LINE
  5
1AA
330
1F
100
AcDbEntity
  8
0
  6
Continuous
 62
     7
370
     0
100
AcDbLine
 10
216.2443370929
 20
9.0805
 30
0.0
 11
215.5888623736
 21
9.0805
 31
0.0
  0
LINE
  5
1AB
330
1F
100
AcDbEntity
  8
0
  6
Continuous
 62
     7
370
     0
100
AcDbLine
 10
215.5888623736
 20
9.0805
 30
0.0
 11
215.9254407574
 21
9.9586585366
 31
0.0
  0
INSERT
  5
1AC
330
1F
100
AcDbEntity
  8
0
  6
Continuous
 62
     7
100
AcDbBlockReference
  2
Block8
 10
348.5091550176
 20
44.9443383742
 30
0.0
  0
INSERT
  5
1AD
330
1F
100
AcDbEntity
  8
0
  6
Continuous
 62
     7
100
AcDbBlockReference
  2
Block9
 10
83.3370141851
 20
3.9864412357
 30
0.0
 41
0.75
 42
0.75
 43
0.75
  0
INSERT
  5
1AE
330
1F
100
AcDbEntity
  8
0
  6
Continuous
 62
     7
100
AcDbBlockReference
  2
Block12
 10
0.0
 20
0.0
 30
0.0
  0
INSERT
  5
1BC
330
1F
100
AcDbEntity
  8
SLD-0
100
AcDbBlockReference
  2
SW_NOTE_0
 10
20.3098817329
 20
258.5900266378
 30
0.0
  0
MTEXT
  5
1BD
330
1F
100
AcDbEntity
  8
0
  6
Continuous
 62
     7
370
     0
100
AcDbMText
 10
418.8794231834
 20
241.0714054433
 30
0.0
 40
2.38125
 41
0.0
 71
     1
 72
     1
  1
D
  7
SLDTEXTSTYLE1
 73
     1
 44
1.0
  0
MTEXT
  5
1BE
330
1F
100
AcDbEntity
  8
0
  6
Continuous
 62
     7
370
     0
100
AcDbMText
 10
418.3680386609
 20
175.3890220962
 30
0.0
 40
2.38125
 41
0.0
 71
     1
 72
     1
  1
C
  7
SLDTEXTSTYLE1
 73
     1
 44
1.0
  0
MTEXT
  5
1BF
330
1F
100
AcDbEntity
  8
0
  6
Continuous
 62
     7
370
     0
100
AcDbMText
 10
419.3915604936
 20
111.2288371218
 30
0.0
 40
2.38125
 41
0.0
 71
     1
 72
     1
  1
B
  7
SLDTEXTSTYLE1
 73
     1
 44
1.0
  0
MTEXT
  5
1C0
330
1F
100
AcDbEntity
  8
0
  6
Continuous
 62
     7
370
     0
100
AcDbMText
 10
418.6448555065
 20
45.0246917692
 30
0.0
 40
2.38125
 41
0.0
 71
     1
 72
     1
  1
A
  7
SLDTEXTSTYLE1
 73
     1
 44
1.0
  0
MTEXT
  5
1C1
330
1F
100
AcDbEntity
  8
0
  6
Continuous
 62
     7
370
     0
100
AcDbMText
 10
10.820652718
 20
44.5985924773
 30
0.0
 40
2.38125
 41
0.0
 71
     1
 72
     1
  1
A
  7
SLDTEXTSTYLE1
 73
     1
 44
1.0
  0
MTEXT
  5
1C2
330
1F
100
AcDbEntity
  8
0
  6
Continuous
 62
     7
370
     0
100
AcDbMText
 10
10.8306039777
 20
111.5884357443
 30
0.0
 40
2.38125
 41
0.0
 71
     1
 72
     1
  1
B
  7
SLDTEXTSTYLE1
 73
     1
 44
1.0
  0
MTEXT
  5
1C3
330
1F
100
AcDbEntity
  8
0
  6
Continuous
 62
     7
370
     0
100
AcDbMText
 10
10.853786142
 20
175.522733138
 30
0.0
 40
2.38125
 41
0.0
 71
     1
 72
     1
  1
C
  7
SLDTEXTSTYLE1
 73
     1
 44
1.0
  0
MTEXT
  5
1C4
330
1F
100
AcDbEntity
  8
0
  6
Continuous
 62
     7
370
     0
100
AcDbMText
 10
10.8867061911
 20
240.2217030242
 30
0.0
 40
2.38125
 41
0.0
 71
     1
 72
     1
  1
D
  7
SLDTEXTSTYLE1
 73
     1
 44
1.0
  0
MTEXT
  5
1C5
330
1F
100
AcDbEntity
  8
0
  6
Continuous
 62
     7
370
     0
100
AcDbMText
 10
391.3712451301
 20
7.7719937363
 30
0.0
 40
3.5
 41
0.0
 71
     1
 72
     1
  1
1
  7
SLDTEXTSTYLE1
 73
     1
 44
1.0
  0
MTEXT
  5
1C6
330
1F
100
AcDbEntity
  8
0
  6
Continuous
 62
     7
370
     0
100
AcDbMText
 10
339.1483381356
 20
8.0530986624
 30
0.0
 40
3.5
 41
0.0
 71
     1
 72
     1
  1
2
  7
SLDTEXTSTYLE1
 73
     1
 44
1.0
  0
MTEXT
  5
1C7
330
1F
100
AcDbEntity
  8
0
  6
Continuous
 62
     7
370
     0
100
AcDbMText
 10
289.020766442
 20
8.0322719099
 30
0.0
 40
3.5
 41
0.0
 71
     1
 72
     1
  1
3
  7
SLDTEXTSTYLE1
 73
     1
 44
1.0
  0
MTEXT
  5
1C8
330
1F
100
AcDbEntity
  8
0
  6
Continuous
 62
     7
370
     0
100
AcDbMText
 10
240.541173263
 20
8.0857279275
 30
0.0
 40
3.5
 41
0.0
 71
     1
 72
     1
  1
4
  7
SLDTEXTSTYLE1
 73
     1
 44
1.0
  0
MTEXT
  5
1C9
330
1F
100
AcDbEntity
  8
0
  6
Continuous
 62
     7
370
     0
100
AcDbMText
 10
190.1219351105
 20
7.8888951884
 30
0.0
 40
2.38125
 41
0.0
 71
     1
 72
     1
  1
5
  7
SLDTEXTSTYLE1
 73
     1
 44
1.0
  0
MTEXT
  5
1CA
330
1F
100
AcDbEntity
  8
0
  6
Continuous
 62
     7
370
     0
100
AcDbMText
 10
140.1781610596
 20
7.9668476272
 30
0.0
 40
2.38125
 41
0.0
 71
     1
 72
     1
  1
6
  7
SLDTEXTSTYLE1
 73
     1
 44
1.0
  0
MTEXT
  5
1CB
330
1F
100
AcDbEntity
  8
0
  6
Continuous
 62
     7
370
     0
100
AcDbMText
 10
90.3586375544
 20
7.9568297864
 30
0.0
 40
2.38125
 41
0.0
 71
     1
 72
     1
  1
7
  7
SLDTEXTSTYLE1
 73
     1
 44
1.0
  0
MTEXT
  5
1CC
330
1F
100
AcDbEntity
  8
0
  6
Continuous
 62
     7
370
     0
100
AcDbMText
 10
38.7800710995
 20
7.9492539073
 30
0.0
 40
2.38125
 41
0.0
 71
     1
 72
     1
  1
8
  7
SLDTEXTSTYLE1
 73
     1
 44
1.0
  0
MTEXT
  5
1CD
330
1F
100
AcDbEntity
  8
0
  6
Continuous
 62
     7
370
     0
100
AcDbMText
 10
38.3308572712
 20
275.1200557166
 30
0.0
 40
2.38125
 41
0.0
 71
     1
 72
     1
  1
8
  7
SLDTEXTSTYLE1
 73
     1
 44
1.0
  0
MTEXT
  5
1CE
330
1F
100
AcDbEntity
  8
0
  6
Continuous
 62
     7
370
     0
100
AcDbMText
 10
90.1950704946
 20
275.0478953561
 30
0.0
 40
2.38125
 41
0.0
 71
     1
 72
     1
  1
7
  7
SLDTEXTSTYLE1
 73
     1
 44
1.0
  0
MTEXT
  5
1CF
330
1F
100
AcDbEntity
  8
0
  6
Continuous
 62
     7
370
     0
100
AcDbMText
 10
139.6666672272
 20
275.2534126814
 30
0.0
 40
2.38125
 41
0.0
 71
     1
 72
     1
  1
6
  7
SLDTEXTSTYLE1
 73
     1
 44
1.0
  0
MTEXT
  5
1D0
330
1F
100
AcDbEntity
  8
0
  6
Continuous
 62
     7
370
     0
100
AcDbMText
 10
189.9588449211
 20
275.2670412387
 30
0.0
 40
2.38125
 41
0.0
 71
     1
 72
     1
  1
5
  7
SLDTEXTSTYLE1
 73
     1
 44
1.0
  0
MTEXT
  5
1D1
330
1F
100
AcDbEntity
  8
0
  6
Continuous
 62
     7
370
     0
100
AcDbMText
 10
240.3931876138
 20
275.2256559205
 30
0.0
 40
2.38125
 41
0.0
 71
     1
 72
     1
  1
4
  7
SLDTEXTSTYLE1
 73
     1
 44
1.0
  0
MTEXT
  5
1D2
330
1F
100
AcDbEntity
  8
0
  6
Continuous
 62
     7
370
     0
100
AcDbMText
 10
290.3912938678
 20
275.0698655016
 30
0.0
 40
2.38125
 41
0.0
 71
     1
 72
     1
  1
3
  7
SLDTEXTSTYLE1
 73
     1
 44
1.0
  0
MTEXT
  5
1D3
330
1F
100
AcDbEntity
  8
0
  6
Continuous
 62
     7
370
     0
100
AcDbMText
 10
340.3852725955
 20
275.2395343009
 30
0.0
 40
2.38125
 41
0.0
 71
     1
 72
     1
  1
2
  7
SLDTEXTSTYLE1
 73
     1
 44
1.0
  0
MTEXT
  5
1D4
330
1F
100
AcDbEntity
  8
0
  6
Continuous
 62
     7
370
     0
100
AcDbMText
 10
391.8558838139
 20
275.083743882
 30
0.0
 40
2.38125
 41
0.0
 71
     1
 72
     1
  1
1
  7
SLDTEXTSTYLE1
 73
     1
 44
1.0
  0
INSERT
  5
1DE
330
1F
100
AcDbEntity
  8
0
  6
Continuous
 62
     7
370
     0
100
AcDbBlockReference
  2
SW_NOTE_1
 10
235.3337800114
 20
23.4176594801
 30
0.0
  0
MTEXT
  5
1DF
330
1F
100
AcDbEntity
  8
0
  6
Continuous
 62
     7
370
     0
100
AcDbMText
 10
239.1274867659
 20
30.7075849317
 30
0.0
 40
2.1166666667
 41
0.0
 71
     1
 72
     1
  1
PROPRIETARY AND CONFIDENTIAL
  7
SLDTEXTSTYLE1
 73
     1
 44
1.0
  0
MTEXT
  5
1E0
330
1F
100
AcDbEntity
  8
0
  6
Continuous
 62
     7
370
     0
100
AcDbMText
 10
295.3669975841
 20
13.3200342382
 30
0.0
 40
2.1166666667
 41
0.0
 71
     1
 72
     1
  1
FILENAME: MCH-00002535-000
  7
SLDTEXTSTYLE6
 73
     1
 44
1.0
  0
MTEXT
  5
1E1
330
1F
100
AcDbEntity
  8
0
  6
Continuous
 62
     7
370
     0
100
AcDbMText
 10
332.5211137291
 20
41.3434271308
 30
0.0
 40
2.1166666667
 41
0.0
 71
     1
 72
     1
  1
Date
  7
SLDTEXTSTYLE1
 73
     1
 44
1.0
  0
MTEXT
  5
1E2
330
1F
100
AcDbEntity
  8
0
  6
Continuous
 62
     7
370
     0
100
AcDbMText
 10
296.7630656129
 20
41.3434271308
 30
0.0
 40
2.1166666667
 41
0.0
 71
     1
 72
     1
  1
Designer/Engineer
  7
SLDTEXTSTYLE1
 73
     1
 44
1.0
  0
MTEXT
  5
1E3
330
1F
100
AcDbEntity
  8
0
  6
Continuous
 62
     7
370
     0
100
AcDbMText
 10
363.800620014
 20
49.2741910187
 30
0.0
 40
4.2333333333
 41
0.0
 71
     1
 72
     1
  1
Innovation Labs
  7
SLDTEXTSTYLE1
 73
     1
 44
1.0
  0
MTEXT
  5
1E4
330
1F
100
AcDbEntity
  8
0
  6
Continuous
 62
     7
370
     0
100
AcDbMText
 10
349.1006517996
 20
40.5795883749
 30
0.0
 40
2.1166666667
 41
0.0
 71
     1
 72
     1
  1
TITLE:
  7
SLDTEXTSTYLE1
 73
     1
 44
1.0
  0
MTEXT
  5
1E5
330
1F
100
AcDbEntity
  8
0
  6
Continuous
 62
     7
370
     0
100
AcDbMText
 10
348.8415109904
 20
26.6045697452
 30
0.0
 40
2.1166666667
 41
0.0
 71
     1
 72
     1
  1
SIZE
  7
SLDTEXTSTYLE1
 73
     1
 44
1.0
  0
MTEXT
  5
1E6
330
1F
100
AcDbEntity
  8
0
  6
Continuous
 62
     7
370
     0
100
AcDbMText
 10
349.8302074594
 20
22.0592993897
 30
0.0
 40
3.7041666667
 41
0.0
 71
     1
 72
     1
  1
B
  7
SLDTEXTSTYLE1
 73
     1
 44
1.0
  0
MTEXT
  5
1E8
330
1F
100
AcDbEntity
  8
0
  6
Continuous
 62
     7
370
     0
100
AcDbMText
 10
358.1938447071
 20
26.6045697452
 30
0.0
 40
2.1166666667
 41
0.0
 71
     1
 72
     1
  1
PART  NO.
  7
SLDTEXTSTYLE7
 73
     1
 44
1.0
  0
MTEXT
  5
1E9
330
1F
100
AcDbEntity
  8
0
  6
Continuous
 62
     7
370
     0
100
AcDbMText
 10
406.3406725024
 20
26.6045697452
 30
0.0
 40
2.1166666667
 41
0.0
 71
     1
 72
     1
  1
REV
  7
SLDTEXTSTYLE1
 73
     1
 44
1.0
  0
MTEXT
  5
1EA
330
1F
100
AcDbEntity
  8
0
  6
Continuous
 62
     7
370
     0
100
AcDbMText
 10
367.4710195503
 20
13.32003418
 30
0.0
 40
2.1166666667
 41
0.0
 71
     1
 72
     1
  1
SCALE: 1:1
  7
SLDTEXTSTYLE1
 73
     1
 44
1.0
  0
INSERT
  5
1F0
330
1F
100
AcDbEntity
  8
SLD-0
100
AcDbBlockReference
  2
SW_NOTE_2
 10
355.1503088338
 20
32.9659497875
 30
0.0
  0
MTEXT
  5
1F1
330
1F
100
AcDbEntity
  8
SLD-0
100
AcDbMText
 10
359.9605769908
 20
21.895975731
 30
0.0
 40
3.5
 41
0.0
 71
     1
 72
     1
  1
MCH-00002535-000
  7
SLDTEXTSTYLE1
 73
     1
 44
1.0
  0
MTEXT
  5
1F2
330
1F
100
AcDbEntity
  8
SLD-0
100
AcDbMText
 10
406.4885821269
 20
22.0140313447
 30
0.0
 40
3.5
 41
0.0
 71
     1
 72
     1
  1
P1
  7
SLDTEXTSTYLE1
 73
     1
 44
1.0
  0
MTEXT
  5
1F4
330
1F
100
AcDbEntity
  8
SLD-0
100
AcDbMText
 10
397.2610212115
 20
13.32003418
 30
0.0
 40
2.1166666667
 41
0.0
 71
     1
 72
     1
  1
SHEET 1 OF 2
  7
SLDTEXTSTYLE8
 73
     1
 44
1.0
  0
INSERT
  5
1FB
330
1F
100
AcDbEntity
  8
0
  6
Continuous
 62
     7
370
     0
100
AcDbBlockReference
  2
SW_NOTE_3
 10
296.7630656129
 20
28.8894072801
 30
0.0
  0
MTEXT
  5
1FC
330
1F
100
AcDbEntity
  8
SLD-0
100
AcDbMText
 10
296.7630656129
 20
36.2848730811
 30
0.0
 40
1.8520833333
 41
0.0
 71
     1
 72
     1
  1
PETER CHESTER
  7
SLDTEXTSTYLE1
 73
     1
 44
1.0
  0
MTEXT
  5
1FD
330
1F
100
AcDbEntity
  8
SLD-0
100
AcDbMText
 10
330.5778162576
 20
36.5480338454
 30
0.0
 40
2.1166666667
 41
0.0
 71
     1
 72
     1
  1
21JAN2016
  7
SLDTEXTSTYLE1
 73
     1
 44
1.0
  0
MTEXT
  5
1FE
330
1F
100
AcDbEntity
  8
SLD-0
100
AcDbMText
 10
295.3669975841
 20
20.2171741558
 30
0.0
 40
1.8520833333
 41
0.0
 71
     1
 72
     1
  1
THIRD ANGLE PROJECTION
  7
SLDTEXTSTYLE1
 73
     1
 44
1.0
  0
INSERT
  5
204
330
1F
100
AcDbEntity
  8
SLD-0
 62
     7
100
AcDbBlockReference
  2
SW_NOTE_4
 10
237.4631801604
 20
37.7715949382
 30
0.0
  0
LINE
  5
205
330
1F
100
AcDbEntity
  8
0
  6
Continuous
 62
     7
370
    15
100
AcDbLine
 10
207.2557532468
 20
205.0934545455
 30
0.0
 11
188.2057532468
 21
205.0934545455
 31
0.0
  0
LINE
  5
206
330
1F
100
AcDbEntity
  8
0
  6
Continuous
 62
     7
370
    15
100
AcDbLine
 10
207.2557532468
 20
90.7934545455
 30
0.0
 11
207.2557532468
 21
205.0934545455
 31
0.0
  0
LINE
  5
207
330
1F
100
AcDbEntity
  8
0
  6
Continuous
 62
     7
370
    15
100
AcDbLine
 10
188.2057532468
 20
90.7934545455
 30
0.0
 11
207.2557532468
 21
90.7934545455
 31
0.0
  0
LINE
  5
208
330
1F
100
AcDbEntity
  8
0
  6
Continuous
 62
     7
370
    15
100
AcDbLine
 10
188.2057532468
 20
205.0934545455
 30
0.0
 11
188.2057532468
 21
90.7934545455
 31
0.0
  0
DIMENSION
  5
209
330
1F
100
AcDbEntity
  8
SLD-0
100
AcDbDimension
  2
_D
 10
217.2557532468
 20
90.7934545455
 30
0.0
 11
217.2557532468
 21
143.1281483087
 31
0.0
 70
   160
  1
<>
 71
     2
 42
-1.0
  3
SLDDIMSTYLE0
100
AcDbAlignedDimension
 13
207.2557532468
 23
205.0934545455
 33
0.0
 14
207.2557532468
 24
90.7934545455
 34
0.0
 50
90.0
100
AcDbRotatedDimension
  0
DIMENSION
  5
215
330
1F
100
AcDbEntity
  8
SLD-0
100
AcDbDimension
  2
_D_1
 10
188.2057532468
 20
215.0934545455
 30
0.0
 11
197.0041696243
 21
215.0934545455
 31
0.0
 70
   160
  1
<>
 71
     2
 42
-1.0
  3
SLDDIMSTYLE1
100
AcDbAlignedDimension
 13
207.2557532468
 23
205.0934545455
 33
0.0
 14
188.2057532468
 24
205.0934545455
 34
0.0
100
AcDbRotatedDimension
  0
LINE
  5
223
330
1F
100
AcDbEntity
  8
0
  6
Continuous
 62
     7
370
    15
100
AcDbLine
 10
257.9507124115
 20
90.7934545455
 30
0.0
 11
257.9507124115
 21
205.0934545455
 31
0.0
  0
LINE
  5
224
330
1F
100
AcDbEntity
  8
0
  6
Continuous
 62
     7
370
    15
100
AcDbLine
 10
258.7507124115
 20
90.7934545455
 30
0.0
 11
258.7507124115
 21
205.0934545455
 31
0.0
  0
LINE
  5
225
330
1F
100
AcDbEntity
  8
0
  6
Continuous
 62
     7
370
    15
100
AcDbLine
 10
257.9507124115
 20
90.7934545455
 30
0.0
 11
258.7507124115
 21
90.7934545455
 31
0.0
  0
LINE
  5
226
330
1F
100
AcDbEntity
  8
0
  6
Continuous
 62
     7
370
    15
100
AcDbLine
 10
257.9507124115
 20
205.0934545455
 30
0.0
 11
258.7507124115
 21
205.0934545455
 31
0.0
  0
DIMENSION
  5
227
330
1F
100
AcDbEntity
  8
SLD-0
100
AcDbDimension
  2
_D_2
 10
258.7507124115
 20
81.7790581918
 30
0.0
 11
271.0216768068
 21
81.7790581918
 31
0.0
 70
   160
  1
(<>)
 71
     2
 42
-1.0
  3
SLDDIMSTYLE2
100
AcDbAlignedDimension
 13
257.9507124115
 23
90.7934545455
 33
0.0
 14
258.7507124115
 24
90.7934545455
 34
0.0
100
AcDbRotatedDimension
  0
LINE
  5
236
330
1F
100
AcDbEntity
  8
0
  6
Continuous
 62
     7
370
    15
100
AcDbLine
 10
87.8709767799
 20
125.5632955115
 30
0.0
 11
88.4366622049
 21
125.8898587562
 31
0.0
  0
LINE
  5
237
330
1F
100
AcDbEntity
  8
0
  6
Continuous
 62
     7
370
    15
100
AcDbLine
 10
87.8709767799
 20
125.5632955115
 30
0.0
 11
74.4005925983
 21
133.3395827766
 31
0.0
  0
LINE
  5
238
330
1F
100
AcDbEntity
  8
0
  6
Continuous
 62
     7
370
    15
100
AcDbLine
 10
74.4005925983
 20
133.3395827766
 30
0.0
 11
74.9662780233
 21
133.6661460213
 31
0.0
  0
LINE
  5
239
330
1F
100
AcDbEntity
  8
0
  6
Continuous
 62
     7
370
    15
100
AcDbLine
 10
88.4366622049
 20
125.8898587562
 30
0.0
 11
74.9662780233
 21
133.6661460213
 31
0.0
  0
LINE
  5
23A
330
1F
100
AcDbEntity
  8
0
  6
Continuous
 62
     7
370
    15
100
AcDbLine
 10
87.8709767799
 20
32.2326807129
 30
0.0
 11
87.8709767799
 21
125.5632955115
 31
0.0
  0
LINE
  5
23B
330
1F
100
AcDbEntity
  8
0
  6
Continuous
 62
     7
370
    15
100
AcDbLine
 10
74.4005925983
 20
40.0089679781
 30
0.0
 11
87.8709767799
 21
32.2326807129
 31
0.0
  0
LINE
  5
23C
330
1F
100
AcDbEntity
  8
0
  6
Continuous
 62
     7
370
    15
100
AcDbLine
 10
74.4005925983
 20
133.3395827766
 30
0.0
 11
74.4005925983
 21
40.0089679781
 31
0.0
  0
LINE
  5
23D
330
1F
100
AcDbEntity
  8
0
  6
Continuous
 62
     7
370
    15
100
AcDbLine
 10
87.8709767799
 20
32.2326807129
 30
0.0
 11
88.4366622049
 21
32.5592439577
 31
0.0
  0
LINE
  5
23E
330
1F
100
AcDbEntity
  8
0
  6
Continuous
 62
     7
370
    15
100
AcDbLine
 10
88.4366622049
 20
32.5592439577
 30
0.0
 11
88.4366622049
 21
125.8898587562
 31
0.0
  0
LINE
  5
23F
330
1B
100
AcDbEntity
 67
     1
  8
0
  6
Continuous
 62
     7
370
     0
100
AcDbLine
 10
15.9067907574
 20
270.3086585366
 30
0.0
 11
415.9567907574
 21
270.3086585366
 31
0.0
  0
LINE
  5
240
330
1B
100
AcDbEntity
 67
     1
  8
0
  6
Continuous
 62
     7
370
     0
100
AcDbLine
 10
15.9067907574
 20
270.3086585366
 30
0.0
 11
15.9067907574
 21
9.9586585366
 31
0.0
  0
LINE
  5
241
330
1B
100
AcDbEntity
 67
     1
  8
0
  6
Continuous
 62
     7
370
     0
100
AcDbLine
 10
415.9567907574
 20
9.9586585366
 30
0.0
 11
15.9067907574
 21
9.9586585366
 31
0.0
  0
LINE
  5
242
330
1B
100
AcDbEntity
 67
     1
  8
0
  6
Continuous
 62
     7
370
     0
100
AcDbLine
 10
415.9567907574
 20
9.9586585366
 30
0.0
 11
415.9567907574
 21
270.3086585366
 31
0.0
  0
LINE
  5
243
330
1B
100
AcDbEntity
 67
     1
  8
0
  6
Continuous
 62
     7
370
     0
100
AcDbLine
 10
415.9567907574
 20
205.1124212398
 30
0.0
 11
419.1317907574
 21
205.1124212398
 31
0.0
  0
LINE
  5
244
330
1B
100
AcDbEntity
 67
     1
  8
0
  6
Continuous
 62
     7
370
     0
100
AcDbLine
 10
415.9567907574
 20
140.0249212398
 30
0.0
 11
419.1317907574
 21
140.0249212398
 31
0.0
  0
LINE
  5
245
330
1B
100
AcDbEntity
 67
     1
  8
0
  6
Continuous
 62
     7
370
     0
100
AcDbLine
 10
415.9567907574
 20
140.0249212398
 30
0.0
 11
417.6631990566
 21
140.6347663616
 31
0.0
  0
LINE
  5
246
330
1B
100
AcDbEntity
 67
     1
  8
0
  6
Continuous
 62
     7
370
     0
100
AcDbLine
 10
415.9567907574
 20
140.0249212398
 30
0.0
 11
417.6631990566
 21
139.4514266928
 31
0.0
  0
LINE
  5
247
330
1B
100
AcDbEntity
 67
     1
  8
0
  6
Continuous
 62
     7
370
     0
100
AcDbLine
 10
417.6631990566
 20
140.6347663616
 30
0.0
 11
417.6631990566
 21
139.4514266928
 31
0.0
  0
LINE
  5
248
330
1B
100
AcDbEntity
 67
     1
  8
0
  6
Continuous
 62
     7
370
     0
100
AcDbLine
 10
415.9567907574
 20
140.0249212398
 30
0.0
 11
417.6631990566
 21
140.2544904611
 31
0.0
  0
LINE
  5
249
330
1B
100
AcDbEntity
 67
     1
  8
0
  6
Continuous
 62
     7
370
     0
100
AcDbLine
 10
415.9567907574
 20
140.0249212398
 30
0.0
 11
417.6631990566
 21
139.7630949914
 31
0.0
  0
LINE
  5
24A
330
1B
100
AcDbEntity
 67
     1
  8
0
  6
Continuous
 62
     7
370
     0
100
AcDbLine
 10
415.9567907574
 20
74.9374212398
 30
0.0
 11
419.1317907574
 21
74.9374212398
 31
0.0
  0
LINE
  5
24B
330
1B
100
AcDbEntity
 67
     1
  8
0
  6
Continuous
 62
     7
370
     0
100
AcDbLine
 10
15.9067907574
 20
75.0461585366
 30
0.0
 11
12.7317907574
 21
75.0461585366
 31
0.0
  0
LINE
  5
24C
330
1B
100
AcDbEntity
 67
     1
  8
0
  6
Continuous
 62
     7
370
     0
100
AcDbLine
 10
15.9067907574
 20
140.1336585366
 30
0.0
 11
14.2003824582
 21
139.8718322882
 31
0.0
  0
LINE
  5
24D
330
1B
100
AcDbEntity
 67
     1
  8
0
  6
Continuous
 62
     7
370
     0
100
AcDbLine
 10
15.9067907574
 20
140.1336585366
 30
0.0
 11
14.2003824582
 21
140.3632277579
 31
0.0
  0
LINE
  5
24E
330
1B
100
AcDbEntity
 67
     1
  8
0
  6
Continuous
 62
     7
370
     0
100
AcDbLine
 10
14.2003824582
 20
140.7435036584
 30
0.0
 11
14.2003824582
 21
139.5601639895
 31
0.0
  0
LINE
  5
24F
330
1B
100
AcDbEntity
 67
     1
  8
0
  6
Continuous
 62
     7
370
     0
100
AcDbLine
 10
15.9067907574
 20
140.1336585366
 30
0.0
 11
14.2003824582
 21
139.5601639895
 31
0.0
  0
LINE
  5
250
330
1B
100
AcDbEntity
 67
     1
  8
0
  6
Continuous
 62
     7
370
     0
100
AcDbLine
 10
15.9067907574
 20
140.1336585366
 30
0.0
 11
14.2003824582
 21
140.7435036584
 31
0.0
  0
LINE
  5
251
330
1B
100
AcDbEntity
 67
     1
  8
0
  6
Continuous
 62
     7
370
     0
100
AcDbLine
 10
15.9067907574
 20
140.1336585366
 30
0.0
 11
12.7317907574
 21
140.1336585366
 31
0.0
  0
LINE
  5
252
330
1B
100
AcDbEntity
 67
     1
  8
0
  6
Continuous
 62
     7
370
     0
100
AcDbLine
 10
15.9067907574
 20
205.2211585366
 30
0.0
 11
12.7317907574
 21
205.2211585366
 31
0.0
  0
LINE
  5
253
330
1B
100
AcDbEntity
 67
     1
  8
SLD-0
100
AcDbLine
 10
292.900127442
 20
42.3960562379
 30
0.0
 11
292.900127442
 21
9.9586585366
 31
0.0
  0
LINE
  5
254
330
1B
100
AcDbEntity
 67
     1
  8
SLD-0
100
AcDbLine
 10
233.1850707009
 20
32.7224754236
 30
0.0
 11
345.8853028693
 21
32.7224754236
 31
0.0
  0
LINE
  5
255
330
1B
100
AcDbEntity
 67
     1
  8
0
  6
Continuous
 62
     7
370
     0
100
AcDbLine
 10
345.8853028693
 20
51.6042583659
 30
0.0
 11
345.8853028693
 21
15.3659588565
 31
0.0
  0
LINE
  5
256
330
1B
100
AcDbEntity
 67
     1
  8
0
  6
Continuous
 62
     7
370
     0
100
AcDbLine
 10
292.900127442
 20
15.3659588565
 30
0.0
 11
415.9567907574
 21
15.3659588565
 31
0.0
  0
LINE
  5
257
330
1B
100
AcDbEntity
 67
     1
  8
0
  6
Continuous
 62
     7
370
     0
100
AcDbLine
 10
345.8853028693
 20
27.6512278319
 30
0.0
 11
415.9567907574
 21
27.6512278319
 31
0.0
  0
LINE
  5
258
330
1B
100
AcDbEntity
 67
     1
  8
0
  6
Continuous
 62
     7
370
     0
100
AcDbLine
 10
233.0619314966
 20
42.3960562379
 30
0.0
 11
415.9567907574
 21
42.3960562379
 31
0.0
  0
LINE
  5
259
330
1B
100
AcDbEntity
 67
     1
  8
0
  6
Continuous
 62
     7
370
     0
100
AcDbLine
 10
355.6413410057
 20
27.6512278319
 30
0.0
 11
355.6413410057
 21
9.9586585366
 31
0.0
  0
LINE
  5
25A
330
1B
100
AcDbEntity
 67
     1
  8
SLD-0
100
AcDbLine
 10
292.900127442
 20
37.5961226916
 30
0.0
 11
345.7554102435
 21
37.5961226916
 31
0.0
  0
LINE
  5
25B
330
1B
100
AcDbEntity
 67
     1
  8
0
  6
Continuous
 62
     7
370
     0
100
AcDbLine
 10
403.4654656336
 20
27.6512278319
 30
0.0
 11
403.4654656336
 21
15.3659588565
 31
0.0
  0
LINE
  5
25C
330
1B
100
AcDbEntity
 67
     1
  8
SLD-0
 62
     7
370
     0
100
AcDbLine
 10
393.7007746095
 20
15.3659588565
 30
0.0
 11
393.7007746095
 21
9.9586585366
 31
0.0
  0
LINE
  5
25D
330
1B
100
AcDbEntity
 67
     1
  8
SLD-0
100
AcDbLine
 10
233.0619314966
 20
42.3960562379
 30
0.0
 11
233.0619314966
 21
9.9586585366
 31
0.0
  0
LINE
  5
25E
330
1B
100
AcDbEntity
 67
     1
  8
SLD-0
 62
     7
370
     0
100
AcDbLine
 10
345.8853028693
 20
51.6042583659
 30
0.0
 11
415.9567907574
 21
51.6042583659
 31
0.0
  0
LINE
  5
25F
330
1B
100
AcDbEntity
 67
     1
  8
0
  6
Continuous
 62
     7
370
     0
100
AcDbLine
 10
326.5182407361
 20
42.3960562379
 30
0.0
 11
326.5182407361
 21
32.7224754236
 31
0.0
  0
LINE
  5
260
330
1B
100
AcDbEntity
 67
     1
  8
SLD-0
100
AcDbLine
 10
292.900127442
 20
23.2532309372
 30
0.0
 11
345.8853028693
 21
23.2532309372
 31
0.0
  0
LINE
  5
261
330
1B
100
AcDbEntity
 67
     1
  8
0
  6
Continuous
 62
     7
370
     0
100
AcDbLine
 10
365.9441907574
 20
9.9586585366
 30
0.0
 11
365.9441907574
 21
7.8047587093
 31
0.0
  0
LINE
  5
262
330
1B
100
AcDbEntity
 67
     1
  8
0
  6
Continuous
 62
     7
370
     0
100
AcDbLine
 10
315.9379407574
 20
9.9586585366
 30
0.0
 11
315.9379407574
 21
7.8047587093
 31
0.0
  0
LINE
  5
263
330
1B
100
AcDbEntity
 67
     1
  8
0
  6
Continuous
 62
     7
370
     0
100
AcDbLine
 10
265.9316907574
 20
9.9586585366
 30
0.0
 11
265.9316907574
 21
7.8047587093
 31
0.0
  0
LINE
  5
264
330
1B
100
AcDbEntity
 67
     1
  8
0
  6
Continuous
 62
     7
370
     0
100
AcDbLine
 10
215.9254407574
 20
9.9586585366
 30
0.0
 11
215.9254407574
 21
7.8047587093
 31
0.0
  0
LINE
  5
265
330
1B
100
AcDbEntity
 67
     1
  8
0
  6
Continuous
 62
     7
370
     0
100
AcDbLine
 10
165.9191907574
 20
9.9586585366
 30
0.0
 11
165.9191907574
 21
7.8047587093
 31
0.0
  0
LINE
  5
266
330
1B
100
AcDbEntity
 67
     1
  8
0
  6
Continuous
 62
     7
370
     0
100
AcDbLine
 10
115.9129407574
 20
9.9586585366
 30
0.0
 11
115.9129407574
 21
7.8047587093
 31
0.0
  0
LINE
  5
267
330
1B
100
AcDbEntity
 67
     1
  8
0
  6
Continuous
 62
     7
370
     0
100
AcDbLine
 10
65.9066907574
 20
9.9586585366
 30
0.0
 11
65.9066907574
 21
7.8047587093
 31
0.0
  0
LINE
  5
268
330
1B
100
AcDbEntity
 67
     1
  8
0
  6
Continuous
 62
     7
370
     0
100
AcDbLine
 10
65.9066907574
 20
270.3086585366
 30
0.0
 11
65.9066907574
 21
272.4625583638
 31
0.0
  0
LINE
  5
269
330
1B
100
AcDbEntity
 67
     1
  8
0
  6
Continuous
 62
     7
370
     0
100
AcDbLine
 10
115.9129407574
 20
270.3086585366
 30
0.0
 11
115.9129407574
 21
272.4625583638
 31
0.0
  0
LINE
  5
26A
330
1B
100
AcDbEntity
 67
     1
  8
0
  6
Continuous
 62
     7
370
     0
100
AcDbLine
 10
165.9191907574
 20
270.3086585366
 30
0.0
 11
165.9191907574
 21
272.4625583638
 31
0.0
  0
LINE
  5
26B
330
1B
100
AcDbEntity
 67
     1
  8
0
  6
Continuous
 62
     7
370
     0
100
AcDbLine
 10
215.9254407574
 20
270.3086585366
 30
0.0
 11
215.9254407574
 21
272.4625583638
 31
0.0
  0
LINE
  5
26C
330
1B
100
AcDbEntity
 67
     1
  8
0
  6
Continuous
 62
     7
370
     0
100
AcDbLine
 10
265.9316907574
 20
270.3086585366
 30
0.0
 11
265.9316907574
 21
272.4625583638
 31
0.0
  0
LINE
  5
26D
330
1B
100
AcDbEntity
 67
     1
  8
0
  6
Continuous
 62
     7
370
     0
100
AcDbLine
 10
315.9379407574
 20
270.3086585366
 30
0.0
 11
315.9379407574
 21
272.4625583638
 31
0.0
  0
LINE
  5
26E
330
1B
100
AcDbEntity
 67
     1
  8
0
  6
Continuous
 62
     7
370
     0
100
AcDbLine
 10
365.9441907574
 20
270.3086585366
 30
0.0
 11
365.9441907574
 21
272.4625583638
 31
0.0
  0
LINE
  5
26F
330
1B
100
AcDbEntity
 67
     1
  8
0
  6
Continuous
 62
     7
370
     0
100
AcDbLine
 10
215.9254407574
 20
270.3086585366
 30
0.0
 11
215.5888623736
 21
271.3737387512
 31
0.0
  0
LINE
  5
270
330
1B
100
AcDbEntity
 67
     1
  8
0
  6
Continuous
 62
     7
370
     0
100
AcDbLine
 10
215.9254407574
 20
270.3086585366
 30
0.0
 11
216.2443370929
 21
271.3737387512
 31
0.0
  0
LINE
  5
271
330
1B
100
AcDbEntity
 67
     1
  8
0
  6
Continuous
 62
     7
370
     0
100
AcDbLine
 10
216.2443370929
 20
271.3737387512
 30
0.0
 11
215.5888623736
 21
271.3737387512
 31
0.0
  0
LINE
  5
272
330
1B
100
AcDbEntity
 67
     1
  8
0
  6
Continuous
 62
     7
370
     0
100
AcDbLine
 10
215.7466618431
 20
271.3737387512
 30
0.0
 11
215.9254407574
 21
270.3086585366
 31
0.0
  0
LINE
  5
273
330
1B
100
AcDbEntity
 67
     1
  8
0
  6
Continuous
 62
     7
370
     0
100
AcDbLine
 10
216.0501223612
 20
271.3737387512
 30
0.0
 11
215.9254407574
 21
270.3086585366
 31
0.0
  0
LINE
  5
274
330
1B
100
AcDbEntity
 67
     1
  8
0
  6
Continuous
 62
     7
370
     0
100
AcDbLine
 10
215.9254407574
 20
9.9586585366
 30
0.0
 11
216.2443370929
 21
9.0805
 31
0.0
  0
LINE
  5
275
330
1B
100
AcDbEntity
 67
     1
  8
0
  6
Continuous
 62
     7
370
     0
100
AcDbLine
 10
216.2443370929
 20
9.0805
 30
0.0
 11
215.5888623736
 21
9.0805
 31
0.0
  0
LINE
  5
276
330
1B
100
AcDbEntity
 67
     1
  8
0
  6
Continuous
 62
     7
370
     0
100
AcDbLine
 10
215.5888623736
 20
9.0805
 30
0.0
 11
215.9254407574
 21
9.9586585366
 31
0.0
  0
INSERT
  5
277
330
1B
100
AcDbEntity
 67
     1
  8
0
  6
Continuous
 62
     7
100
AcDbBlockReference
  2
Block8
 10
348.5091550176
 20
44.9443383742
 30
0.0
  0
INSERT
  5
278
330
1B
100
AcDbEntity
 67
     1
  8
0
  6
Continuous
 62
     7
100
AcDbBlockReference
  2
Block9
 10
83.3370141851
 20
3.9864412357
 30
0.0
 41
0.75
 42
0.75
 43
0.75
  0
INSERT
  5
279
330
1B
100
AcDbEntity
 67
     1
  8
0
  6
Continuous
 62
     7
100
AcDbBlockReference
  2
Block12
 10
0.0
 20
0.0
 30
0.0
  0
MTEXT
  5
27A
330
1B
100
AcDbEntity
 67
     1
  8
0
  6
Continuous
 62
     7
370
     0
100
AcDbMText
 10
418.8794231834
 20
241.0714054433
 30
0.0
 40
2.38125
 41
0.0
 71
     1
 72
     1
  1
D
  7
SLDTEXTSTYLE1
 73
     1
 44
1.0
  0
MTEXT
  5
27B
330
1B
100
AcDbEntity
 67
     1
  8
0
  6
Continuous
 62
     7
370
     0
100
AcDbMText
 10
418.3680386609
 20
175.3890220962
 30
0.0
 40
2.38125
 41
0.0
 71
     1
 72
     1
  1
C
  7
SLDTEXTSTYLE1
 73
     1
 44
1.0
  0
MTEXT
  5
27C
330
1B
100
AcDbEntity
 67
     1
  8
0
  6
Continuous
 62
     7
370
     0
100
AcDbMText
 10
419.3915604936
 20
111.2288371218
 30
0.0
 40
2.38125
 41
0.0
 71
     1
 72
     1
  1
B
  7
SLDTEXTSTYLE1
 73
     1
 44
1.0
  0
MTEXT
  5
27D
330
1B
100
AcDbEntity
 67
     1
  8
0
  6
Continuous
 62
     7
370
     0
100
AcDbMText
 10
418.6448555065
 20
45.0246917692
 30
0.0
 40
2.38125
 41
0.0
 71
     1
 72
     1
  1
A
  7
SLDTEXTSTYLE1
 73
     1
 44
1.0
  0
MTEXT
  5
27E
330
1B
100
AcDbEntity
 67
     1
  8
0
  6
Continuous
 62
     7
370
     0
100
AcDbMText
 10
10.820652718
 20
44.5985924773
 30
0.0
 40
2.38125
 41
0.0
 71
     1
 72
     1
  1
A
  7
SLDTEXTSTYLE1
 73
     1
 44
1.0
  0
MTEXT
  5
27F
330
1B
100
AcDbEntity
 67
     1
  8
0
  6
Continuous
 62
     7
370
     0
100
AcDbMText
 10
10.8306039777
 20
111.5884357443
 30
0.0
 40
2.38125
 41
0.0
 71
     1
 72
     1
  1
B
  7
SLDTEXTSTYLE1
 73
     1
 44
1.0
  0
MTEXT
  5
280
330
1B
100
AcDbEntity
 67
     1
  8
0
  6
Continuous
 62
     7
370
     0
100
AcDbMText
 10
10.853786142
 20
175.522733138
 30
0.0
 40
2.38125
 41
0.0
 71
     1
 72
     1
  1
C
  7
SLDTEXTSTYLE1
 73
     1
 44
1.0
  0
MTEXT
  5
281
330
1B
100
AcDbEntity
 67
     1
  8
0
  6
Continuous
 62
     7
370
     0
100
AcDbMText
 10
10.8867061911
 20
240.2217030242
 30
0.0
 40
2.38125
 41
0.0
 71
     1
 72
     1
  1
D
  7
SLDTEXTSTYLE1
 73
     1
 44
1.0
  0
MTEXT
  5
282
330
1B
100
AcDbEntity
 67
     1
  8
0
  6
Continuous
 62
     7
370
     0
100
AcDbMText
 10
391.3712451301
 20
7.7719937363
 30
0.0
 40
3.5
 41
0.0
 71
     1
 72
     1
  1
1
  7
SLDTEXTSTYLE1
 73
     1
 44
1.0
  0
MTEXT
  5
283
330
1B
100
AcDbEntity
 67
     1
  8
0
  6
Continuous
 62
     7
370
     0
100
AcDbMText
 10
339.1483381356
 20
8.0530986624
 30
0.0
 40
3.5
 41
0.0
 71
     1
 72
     1
  1
2
  7
SLDTEXTSTYLE1
 73
     1
 44
1.0
  0
MTEXT
  5
284
330
1B
100
AcDbEntity
 67
     1
  8
0
  6
Continuous
 62
     7
370
     0
100
AcDbMText
 10
289.020766442
 20
8.0322719099
 30
0.0
 40
3.5
 41
0.0
 71
     1
 72
     1
  1
3
  7
SLDTEXTSTYLE1
 73
     1
 44
1.0
  0
MTEXT
  5
285
330
1B
100
AcDbEntity
 67
     1
  8
0
  6
Continuous
 62
     7
370
     0
100
AcDbMText
 10
240.541173263
 20
8.0857279275
 30
0.0
 40
3.5
 41
0.0
 71
     1
 72
     1
  1
4
  7
SLDTEXTSTYLE1
 73
     1
 44
1.0
  0
MTEXT
  5
286
330
1B
100
AcDbEntity
 67
     1
  8
0
  6
Continuous
 62
     7
370
     0
100
AcDbMText
 10
190.1219351105
 20
7.8888951884
 30
0.0
 40
2.38125
 41
0.0
 71
     1
 72
     1
  1
5
  7
SLDTEXTSTYLE1
 73
     1
 44
1.0
  0
MTEXT
  5
287
330
1B
100
AcDbEntity
 67
     1
  8
0
  6
Continuous
 62
     7
370
     0
100
AcDbMText
 10
140.1781610596
 20
7.9668476272
 30
0.0
 40
2.38125
 41
0.0
 71
     1
 72
     1
  1
6
  7
SLDTEXTSTYLE1
 73
     1
 44
1.0
  0
MTEXT
  5
288
330
1B
100
AcDbEntity
 67
     1
  8
0
  6
Continuous
 62
     7
370
     0
100
AcDbMText
 10
90.3586375544
 20
7.9568297864
 30
0.0
 40
2.38125
 41
0.0
 71
     1
 72
     1
  1
7
  7
SLDTEXTSTYLE1
 73
     1
 44
1.0
  0
MTEXT
  5
289
330
1B
100
AcDbEntity
 67
     1
  8
0
  6
Continuous
 62
     7
370
     0
100
AcDbMText
 10
38.7800710995
 20
7.9492539073
 30
0.0
 40
2.38125
 41
0.0
 71
     1
 72
     1
  1
8
  7
SLDTEXTSTYLE1
 73
     1
 44
1.0
  0
MTEXT
  5
28A
330
1B
100
AcDbEntity
 67
     1
  8
0
  6
Continuous
 62
     7
370
     0
100
AcDbMText
 10
38.3308572712
 20
275.1200557166
 30
0.0
 40
2.38125
 41
0.0
 71
     1
 72
     1
  1
8
  7
SLDTEXTSTYLE1
 73
     1
 44
1.0
  0
MTEXT
  5
28B
330
1B
100
AcDbEntity
 67
     1
  8
0
  6
Continuous
 62
     7
370
     0
100
AcDbMText
 10
90.1950704946
 20
275.0478953561
 30
0.0
 40
2.38125
 41
0.0
 71
     1
 72
     1
  1
7
  7
SLDTEXTSTYLE1
 73
     1
 44
1.0
  0
MTEXT
  5
28C
330
1B
100
AcDbEntity
 67
     1
  8
0
  6
Continuous
 62
     7
370
     0
100
AcDbMText
 10
139.6666672272
 20
275.2534126814
 30
0.0
 40
2.38125
 41
0.0
 71
     1
 72
     1
  1
6
  7
SLDTEXTSTYLE1
 73
     1
 44
1.0
  0
MTEXT
  5
28D
330
1B
100
AcDbEntity
 67
     1
  8
0
  6
Continuous
 62
     7
370
     0
100
AcDbMText
 10
189.9588449211
 20
275.2670412387
 30
0.0
 40
2.38125
 41
0.0
 71
     1
 72
     1
  1
5
  7
SLDTEXTSTYLE1
 73
     1
 44
1.0
  0
MTEXT
  5
28E
330
1B
100
AcDbEntity
 67
     1
  8
0
  6
Continuous
 62
     7
370
     0
100
AcDbMText
 10
240.3931876138
 20
275.2256559205
 30
0.0
 40
2.38125
 41
0.0
 71
     1
 72
     1
  1
4
  7
SLDTEXTSTYLE1
 73
     1
 44
1.0
  0
MTEXT
  5
28F
330
1B
100
AcDbEntity
 67
     1
  8
0
  6
Continuous
 62
     7
370
     0
100
AcDbMText
 10
290.3912938678
 20
275.0698655016
 30
0.0
 40
2.38125
 41
0.0
 71
     1
 72
     1
  1
3
  7
SLDTEXTSTYLE1
 73
     1
 44
1.0
  0
MTEXT
  5
290
330
1B
100
AcDbEntity
 67
     1
  8
0
  6
Continuous
 62
     7
370
     0
100
AcDbMText
 10
340.3852725955
 20
275.2395343009
 30
0.0
 40
2.38125
 41
0.0
 71
     1
 72
     1
  1
2
  7
SLDTEXTSTYLE1
 73
     1
 44
1.0
  0
MTEXT
  5
291
330
1B
100
AcDbEntity
 67
     1
  8
0
  6
Continuous
 62
     7
370
     0
100
AcDbMText
 10
391.8558838139
 20
275.083743882
 30
0.0
 40
2.38125
 41
0.0
 71
     1
 72
     1
  1
1
  7
SLDTEXTSTYLE1
 73
     1
 44
1.0
  0
INSERT
  5
29A
330
1B
100
AcDbEntity
 67
     1
  8
0
  6
Continuous
 62
     7
370
     0
100
AcDbBlockReference
  2
SW_NOTE_5
 10
235.3337800114
 20
23.4176594801
 30
0.0
  0
MTEXT
  5
29B
330
1B
100
AcDbEntity
 67
     1
  8
0
  6
Continuous
 62
     7
370
     0
100
AcDbMText
 10
239.1274867659
 20
30.7075849317
 30
0.0
 40
2.1166666667
 41
0.0
 71
     1
 72
     1
  1
PROPRIETARY AND CONFIDENTIAL
  7
SLDTEXTSTYLE1
 73
     1
 44
1.0
  0
INSERT
  5
2A1
330
1B
100
AcDbEntity
 67
     1
  8
0
  6
Continuous
 62
     7
370
     0
100
AcDbBlockReference
  2
SW_NOTE_6
 10
295.3669975841
 20
10.5915075223
 30
0.0
  0
MTEXT
  5
2A2
330
1B
100
AcDbEntity
 67
     1
  8
0
  6
Continuous
 62
     7
370
     0
100
AcDbMText
 10
332.5211137291
 20
41.3434271308
 30
0.0
 40
2.1166666667
 41
0.0
 71
     1
 72
     1
  1
Date
  7
SLDTEXTSTYLE1
 73
     1
 44
1.0
  0
MTEXT
  5
2A3
330
1B
100
AcDbEntity
 67
     1
  8
0
  6
Continuous
 62
     7
370
     0
100
AcDbMText
 10
296.7630656129
 20
41.3434271308
 30
0.0
 40
2.1166666667
 41
0.0
 71
     1
 72
     1
  1
Designer/Engineer
  7
SLDTEXTSTYLE1
 73
     1
 44
1.0
  0
MTEXT
  5
2A4
330
1B
100
AcDbEntity
 67
     1
  8
0
  6
Continuous
 62
     7
370
     0
100
AcDbMText
 10
363.800620014
 20
49.2741910187
 30
0.0
 40
4.2333333333
 41
0.0
 71
     1
 72
     1
  1
Innovation Labs
  7
SLDTEXTSTYLE1
 73
     1
 44
1.0
  0
MTEXT
  5
2A5
330
1B
100
AcDbEntity
 67
     1
  8
0
  6
Continuous
 62
     7
370
     0
100
AcDbMText
 10
349.1006517996
 20
40.5795883749
 30
0.0
 40
2.1166666667
 41
0.0
 71
     1
 72
     1
  1
TITLE:
  7
SLDTEXTSTYLE1
 73
     1
 44
1.0
  0
MTEXT
  5
2A6
330
1B
100
AcDbEntity
 67
     1
  8
0
  6
Continuous
 62
     7
370
     0
100
AcDbMText
 10
348.8415109904
 20
26.6045697452
 30
0.0
 40
2.1166666667
 41
0.0
 71
     1
 72
     1
  1
SIZE
  7
SLDTEXTSTYLE1
 73
     1
 44
1.0
  0
MTEXT
  5
2A7
330
1B
100
AcDbEntity
 67
     1
  8
0
  6
Continuous
 62
     7
370
     0
100
AcDbMText
 10
349.8302074594
 20
22.0592993897
 30
0.0
 40
3.7041666667
 41
0.0
 71
     1
 72
     1
  1
B
  7
SLDTEXTSTYLE1
 73
     1
 44
1.0
  0
MTEXT
  5
2A8
330
1B
100
AcDbEntity
 67
     1
  8
0
  6
Continuous
 62
     7
370
     0
100
AcDbMText
 10
358.1938447071
 20
26.6045697452
 30
0.0
 40
2.1166666667
 41
0.0
 71
     1
 72
     1
  1
PART  NO.
  7
SLDTEXTSTYLE7
 73
     1
 44
1.0
  0
MTEXT
  5
2A9
330
1B
100
AcDbEntity
 67
     1
  8
0
  6
Continuous
 62
     7
370
     0
100
AcDbMText
 10
406.3406725024
 20
26.6045697452
 30
0.0
 40
2.1166666667
 41
0.0
 71
     1
 72
     1
  1
REV
  7
SLDTEXTSTYLE1
 73
     1
 44
1.0
  0
MTEXT
  5
2AA
330
1B
100
AcDbEntity
 67
     1
  8
0
  6
Continuous
 62
     7
370
     0
100
AcDbMText
 10
367.4710195503
 20
13.32003418
 30
0.0
 40
2.1166666667
 41
0.0
 71
     1
 72
     1
  1
SCALE: 1:1
  7
SLDTEXTSTYLE1
 73
     1
 44
1.0
  0
INSERT
  5
2B0
330
1B
100
AcDbEntity
 67
     1
  8
SLD-0
100
AcDbBlockReference
  2
SW_NOTE_7
 10
351.2224099251
 20
32.9419413393
 30
0.0
  0
MTEXT
  5
2B1
330
1B
100
AcDbEntity
 67
     1
  8
SLD-0
100
AcDbMText
 10
359.9605769908
 20
21.895975731
 30
0.0
 40
3.5
 41
0.0
 71
     1
 72
     1
  1
MCH-00002535-000
  7
SLDTEXTSTYLE1
 73
     1
 44
1.0
  0
MTEXT
  5
2B2
330
1B
100
AcDbEntity
 67
     1
  8
SLD-0
100
AcDbMText
 10
406.4885821269
 20
22.0140313447
 30
0.0
 40
3.5
 41
0.0
 71
     1
 72
     1
  1
P1
  7
SLDTEXTSTYLE1
 73
     1
 44
1.0
  0
MTEXT
  5
2B3
330
1B
100
AcDbEntity
 67
     1
  8
SLD-0
100
AcDbMText
 10
397.2610212115
 20
13.32003418
 30
0.0
 40
2.1166666667
 41
0.0
 71
     1
 72
     1
  1
SHEET 2 OF 2
  7
SLDTEXTSTYLE8
 73
     1
 44
1.0
  0
INSERT
  5
2BA
330
1B
100
AcDbEntity
 67
     1
  8
0
  6
Continuous
 62
     7
370
     0
100
AcDbBlockReference
  2
SW_NOTE_8
 10
296.7630656129
 20
28.8894072801
 30
0.0
  0
MTEXT
  5
2BB
330
1B
100
AcDbEntity
 67
     1
  8
SLD-0
100
AcDbMText
 10
296.7630656129
 20
36.2848730811
 30
0.0
 40
1.8520833333
 41
0.0
 71
     1
 72
     1
  1
PETER CHESTER
  7
SLDTEXTSTYLE1
 73
     1
 44
1.0
  0
MTEXT
  5
2BC
330
1B
100
AcDbEntity
 67
     1
  8
SLD-0
100
AcDbMText
 10
330.5778162576
 20
36.5480338454
 30
0.0
 40
2.1166666667
 41
0.0
 71
     1
 72
     1
  1
12FEB2016
  7
SLDTEXTSTYLE1
 73
     1
 44
1.0
  0
MTEXT
  5
2BD
330
1B
100
AcDbEntity
 67
     1
  8
SLD-0
100
AcDbMText
 10
295.3669975841
 20
20.2171741558
 30
0.0
 40
1.8520833333
 41
0.0
 71
     1
 72
     1
  1
THIRD ANGLE PROJECTION
  7
SLDTEXTSTYLE1
 73
     1
 44
1.0
  0
INSERT
  5
2C3
330
1B
100
AcDbEntity
 67
     1
  8
SLD-0
 62
     7
100
AcDbBlockReference
  2
SW_NOTE_9
 10
237.4631801604
 20
37.7715949382
 30
0.0
  0
LINE
  5
2C4
330
1B
100
AcDbEntity
 67
     1
  8
0
  6
Continuous
 62
     7
370
    15
100
AcDbLine
 10
200.8909090909
 20
214.5145454545
 30
0.0
 11
181.8409090909
 21
214.5145454545
 31
0.0
  0
LINE
  5
2C5
330
1B
100
AcDbEntity
 67
     1
  8
0
  6
Continuous
 62
     7
370
    15
100
AcDbLine
 10
200.8909090909
 20
100.2145454545
 30
0.0
 11
200.8909090909
 21
214.5145454545
 31
0.0
  0
LINE
  5
2C6
330
1B
100
AcDbEntity
 67
     1
  8
0
  6
Continuous
 62
     7
370
    15
100
AcDbLine
 10
181.8409090909
 20
100.2145454545
 30
0.0
 11
200.8909090909
 21
100.2145454545
 31
0.0
  0
LINE
  5
2C7
330
1B
100
AcDbEntity
 67
     1
  8
0
  6
Continuous
 62
     7
370
    15
100
AcDbLine
 10
181.8409090909
 20
214.5145454545
 30
0.0
 11
181.8409090909
 21
100.2145454545
 31
0.0
  0
ENDSEC
  0
SECTION
  2
OBJECTS
  0
DICTIONARY
  5
C
330
0
100
AcDbDictionary
281
     1
  3
ACAD_GROUP
350
D
  3
ACAD_LAYOUT
350
1A
  3
ACAD_MLINESTYLE
350
17
  3
ACAD_PLOTSETTINGS
350
19
  3
ACAD_PLOTSTYLENAME
350
E
  3
ACAD_SCALELIST
350
47
  0
DICTIONARY
  5
D
102
{ACAD_REACTORS
330
C
102
}
330
C
100
AcDbDictionary
281
     1
  0
DICTIONARY
  5
1A
102
{ACAD_REACTORS
330
C
102
}
330
C
100
AcDbDictionary
281
     1
  3
Model
350
22
  3
Sheet2
350
1E
  0
DICTIONARY
  5
17
102
{ACAD_REACTORS
330
C
102
}
330
C
100
AcDbDictionary
281
     1
  3
Standard
350
18
  0
DICTIONARY
  5
19
102
{ACAD_REACTORS
330
C
102
}
330
C
100
AcDbDictionary
281
     1
  0
ACDBDICTIONARYWDFLT
  5
E
102
{ACAD_REACTORS
330
C
102
}
330
C
100
AcDbDictionary
281
     1
  3
Normal
350
F
100
AcDbDictionaryWithDefault
340
F
  0
DICTIONARY
  5
47
102
{ACAD_REACTORS
330
C
102
}
330
C
100
AcDbDictionary
281
     1
  3
A0
350
48
  3
A1
350
49
  3
A2
350
4A
  3
A3
350
4B
  3
A4
350
4C
  3
A5
350
4D
  3
A6
350
4E
  3
A7
350
4F
  3
A8
350
50
  3
A9
350
51
  3
B0
350
52
  3
B1
350
53
  3
B2
350
54
  3
B3
350
55
  3
B4
350
56
  3
B5
350
57
  3
B6
350
58
  3
B7
350
59
  3
B8
350
5A
  3
B9
350
5B
  3
C0
350
5C
  3
C1
350
5D
  3
C2
350
5E
  3
C3
350
5F
  3
C4
350
60
  3
C5
350
61
  3
C6
350
62
  3
C7
350
63
  3
C8
350
64
  3
C9
350
65
  3
D0
350
66
  3
D1
350
67
  3
D2
350
68
  0
LAYOUT
  5
22
102
{ACAD_REACTORS
330
1A
102
}
330
1A
100
AcDbPlotSettings
  1

  2
none_device
  4
Letter_(8.50_x_11.00_Inches)
  6

 40
6.35
 41
6.35
 42
6.35000508
 43
6.35000508
 44
215.9
 45
279.4
 46
0.0
 47
0.0
 48
0.0
 49
0.0
140
0.0
141
0.0
142
1.0
143
1.0
 70
  1712
 72
     1
 73
     0
 74
     0
  7

 75
     0
147
1.0
148
0.0
149
0.0
100
AcDbLayout
  1
Model
 70
     1
 71
     0
 10
0.0
 20
0.0
 11
431.8
 21
279.4
 12
0.0
 22
0.0
 32
0.0
 14
0.0
 24
0.0
 34
0.0
 15
431.8
 25
279.4
 35
0.0
146
0.0
 13
0.0
 23
0.0
 33
0.0
 16
1.0
 26
0.0
 36
0.0
 17
0.0
 27
1.0
 37
0.0
 76
     0
330
1F
331
29
  0
LAYOUT
  5
1E
102
{ACAD_REACTORS
330
1A
102
}
330
1A
100
AcDbPlotSettings
  1

  2
none_device
  4
ANSI_B_(17.00_x_11.00_Inches)
  6

 40
6.35
 41
19.05
 42
6.35000508
 43
19.0499873
 44
431.8
 45
279.4
 46
0.0
 47
0.0
 48
0.0
 49
0.0
140
0.0
141
0.0
142
1.0
143
25.4
 70
  4832
 72
     0
 73
     0
 74
     1
  7

 75
     0
147
1.0
148
0.0
149
0.0
100
AcDbLayout
  1
Sheet2
 70
     1
 71
     1
 10
0.0
 20
0.0
 11
431.8
 21
279.4
 12
0.0
 22
0.0
 32
0.0
 14
0.0
 24
0.0
 34
0.0
 15
431.8
 25
279.4
 35
0.0
146
0.0
 13
0.0
 23
0.0
 33
0.0
 16
1.0
 26
0.0
 36
0.0
 17
0.0
 27
1.0
 37
0.0
 76
     0
330
1B
  0
MLINESTYLE
  5
18
102
{ACAD_REACTORS
330
17
102
}
330
17
100
AcDbMlineStyle
  2
Standard
 70
     0
  3

 62
   256
 51
90.0
 52
90.0
 71
     2
 49
0.5
 62
   256
  6
BYLAYER
 49
-0.5
 62
   256
  6
BYLAYER
  0
ACDBPLACEHOLDER
  5
F
102
{ACAD_REACTORS
330
E
102
}
330
E
  0
SCALE
  5
48
102
{ACAD_REACTORS
330
47
102
}
330
47
100
AcDbScale
 70
     0
300
1:1
140
1.0
141
1.0
290
     1
  0
SCALE
  5
49
102
{ACAD_REACTORS
330
47
102
}
330
47
100
AcDbScale
 70
     0
300
1:2
140
1.0
141
2.0
290
     0
  0
SCALE
  5
4A
102
{ACAD_REACTORS
330
47
102
}
330
47
100
AcDbScale
 70
     0
300
1:4
140
1.0
141
4.0
290
     0
  0
SCALE
  5
4B
102
{ACAD_REACTORS
330
47
102
}
330
47
100
AcDbScale
 70
     0
300
1:5
140
1.0
141
5.0
290
     0
  0
SCALE
  5
4C
102
{ACAD_REACTORS
330
47
102
}
330
47
100
AcDbScale
 70
     0
300
1:8
140
1.0
141
8.0
290
     0
  0
SCALE
  5
4D
102
{ACAD_REACTORS
330
47
102
}
330
47
100
AcDbScale
 70
     0
300
1:10
140
1.0
141
10.0
290
     0
  0
SCALE
  5
4E
102
{ACAD_REACTORS
330
47
102
}
330
47
100
AcDbScale
 70
     0
300
1:16
140
1.0
141
16.0
290
     0
  0
SCALE
  5
4F
102
{ACAD_REACTORS
330
47
102
}
330
47
100
AcDbScale
 70
     0
300
1:20
140
1.0
141
20.0
290
     0
  0
SCALE
  5
50
102
{ACAD_REACTORS
330
47
102
}
330
47
100
AcDbScale
 70
     0
300
1:30
140
1.0
141
30.0
290
     0
  0
SCALE
  5
51
102
{ACAD_REACTORS
330
47
102
}
330
47
100
AcDbScale
 70
     0
300
1:40
140
1.0
141
40.0
290
     0
  0
SCALE
  5
52
102
{ACAD_REACTORS
330
47
102
}
330
47
100
AcDbScale
 70
     0
300
1:50
140
1.0
141
50.0
290
     0
  0
SCALE
  5
53
102
{ACAD_REACTORS
330
47
102
}
330
47
100
AcDbScale
 70
     0
300
1:100
140
1.0
141
100.0
290
     0
  0
SCALE
  5
54
102
{ACAD_REACTORS
330
47
102
}
330
47
100
AcDbScale
 70
     0
300
2:1
140
2.0
141
1.0
290
     0
  0
SCALE
  5
55
102
{ACAD_REACTORS
330
47
102
}
330
47
100
AcDbScale
 70
     0
300
4:1
140
4.0
141
1.0
290
     0
  0
SCALE
  5
56
102
{ACAD_REACTORS
330
47
102
}
330
47
100
AcDbScale
 70
     0
300
8:1
140
8.0
141
1.0
290
     0
  0
SCALE
  5
57
102
{ACAD_REACTORS
330
47
102
}
330
47
100
AcDbScale
 70
     0
300
10:1
140
10.0
141
1.0
290
     0
  0
SCALE
  5
58
102
{ACAD_REACTORS
330
47
102
}
330
47
100
AcDbScale
 70
     0
300
100:1
140
100.0
141
1.0
290
     0
  0
SCALE
  5
59
102
{ACAD_REACTORS
330
47
102
}
330
47
100
AcDbScale
 70
     0
300
1/128" = 1'-0"
140
0.0078125
141
12.0
290
     0
  0
SCALE
  5
5A
102
{ACAD_REACTORS
330
47
102
}
330
47
100
AcDbScale
 70
     0
300
1/64" = 1'-0"
140
0.015625
141
12.0
290
     0
  0
SCALE
  5
5B
102
{ACAD_REACTORS
330
47
102
}
330
47
100
AcDbScale
 70
     0
300
1/32" = 1'-0"
140
0.03125
141
12.0
290
     0
  0
SCALE
  5
5C
102
{ACAD_REACTORS
330
47
102
}
330
47
100
AcDbScale
 70
     0
300
1/16" = 1'-0"
140
0.0625
141
12.0
290
     0
  0
SCALE
  5
5D
102
{ACAD_REACTORS
330
47
102
}
330
47
100
AcDbScale
 70
     0
300
3/32" = 1'-0"
140
0.09375
141
12.0
290
     0
  0
SCALE
  5
5E
102
{ACAD_REACTORS
330
47
102
}
330
47
100
AcDbScale
 70
     0
300
1/8" = 1'-0"
140
0.125
141
12.0
290
     0
  0
SCALE
  5
5F
102
{ACAD_REACTORS
330
47
102
}
330
47
100
AcDbScale
 70
     0
300
3/16" = 1'-0"
140
0.1875
141
12.0
290
     0
  0
SCALE
  5
60
102
{ACAD_REACTORS
330
47
102
}
330
47
100
AcDbScale
 70
     0
300
1/4" = 1'-0"
140
0.25
141
12.0
290
     0
  0
SCALE
  5
61
102
{ACAD_REACTORS
330
47
102
}
330
47
100
AcDbScale
 70
     0
300
3/8" = 1'-0"
140
0.375
141
12.0
290
     0
  0
SCALE
  5
62
102
{ACAD_REACTORS
330
47
102
}
330
47
100
AcDbScale
 70
     0
300
1/2" = 1'-0"
140
0.5
141
12.0
290
     0
  0
SCALE
  5
63
102
{ACAD_REACTORS
330
47
102
}
330
47
100
AcDbScale
 70
     0
300
3/4" = 1'-0"
140
0.75
141
12.0
290
     0
  0
SCALE
  5
64
102
{ACAD_REACTORS
330
47
102
}
330
47
100
AcDbScale
 70
     0
300
1" = 1'-0"
140
1.0
141
12.0
290
     0
  0
SCALE
  5
65
102
{ACAD_REACTORS
330
47
102
}
330
47
100
AcDbScale
 70
     0
300
1-1/2" = 1'-0"
140
1.5
141
12.0
290
     0
  0
SCALE
  5
66
102
{ACAD_REACTORS
330
47
102
}
330
47
100
AcDbScale
 70
     0
300
3" = 1'-0"
140
3.0
141
12.0
290
     0
  0
SCALE
  5
67
102
{ACAD_REACTORS
330
47
102
}
330
47
100
AcDbScale
 70
     0
300
6" = 1'-0"
140
6.0
141
12.0
290
     0
  0
SCALE
  5
68
102
{ACAD_REACTORS
330
47
102
}
330
47
100
AcDbScale
 70
     0
300
1'-0" = 1'-0"
140
12.0
141
12.0
290
     0
  0
ENDSEC
  0
EOF
